<?xml version="1.0" standalone="no"?>
<!DOCTYPE svg PUBLIC "-//W3C//DTD SVG 1.1//EN" "http://www.w3.org/Graphics/SVG/1.1/DTD/svg11.dtd" >
<svg xmlns="http://www.w3.org/2000/svg">
<metadata></metadata>
<defs>
<font id="cairoblack" horiz-adv-x="1146" >
<font-face units-per-em="2048" ascent="1638" descent="-410" />
<missing-glyph horiz-adv-x="450" />
<glyph unicode="&#x627;&#xfedf;&#xfee0;&#xfeea;" horiz-adv-x="3272" arabic-form="isolated" d="M82 539q0 217 59.5 324.5t188.5 144t375 36.5q137 0 300.5 -9t219.5 -19v-694h241v841h353v-841h438v1087h352v-1409h-1935q-219 0 -342 37t-186.5 152.5t-63.5 349.5zM434 537q0 -99 27.5 -145t77 -58t141.5 -12h192v395q-129 6 -172 6q-109 0 -162 -11.5t-78.5 -51 t-25.5 -123.5zM1341 1499q0 25 2.5 61.5t4.5 38.5l133 27v-153q0 -23 5 -31t10 -8h7q45 12 45 61v104l86 19v-139q0 -16 11.5 -16.5t13.5 -0.5l31 4v195l122 27q12 -61 16.5 -95t4.5 -80v-165l-147 -29l-16 -1q-15 -1 -52 23q-16 -31 -49 -47t-72 -16q-37 0 -74 16 q-4 4 -27.5 24.5t-39 68t-15.5 112.5zM1493 1792v502l188 88v-506zM2736 0v1409h352v-1409h-352z" />
<glyph unicode="&#xfedf;&#xfe82;" horiz-adv-x="1368" arabic-form="isolated" d="M82 0v322h256v811h352v-811h199v1087h352v-1409h-1159zM82 0zM253 1476q86 90 173 90q39 0 94 -21.5t63 -25.5q92 -41 99 -41q12 0 65 45l35 35l63 -200q-86 -86 -166 -86q-32 0 -87.5 21.5t-67.5 25.5q-14 8 -54 24.5t-51 16.5q-12 0 -40.5 -24t-28.5 -21l-35 -37z" />
<glyph unicode="&#xfee0;&#xfe82;" horiz-adv-x="1390" arabic-form="final" d="M82 0v322h256v811h352v-811h199v1087h352v-1087h150v-322h-1309zM82 0zM253 1476q86 90 173 90q39 0 94 -21.5t63 -25.5q92 -41 99 -41q12 0 65 45l35 35l63 -200q-86 -86 -166 -86q-32 0 -87.5 21.5t-67.5 25.5q-14 8 -54 24.5t-51 16.5q-12 0 -40.5 -24t-28.5 -21 l-35 -37z" />
<glyph unicode="&#xfedf;&#xfe84;" horiz-adv-x="1368" arabic-form="isolated" d="M82 0v322h256v811h352v-811h199v1087h352v-1409h-1159zM82 0zM274 1399l91 23q-86 74 -87 180q0 90 65 155.5t167 65.5q78 0 166 -49l-31 -154q-35 29 -80 29q-43 0 -69.5 -28.5t-26.5 -67.5q0 -61 51 -90l215 57l33 -146l-469 -92z" />
<glyph unicode="&#xfee0;&#xfe84;" horiz-adv-x="1390" arabic-form="final" d="M82 0v322h256v811h352v-811h199v1087h352v-1087h150v-322h-1309zM82 0zM274 1399l91 23q-86 74 -87 180q0 90 65 155.5t167 65.5q78 0 166 -49l-31 -154q-35 29 -80 29q-43 0 -69.5 -28.5t-26.5 -67.5q0 -61 51 -90l215 57l33 -146l-469 -92z" />
<glyph unicode="&#xfedf;&#xfe88;" horiz-adv-x="1368" arabic-form="isolated" d="M82 0v322h256v811h352v-811h199v1087h352v-1409h-1159zM82 0zM272 -588l90 25q-43 35 -64.5 82t-21.5 96q0 90 64.5 155.5t167.5 65.5q84 0 168 -49l-31 -151q-12 8 -33.5 17t-48.5 9q-43 0 -69.5 -28.5t-26.5 -67.5q0 -27 13.5 -50.5t39.5 -37.5l213 55l33 -145 l-469 -92z" />
<glyph unicode="&#xfee0;&#xfe88;" horiz-adv-x="1390" arabic-form="final" d="M82 0v322h256v811h352v-811h199v1087h352v-1087h150v-322h-1309zM82 0zM272 -588l90 25q-43 35 -64.5 82t-21.5 96q0 90 64.5 155.5t167.5 65.5q84 0 168 -49l-31 -151q-12 8 -33.5 17t-48.5 9q-43 0 -69.5 -28.5t-26.5 -67.5q0 -27 13.5 -50.5t39.5 -37.5l213 55 l33 -145l-469 -92z" />
<glyph unicode="&#xfedf;&#xfe8e;" horiz-adv-x="1368" arabic-form="isolated" d="M82 0v322h256v811h352v-811h199v1087h352v-1409h-1159z" />
<glyph unicode="&#xfee0;&#xfe8e;" horiz-adv-x="1390" arabic-form="final" d="M82 0v322h256v811h352v-811h199v1087h352v-1087h150v-322h-1309z" />
<glyph unicode="&#xfedf;&#xfb51;" horiz-adv-x="1368" d="M82 0v322h256v811h352v-811h199v1087h352v-1409h-1159zM82 0zM281 1284v156h76q0 51 33.5 110.5t91 99t121.5 39.5q82 0 129 -63.5t47 -185.5v-156h-498zM455 1440h201q0 63 -14.5 91.5t-55.5 28.5q-51 0 -91 -37.5t-40 -82.5z" />
<glyph unicode="&#xfee0;&#xfb51;" horiz-adv-x="1390" d="M82 0v322h256v811h352v-811h199v1087h352v-1087h150v-322h-1309zM82 0zM281 1284v156h76q0 51 33.5 110.5t91 99t121.5 39.5q82 0 129 -63.5t47 -185.5v-156h-498zM455 1440h201q0 63 -14.5 91.5t-55.5 28.5q-51 0 -91 -37.5t-40 -82.5z" />
<glyph unicode="&#x66e;" horiz-adv-x="786" d="M0 0v322h305v702h352v-1024h-657z" />
<glyph unicode="&#x66e;" horiz-adv-x="966" d="M0 0v322h305v702h352v-702h310v-322h-967z" />
<glyph unicode="&#x66e;" horiz-adv-x="2009" d="M111 436q0 90 19.5 193.5t43.5 179.5l287 -16q2 23 -15 -125q-14 -121 -14 -150q0 -72 52.5 -134t195.5 -62h668v702h352v-702h309v-322h-1276q-174 0 -301 22.5t-224 118t-97 295.5z" />
<glyph unicode="&#x66f;" horiz-adv-x="1372" d="M0 0v322h246q4 -4 -8.5 76.5t-12.5 168.5q0 178 67.5 276.5t200 137.5t345.5 39q197 0 292 -12l140 -17v-991h-1270zM0 0zM586 479q0 -84 6 -113.5t8 -43.5h318v380q-86 4 -109 5q-100 0 -144 -14.5t-61.5 -60.5t-17.5 -153z" />
<glyph unicode="&#x66f;" horiz-adv-x="1404" d="M0 0v322h246q4 -4 -8.5 76.5t-12.5 168.5q0 178 67.5 276.5t200 137.5t345.5 39q197 0 292 -12l140 -17v-669h135v-322h-1405zM0 0zM586 479q0 -84 6 -113.5t8 -43.5h318v380q-86 4 -109 5q-100 0 -144 -14.5t-61.5 -60.5t-17.5 -153z" />
<glyph unicode="&#x66f;" horiz-adv-x="2072" d="M82 -74q0 172 90 682l328 -55l-21 -129q-29 -184 -44 -295t-15 -178q0 -231 223 -232h586q125 0 175 68t50 158v55h-225q-180 0 -272.5 28.5t-139.5 132t-47 322.5q0 244 59.5 357.5t180 146.5t362.5 33q184 0 295 -12l139 -17v-669h267v-322h-267v-80q0 -131 -61.5 -250 t-192.5 -195.5t-329 -76.5h-576q-201 0 -327.5 76.5t-182 195.5t-55.5 256zM1122 485q0 -71 11.5 -107t33 -47.5t60.5 -11.5l80 3h147v374h-80q-109 0 -156 -9t-71.5 -53t-24.5 -149z" />
<glyph unicode="&#x6a1;" horiz-adv-x="1372" d="M0 0v322h246q4 -4 -8.5 76.5t-12.5 168.5q0 178 67.5 276.5t200 137.5t345.5 39q197 0 292 -12l140 -17v-991h-1270zM586 479q0 -84 6 -113.5t8 -43.5h318v380q-86 4 -109 5q-100 0 -144 -14.5t-61.5 -60.5t-17.5 -153z" />
<glyph unicode="&#x6a1;" horiz-adv-x="1404" d="M0 0v322h246q4 -4 -8.5 76.5t-12.5 168.5q0 178 67.5 276.5t200 137.5t345.5 39q197 0 292 -12l140 -17v-669h135v-322h-1405zM586 479q0 -84 6 -113.5t8 -43.5h318v380q-86 4 -109 5q-100 0 -144 -14.5t-61.5 -60.5t-17.5 -153z" />
<glyph unicode="&#x6a1;" horiz-adv-x="2244" d="M82 440q0 156 61 369l287 -16q-4 -45 -8 -68q-18 -178 -19 -207q0 -72 52.5 -134t195.5 -62h371q-29 131 -29 241q0 250 146.5 354.5t445.5 104.5q182 0 313 -14l140 -17v-669h207v-322h-1540q-174 0 -301.5 22.5t-224.5 119t-97 298.5zM1018 289q2 -4 5 -4t3 4h-8z M1354 451q0 -59 10 -129h322v380q-82 4 -105 5q-102 0 -147 -15.5t-62.5 -68t-17.5 -172.5z" />
<glyph unicode="&#x6ba;" horiz-adv-x="786" d="M0 0v322h305v702h352v-1024h-657zM0 0z" />
<glyph unicode="&#x6ba;" horiz-adv-x="966" d="M0 0v322h305v702h352v-702h310v-322h-967zM0 0z" />
<glyph unicode="&#x6c2;" horiz-adv-x="786" d="M0 0v322h305v702h352v-1024h-657zM0 0zM72 -701l215 574h284l-108 -574h-391zM231 1401l91 23q-86 74 -87 180q0 90 65 155.5t167 65.5q78 0 166 -49l-31 -154q-35 29 -80 29q-43 0 -69.5 -28.5t-26.5 -67.5q0 -61 51 -90l215 57l33 -146l-469 -92z" />
<glyph unicode="&#x6c2;" horiz-adv-x="1224" d="M0 0v322h537v-175l-2 -122q0 -147 30.5 -245.5t120.5 -105.5v648h539v-322h-187v-625l-151 -16q-12 0 -54 -4t-96 -2q-207 0 -319.5 80t-156.5 217t-56 350h-205zM0 0zM354 924l91 23q-86 74 -87 180q0 90 65 155.5t167 65.5q78 0 166 -49l-31 -154q-35 29 -80 29 q-43 0 -69.5 -28.5t-26.5 -67.5q0 -61 51 -90l215 57l33 -146l-469 -92z" />
<glyph unicode="&#x6c2;" horiz-adv-x="1425" d="M82 0zM82 539q0 217 59.5 324.5t188.5 144t375 36.5q137 0 300.5 -9t219.5 -19v-694h200v-322h-751q-219 0 -342 37t-186.5 152.5t-63.5 349.5zM434 537q0 -99 27.5 -145t77 -58t141.5 -12h192v395q-129 6 -172 6q-109 0 -162 -11.5t-78.5 -51t-25.5 -123.5zM448 1401 l91 23q-86 74 -87 180q0 90 65 155.5t167 65.5q78 0 166 -49l-31 -154q-35 29 -80 29q-43 0 -69.5 -28.5t-26.5 -67.5q0 -61 51 -90l215 57l33 -146l-469 -92z" />
<glyph unicode="&#x6c3;" horiz-adv-x="1406" d="M82 0v438q0 266 66.5 391t234.5 167t522 42q104 0 178 -10l140 -16v-690h184v-322h-537v723q-33 0 -69 4l-78 2q-131 0 -190.5 -20.5t-81 -79t-21.5 -189.5v-440h-348zM82 0zM381 1276v311h248v-311h-248zM729 1276v311h248v-311h-248z" />
<glyph unicode="&#x671;" horiz-adv-x="708" arabic-form="final" d="M78 0zM78 1370v156h76q0 51 33.5 110.5t91 99t121.5 39.5q82 0 129 -63.5t47 -185.5v-156h-498zM150 0v1233h352v-911h207v-322h-559zM252 1526h201q0 63 -14.5 91.5t-55.5 28.5q-51 0 -91 -37.5t-40 -82.5z" />
<glyph unicode="&#x67e;" horiz-adv-x="2009" arabic-form="final" d="M111 0zM111 436q0 90 19.5 193.5t43.5 179.5l287 -16q2 23 -15 -125q-14 -121 -14 -150q0 -72 52.5 -134t195.5 -62h668v702h352v-702h309v-322h-1276q-174 0 -301 22.5t-224 118t-97 295.5zM631 -164h248v-294h-248v294zM817 -491h225v-271h-225v271zM979 -164h248v-294 h-248v294z" />
<glyph unicode="&#x67e;" horiz-adv-x="786" arabic-form="initial" d="M0 0v322h305v702h352v-1024h-657zM0 0zM191 -164h248v-294h-248v294zM377 -491h225v-271h-225v271zM539 -164h248v-294h-248v294z" />
<glyph unicode="&#x67e;" horiz-adv-x="966" arabic-form="medial" d="M0 0v322h305v702h352v-702h310v-322h-967zM0 0zM180 -164h248v-294h-248v294zM366 -491h225v-271h-225v271zM528 -164h248v-294h-248v294z" />
<glyph unicode="&#x679;" horiz-adv-x="2009" arabic-form="final" d="M111 0zM111 436q0 90 19.5 193.5t43.5 179.5l287 -16q2 23 -15 -125q-14 -121 -14 -150q0 -72 52.5 -134t195.5 -62h668v702h352v-702h309v-322h-1276q-174 0 -301 22.5t-224 118t-97 295.5zM690 1024v139h10v467h115v-325q35 63 92 100t109 37q67 0 122.5 -55.5 t55.5 -145.5v-217h-504zM815 1163h274v78q0 33 -31.5 56.5t-74.5 23.5t-82 -23.5t-62.5 -57.5t-23.5 -67v-10z" />
<glyph unicode="&#x679;" horiz-adv-x="786" arabic-form="initial" d="M0 0v322h305v702h352v-1024h-657zM0 0zM250 1215v139h10v467h115v-325q35 63 92 100t109 37q67 0 122.5 -55.5t55.5 -145.5v-217h-504zM375 1354h274v78q0 33 -31.5 56.5t-74.5 23.5t-82 -23.5t-62.5 -57.5t-23.5 -67v-10z" />
<glyph unicode="&#x679;" horiz-adv-x="966" arabic-form="medial" d="M0 0v322h305v702h352v-702h310v-322h-967zM0 0zM240 1215v139h10v467h115v-325q35 63 92 100t109 37q67 0 122.5 -55.5t55.5 -145.5v-217h-504zM365 1354h274v78q0 33 -31.5 56.5t-74.5 23.5t-82 -23.5t-62.5 -57.5t-23.5 -67v-10z" />
<glyph unicode="&#x6a4;" horiz-adv-x="2244" arabic-form="final" d="M82 0zM82 440q0 156 61 369l287 -16q-4 -45 -8 -68q-18 -178 -19 -207q0 -72 52.5 -134t195.5 -62h371q-29 131 -29 241q0 250 146.5 354.5t445.5 104.5q182 0 313 -14l140 -17v-669h207v-322h-1540q-174 0 -301.5 22.5t-224.5 119t-97 298.5zM1018 289q2 -4 5 -4t3 4h-8 zM1346 1214v295h248v-295h-248zM1354 451q0 -59 10 -129h322v380q-82 4 -105 5q-102 0 -147 -15.5t-62.5 -68t-17.5 -172.5zM1532 1542v270h225v-270h-225zM1694 1214v295h248v-295h-248z" />
<glyph unicode="&#x6a4;" horiz-adv-x="1372" arabic-form="initial" d="M0 0v322h246q4 -4 -8.5 76.5t-12.5 168.5q0 178 67.5 276.5t200 137.5t345.5 39q197 0 292 -12l140 -17v-991h-1270zM0 0zM471 1214v295h248v-295h-248zM586 479q0 -84 6 -113.5t8 -43.5h318v380q-86 4 -109 5q-100 0 -144 -14.5t-61.5 -60.5t-17.5 -153zM657 1542v270 h225v-270h-225zM819 1214v295h248v-295h-248z" />
<glyph unicode="&#x6a4;" horiz-adv-x="1404" arabic-form="medial" d="M0 0v322h246q4 -4 -8.5 76.5t-12.5 168.5q0 178 67.5 276.5t200 137.5t345.5 39q197 0 292 -12l140 -17v-669h135v-322h-1405zM0 0zM480 1214v295h248v-295h-248zM586 479q0 -84 6 -113.5t8 -43.5h318v380q-86 4 -109 5q-100 0 -144 -14.5t-61.5 -60.5t-17.5 -153z M666 1542v270h225v-270h-225zM828 1214v295h248v-295h-248z" />
<glyph unicode="&#x686;" horiz-adv-x="1325" arabic-form="final" d="M47 -131q0 213 111.5 331.5t333.5 118.5q90 0 221 -16l47 -4v295q0 82 -26.5 119t-110.5 37q-33 -2 -129 -2h-199h-113l-8 227q104 31 266 50t281 19q154 0 238.5 -38.5t117.5 -109.5t35 -181v-393h213v-322h-565q-49 6 -99.5 10t-85.5 4q-80 0 -129 -46t-49 -126 q0 -74 48.5 -123t144.5 -49l45 -311l-43 -2q-49 -4 -74 -4q-221 0 -346 140t-125 376zM727 -123h240v-280h-240v280zM893 -444h225v-263h-225v263zM1038 -123h240v-280h-240v280z" />
<glyph unicode="&#x686;" horiz-adv-x="1214" arabic-form="initial" d="M0 0v322h739v272q0 82 -26.5 119t-110.5 37q-33 -2 -129 -2h-199h-112l-8 227q104 31 266 50t280 19q154 0 239 -38.5t118 -109.5t35 -181v-715h-1092zM0 0zM355 -164h248v-294h-248v294zM541 -491h225v-271h-225v271zM703 -164h248v-294h-248v294z" />
<glyph unicode="&#x686;" horiz-adv-x="1288" arabic-form="medial" d="M0 0v322h739v272q0 82 -26.5 119t-110.5 37q-33 -2 -129 -2h-199h-112l-8 227q104 31 266 50t280 19q154 0 239 -38.5t118 -109.5t35 -181v-393h196v-322h-1288zM0 0zM353 -164h248v-294h-248v294zM539 -491h225v-271h-225v271zM701 -164h248v-294h-248v294z" />
<glyph unicode="&#x688;" horiz-adv-x="1312" arabic-form="final" d="M82 0v322h651q-6 223 -94 323t-209 100h-235l-27 281q231 47 352 47q178 0 305 -90t193.5 -258t66.5 -397v-6h228v-322h-1231zM82 0zM160 1270v139h10v467h115v-325q35 63 92 100t109 37q67 0 122.5 -55.5t55.5 -145.5v-217h-504zM285 1409h274v78q0 33 -31.5 56.5 t-74.5 23.5t-82 -23.5t-62.5 -57.5t-23.5 -67v-10z" />
<glyph unicode="&#x698;" horiz-adv-x="966" arabic-form="final" d="M82 0zM82 -182l31 -2q111 0 110 168v1042h352v-704h392v-322h-392q-6 -233 -92 -369.5t-254 -136.5q-45 0 -147 6v318zM103 1214v295h248v-295h-248zM289 1542v270h225v-270h-225zM451 1214v295h248v-295h-248z" />
<glyph unicode="&#x691;" horiz-adv-x="966" arabic-form="final" d="M82 0zM82 -182l31 -2q111 0 110 168v1042h352v-704h392v-322h-392q-6 -233 -92 -369.5t-254 -136.5q-45 0 -147 6v318zM162 1215v139h10v467h115v-325q35 63 92 100t109 37q67 0 122.5 -55.5t55.5 -145.5v-217h-504zM287 1354h274v78q0 33 -31.5 56.5t-74.5 23.5 t-82 -23.5t-62.5 -57.5t-23.5 -67v-10z" />
<glyph unicode="&#x6a9;" horiz-adv-x="2080" arabic-form="final" d="M82 436q0 76 13.5 159t33.5 150l297 -16l-8 -70q-14 -119 -15 -141q0 -72 52.5 -134t195.5 -62h873v223q0 70 -25.5 115t-61.5 65t-63 18h-545l-165 224l133 260q43 88 109.5 174t117.5 135l264 -150q-16 -18 -75.5 -113t-108.5 -190l-10 -18h346q193 0 289 -106.5 t121.5 -221t25.5 -194.5v-221h205v-322h-1376q-174 0 -301.5 22.5t-224.5 118t-97 295.5zM1288 1386z" />
<glyph unicode="&#x6a9;" horiz-adv-x="1380" arabic-form="initial" d="M0 0v322h905v223q0 70 -25.5 115t-61.5 65t-62 18h-545l-166 224l133 260q43 88 109.5 174t118.5 135l264 -150q-16 -18 -75.5 -113t-109.5 -190l-10 -18h346q193 0 289 -106.5t121.5 -221t25.5 -194.5v-543h-1257zM0 0zM670 1386z" />
<glyph unicode="&#x6a9;" horiz-adv-x="1517" arabic-form="medial" d="M0 0v322h905v223q0 70 -25.5 115t-61.5 65t-62 18h-545l-166 224l133 260q43 88 109.5 174t118.5 135l264 -150q-16 -18 -75.5 -113t-109.5 -190l-10 -18h346q193 0 289 -106.5t121.5 -221t25.5 -194.5v-221h261v-322h-1518zM0 0zM670 1386z" />
<glyph unicode="&#x6af;" horiz-adv-x="2080" arabic-form="final" d="M82 0zM82 436q0 76 13.5 159t33.5 150l297 -16l-8 -70q-14 -119 -15 -141q0 -72 52.5 -134t195.5 -62h873v223q0 70 -25.5 115t-61.5 65t-63 18h-545l-165 224l133 260q43 88 109.5 174t117.5 135l264 -150q-16 -18 -75.5 -113t-108.5 -190l-10 -18h346q193 0 289 -106.5 t121.5 -221t25.5 -194.5v-221h205v-322h-1376q-174 0 -301.5 22.5t-224.5 118t-97 295.5zM443 1278l82 158q55 104 116.5 189.5t69.5 95.5l219 -123q-43 -49 -101.5 -130t-109.5 -175l-112 -232zM1288 1386z" />
<glyph unicode="&#x6af;" horiz-adv-x="1380" arabic-form="initial" d="M-180 1278l82 158q55 104 116.5 189.5t69.5 95.5l219 -123q-43 -49 -101.5 -130t-109.5 -175l-112 -232zM0 0v322h905v223q0 70 -25.5 115t-61.5 65t-62 18h-545l-166 224l133 260q43 88 109.5 174t118.5 135l264 -150q-16 -18 -75.5 -113t-109.5 -190l-10 -18h346 q193 0 289 -106.5t121.5 -221t25.5 -194.5v-543h-1257zM0 0zM670 1386z" />
<glyph unicode="&#x6af;" horiz-adv-x="1517" arabic-form="medial" d="M-180 1278l82 158q55 104 116.5 189.5t69.5 95.5l219 -123q-43 -49 -101.5 -130t-109.5 -175l-112 -232zM0 0v322h905v223q0 70 -25.5 115t-61.5 65t-62 18h-545l-166 224l133 260q43 88 109.5 174t118.5 135l264 -150q-16 -18 -75.5 -113t-109.5 -190l-10 -18h346 q193 0 289 -106.5t121.5 -221t25.5 -194.5v-221h261v-322h-1518zM0 0zM670 1386z" />
<glyph unicode="&#x6ba;" horiz-adv-x="1529" arabic-form="final" d="M82 8q0 115 68 557l329 -18q-18 -125 -38.5 -287t-20.5 -211q0 -59 36 -113.5t102.5 -88t150.5 -33.5q90 0 152.5 35.5t92 89t29.5 104.5v981h352v-702h195v-322h-195q-2 -127 -72.5 -243.5t-209 -190.5t-330.5 -74q-188 0 -334.5 70.5t-226.5 189.5t-80 256z" />
<glyph unicode="&#x6c1;" horiz-adv-x="1406" arabic-form="final" d="M82 0v438q0 266 66.5 391t234.5 167t522 42q104 0 178 -10l140 -16v-690h184v-322h-537v723q-33 0 -69 4l-78 2q-131 0 -190.5 -20.5t-81 -79t-21.5 -189.5v-440h-348z" />
<glyph unicode="&#x6c1;" horiz-adv-x="786" arabic-form="initial" d="M0 0v322h305v702h352v-1024h-657zM0 0zM72 -701l215 574h284l-108 -574h-391z" />
<glyph unicode="&#x6c1;" horiz-adv-x="1224" arabic-form="medial" d="M0 0v322h537v-175l-2 -122q0 -147 30.5 -245.5t120.5 -105.5v648h539v-322h-187v-625l-151 -16q-12 0 -54 -4t-96 -2q-207 0 -319.5 80t-156.5 217t-56 350h-205z" />
<glyph unicode="&#x6be;" horiz-adv-x="1728" arabic-form="final" d="M82 0v322h88v32q-2 113 56.5 220.5t164 175t242.5 67.5t240.5 -68.5t160 -174t56.5 -216.5v-36h118v235q0 184 -77.5 284.5t-181 135.5t-199.5 35q-74 0 -173.5 -13.5t-285.5 -44.5q-16 -4 -45 -8l-31 289q195 47 344.5 72.5t271.5 25.5q262 0 425 -111.5t234 -286.5 t71 -378v-235h168v-322h-1647zM524 322h213v32q0 59 -31.5 101.5t-76.5 42.5t-75 -42t-30 -104v-30z" />
<glyph unicode="&#x6be;" horiz-adv-x="1683" arabic-form="initial" d="M0 0v322h203v32q-2 113 56 220.5t163.5 175t243.5 67.5q137 0 240.5 -68.5t159.5 -174t56 -216.5v-36h119v235q0 184 -78 284.5t-181 135.5t-200 35q-74 0 -173 -13.5t-285 -44.5q-16 -4 -45 -8l-31 289q195 47 344 72.5t272 25.5q262 0 425 -111.5t233.5 -286.5 t70.5 -378v-557h-1593zM557 322h213v32q0 59 -31.5 101.5t-76.5 42.5q-46 0 -75.5 -42t-29.5 -104v-30z" />
<glyph unicode="&#x6be;" horiz-adv-x="1763" arabic-form="medial" d="M0 0v322h203v32q-2 113 56 220.5t163.5 175t243.5 67.5q137 0 240.5 -68.5t159.5 -174t56 -216.5v-36h119v235q0 184 -78 284.5t-181 135.5t-200 35q-74 0 -173 -13.5t-285 -44.5q-16 -4 -45 -8l-31 289q195 47 344 72.5t272 25.5q262 0 425 -111.5t233.5 -286.5 t70.5 -378v-235h170v-322h-1763zM557 322h213v32q0 59 -31.5 101.5t-76.5 42.5q-46 0 -75.5 -42t-29.5 -104v-30z" />
<glyph unicode="&#x6d2;" horiz-adv-x="1454" arabic-form="final" d="M76 -53q0 109 20.5 212t46.5 163h1311v-322h-1034v-16q0 -100 38 -133t99 -33l57 2h660v-322h-572h-118q-160 0 -265.5 28t-174 125t-68.5 296z" />
<glyph unicode="&#x6d3;" horiz-adv-x="1454" arabic-form="final" d="M76 0zM76 -53q0 109 20.5 212t46.5 163h1311v-322h-1034v-16q0 -100 38 -133t99 -33l57 2h660v-322h-572h-118q-160 0 -265.5 28t-174 125t-68.5 296zM204 657l91 23q-86 74 -87 180q0 90 65 155.5t167 65.5q78 0 166 -49l-31 -154q-35 29 -80 29q-43 0 -69.5 -28.5 t-26.5 -67.5q0 -61 51 -90l215 57l33 -146l-469 -92z" />
<glyph unicode="&#x649;" horiz-adv-x="786" arabic-form="initial" d="M0 0v322h305v702h352v-1024h-657zM0 0z" />
<glyph unicode="&#x649;" horiz-adv-x="966" arabic-form="medial" d="M0 0v322h305v702h352v-702h310v-322h-967zM0 0z" />
<glyph unicode="&#x6cc;" horiz-adv-x="2035" arabic-form="final" d="M82 0zM82 14q0 80 19.5 197t37.5 184l326 -53q-8 -59 -19.5 -152.5t-11.5 -130.5q0 -100 75 -172.5t208 -72.5l581 2q59 0 90 9t49.5 49t20.5 126q-100 2 -176 26.5t-166 90.5l156 278q45 -37 79.5 -53t62.5 -18t91 -2h531v-322h-217q-12 -279 -145.5 -393.5 t-354.5 -114.5h-592q-137 0 -286.5 52.5t-254 169t-104.5 300.5z" />
<glyph unicode="&#x6cc;" horiz-adv-x="786" arabic-form="initial" d="M0 0v322h305v702h352v-1024h-657zM0 0zM191 -164h248v-311h-248v311zM539 -164h248v-311h-248v311z" />
<glyph unicode="&#x6cc;" horiz-adv-x="966" arabic-form="medial" d="M0 0v322h305v702h352v-702h310v-322h-967zM0 0zM180 -164h248v-311h-248v311zM528 -164h248v-311h-248v311z" />
<glyph unicode="&#xfc64;" horiz-adv-x="1601" arabic-form="final" d="M82 0zM82 -182l31 -2q111 0 110 168v929q154 39 436.5 75t714.5 36v-702h228v-322h-580v686q-244 -10 -447 -35v-616q0 -250 -86 -395.5t-260 -145.5q-45 0 -147 6v318zM974 1401l91 23q-86 74 -87 180q0 90 65 155.5t167 65.5q78 0 166 -49l-31 -154q-35 29 -80 29 q-43 0 -69.5 -28.5t-26.5 -67.5q0 -61 51 -90l215 57l33 -146l-469 -92z" />
<glyph unicode="&#xfc65;" horiz-adv-x="1601" arabic-form="final" d="M82 0zM82 -182l31 -2q111 0 110 168v929q154 39 436.5 75t714.5 36v-702h228v-322h-580v686q-244 -10 -447 -35v-616q0 -250 -86 -395.5t-260 -145.5q-45 0 -147 6v318zM242 1214v330h317v-330h-317zM974 1401l91 23q-86 74 -87 180q0 90 65 155.5t167 65.5q78 0 166 -49 l-31 -154q-35 29 -80 29q-43 0 -69.5 -28.5t-26.5 -67.5q0 -61 51 -90l215 57l33 -146l-469 -92z" />
<glyph unicode="&#xfc67;" horiz-adv-x="2320" arabic-form="final" d="M82 0zM82 8q0 115 68 557l329 -18q-18 -125 -38.5 -287t-20.5 -211q0 -59 36 -113.5t102.5 -88t150.5 -33.5q90 0 152.5 35.5t92 89t29.5 104.5v862q381 119 1110 119v-702h227v-322h-579v692q-154 -6 -243 -19.5t-101 -15.5q-41 -8 -62 -10v-641q0 -129 -69.5 -246.5 t-208.5 -192.5t-334 -75q-188 0 -334.5 70.5t-226.5 189.5t-80 256zM563 1024v330h318v-330h-318zM1691 1401l91 23q-86 74 -87 180q0 90 65 155.5t167 65.5q78 0 166 -49l-31 -154q-35 29 -80 29q-43 0 -69.5 -28.5t-26.5 -67.5q0 -61 51 -90l215 57l33 -146l-469 -92z" />
<glyph unicode="&#xfc68;" horiz-adv-x="2635" arabic-form="final" d="M82 0zM82 14q0 80 19.5 197t37.5 184l326 -53q-8 -59 -19.5 -152.5t-11.5 -130.5q0 -100 75 -172.5t208 -72.5l581 2q63 0 94 11t48.5 58t17.5 154q0 37 -31.5 55.5t-99.5 38.5q-41 10 -76 25q-231 78 -328.5 178t-97.5 252q0 215 131 325.5t357 110.5h1095v-702h228 v-322h-580v707h-702q-168 0 -168 -91q0 -31 41 -53t131 -55q78 -29 115 -45q139 -55 210.5 -103.5t104.5 -117t33 -181.5q0 -313 -134.5 -441t-367.5 -128h-592q-137 0 -286.5 52.5t-254 169t-104.5 300.5zM2009 1401l91 23q-86 74 -87 180q0 90 65 155.5t167 65.5 q78 0 166 -49l-31 -154q-35 29 -80 29q-43 0 -69.5 -28.5t-26.5 -67.5q0 -61 51 -90l215 57l33 -146l-469 -92z" />
<glyph unicode="&#xfc69;" horiz-adv-x="2635" arabic-form="final" d="M82 0zM82 14q0 80 19.5 197t37.5 184l326 -53q-8 -59 -19.5 -152.5t-11.5 -130.5q0 -100 75 -172.5t208 -72.5l581 2q63 0 94 11t48.5 58t17.5 154q0 37 -31.5 55.5t-99.5 38.5q-41 10 -76 25q-231 78 -328.5 178t-97.5 252q0 215 131 325.5t357 110.5h1095v-702h228 v-322h-580v707h-702q-168 0 -168 -91q0 -31 41 -53t131 -55q78 -29 115 -45q139 -55 210.5 -103.5t104.5 -117t33 -181.5q0 -313 -134.5 -441t-367.5 -128h-592q-137 0 -286.5 52.5t-254 169t-104.5 300.5zM686 -656h248v-311h-248v311zM1034 -656h248v-311h-248v311z M2009 1401l91 23q-86 74 -87 180q0 90 65 155.5t167 65.5q78 0 166 -49l-31 -154q-35 29 -80 29q-43 0 -69.5 -28.5t-26.5 -67.5q0 -61 51 -90l215 57l33 -146l-469 -92z" />
<glyph unicode="&#xfc6a;" horiz-adv-x="1601" arabic-form="final" d="M82 0zM82 -182l31 -2q111 0 110 168v929q154 39 436.5 75t714.5 36v-702h228v-322h-580v686q-244 -10 -447 -35v-616q0 -250 -86 -395.5t-260 -145.5q-45 0 -147 6v318zM1073 -164h317v-329h-317v329z" />
<glyph unicode="&#xfc6b;" horiz-adv-x="1601" arabic-form="final" d="M82 0zM82 -182l31 -2q111 0 110 168v929q154 39 436.5 75t714.5 36v-702h228v-322h-580v686q-244 -10 -447 -35v-616q0 -250 -86 -395.5t-260 -145.5q-45 0 -147 6v318zM242 1214v330h317v-330h-317zM1073 -164h317v-329h-317v329z" />
<glyph unicode="&#xfc6d;" horiz-adv-x="2320" arabic-form="final" d="M82 0zM82 8q0 115 68 557l329 -18q-18 -125 -38.5 -287t-20.5 -211q0 -59 36 -113.5t102.5 -88t150.5 -33.5q90 0 152.5 35.5t92 89t29.5 104.5v862q381 119 1110 119v-702h227v-322h-579v692q-154 -6 -243 -19.5t-101 -15.5q-41 -8 -62 -10v-641q0 -129 -69.5 -246.5 t-208.5 -192.5t-334 -75q-188 0 -334.5 70.5t-226.5 189.5t-80 256zM563 1024v330h318v-330h-318zM1790 -164h317v-329h-317v329z" />
<glyph unicode="&#xfc6e;" horiz-adv-x="2635" arabic-form="final" d="M82 0zM82 14q0 80 19.5 197t37.5 184l326 -53q-8 -59 -19.5 -152.5t-11.5 -130.5q0 -100 75 -172.5t208 -72.5l581 2q63 0 94 11t48.5 58t17.5 154q0 37 -31.5 55.5t-99.5 38.5q-41 10 -76 25q-231 78 -328.5 178t-97.5 252q0 215 131 325.5t357 110.5h1095v-702h228 v-322h-580v707h-702q-168 0 -168 -91q0 -31 41 -53t131 -55q78 -29 115 -45q139 -55 210.5 -103.5t104.5 -117t33 -181.5q0 -313 -134.5 -441t-367.5 -128h-592q-137 0 -286.5 52.5t-254 169t-104.5 300.5zM2107 -164h317v-329h-317v329z" />
<glyph unicode="&#xfc6f;" horiz-adv-x="2635" arabic-form="final" d="M82 0zM82 14q0 80 19.5 197t37.5 184l326 -53q-8 -59 -19.5 -152.5t-11.5 -130.5q0 -100 75 -172.5t208 -72.5l581 2q63 0 94 11t48.5 58t17.5 154q0 37 -31.5 55.5t-99.5 38.5q-41 10 -76 25q-231 78 -328.5 178t-97.5 252q0 215 131 325.5t357 110.5h1095v-702h228 v-322h-580v707h-702q-168 0 -168 -91q0 -31 41 -53t131 -55q78 -29 115 -45q139 -55 210.5 -103.5t104.5 -117t33 -181.5q0 -313 -134.5 -441t-367.5 -128h-592q-137 0 -286.5 52.5t-254 169t-104.5 300.5zM686 -656h248v-311h-248v311zM1034 -656h248v-311h-248v311z M2107 -164h317v-329h-317v329z" />
<glyph unicode="&#xfc70;" horiz-adv-x="1601" arabic-form="final" d="M82 0zM82 -182l31 -2q111 0 110 168v929q154 39 436.5 75t714.5 36v-702h228v-322h-580v686q-244 -10 -447 -35v-616q0 -250 -86 -395.5t-260 -145.5q-45 0 -147 6v318zM932 1215v311h248v-311h-248zM1280 1215v311h248v-311h-248z" />
<glyph unicode="&#xfc71;" horiz-adv-x="1601" arabic-form="final" d="M82 0zM82 -182l31 -2q111 0 110 168v929q154 39 436.5 75t714.5 36v-702h228v-322h-580v686q-244 -10 -447 -35v-616q0 -250 -86 -395.5t-260 -145.5q-45 0 -147 6v318zM242 1214v330h317v-330h-317zM932 1215v311h248v-311h-248zM1280 1215v311h248v-311h-248z" />
<glyph unicode="&#xfc73;" horiz-adv-x="2320" arabic-form="final" d="M82 0zM82 8q0 115 68 557l329 -18q-18 -125 -38.5 -287t-20.5 -211q0 -59 36 -113.5t102.5 -88t150.5 -33.5q90 0 152.5 35.5t92 89t29.5 104.5v862q381 119 1110 119v-702h227v-322h-579v692q-154 -6 -243 -19.5t-101 -15.5q-41 -8 -62 -10v-641q0 -129 -69.5 -246.5 t-208.5 -192.5t-334 -75q-188 0 -334.5 70.5t-226.5 189.5t-80 256zM563 1024v330h318v-330h-318zM1649 1215v311h248v-311h-248zM1997 1215v311h248v-311h-248z" />
<glyph unicode="&#xfc74;" horiz-adv-x="2635" arabic-form="final" d="M82 0zM82 14q0 80 19.5 197t37.5 184l326 -53q-8 -59 -19.5 -152.5t-11.5 -130.5q0 -100 75 -172.5t208 -72.5l581 2q63 0 94 11t48.5 58t17.5 154q0 37 -31.5 55.5t-99.5 38.5q-41 10 -76 25q-231 78 -328.5 178t-97.5 252q0 215 131 325.5t357 110.5h1095v-702h228 v-322h-580v707h-702q-168 0 -168 -91q0 -31 41 -53t131 -55q78 -29 115 -45q139 -55 210.5 -103.5t104.5 -117t33 -181.5q0 -313 -134.5 -441t-367.5 -128h-592q-137 0 -286.5 52.5t-254 169t-104.5 300.5zM1966 1215v311h248v-311h-248zM2314 1215v311h248v-311h-248z" />
<glyph unicode="&#xfc75;" horiz-adv-x="2635" arabic-form="final" d="M82 0zM82 14q0 80 19.5 197t37.5 184l326 -53q-8 -59 -19.5 -152.5t-11.5 -130.5q0 -100 75 -172.5t208 -72.5l581 2q63 0 94 11t48.5 58t17.5 154q0 37 -31.5 55.5t-99.5 38.5q-41 10 -76 25q-231 78 -328.5 178t-97.5 252q0 215 131 325.5t357 110.5h1095v-702h228 v-322h-580v707h-702q-168 0 -168 -91q0 -31 41 -53t131 -55q78 -29 115 -45q139 -55 210.5 -103.5t104.5 -117t33 -181.5q0 -313 -134.5 -441t-367.5 -128h-592q-137 0 -286.5 52.5t-254 169t-104.5 300.5zM686 -656h248v-311h-248v311zM1034 -656h248v-311h-248v311z M1966 1215v311h248v-311h-248zM2314 1215v311h248v-311h-248z" />
<glyph unicode="&#xfc76;" horiz-adv-x="1601" arabic-form="final" d="M82 0zM82 -182l31 -2q111 0 110 168v929q154 39 436.5 75t714.5 36v-702h228v-322h-580v686q-244 -10 -447 -35v-616q0 -250 -86 -395.5t-260 -145.5q-45 0 -147 6v318zM934 1214v295h248v-295h-248zM1120 1542v270h225v-270h-225zM1282 1214v295h248v-295h-248z" />
<glyph unicode="&#xfc77;" horiz-adv-x="1601" arabic-form="final" d="M82 0zM82 -182l31 -2q111 0 110 168v929q154 39 436.5 75t714.5 36v-702h228v-322h-580v686q-244 -10 -447 -35v-616q0 -250 -86 -395.5t-260 -145.5q-45 0 -147 6v318zM242 1214v330h317v-330h-317zM934 1214v295h248v-295h-248zM1120 1542v270h225v-270h-225z M1282 1214v295h248v-295h-248z" />
<glyph unicode="&#xfc79;" horiz-adv-x="2320" arabic-form="final" d="M82 0zM82 8q0 115 68 557l329 -18q-18 -125 -38.5 -287t-20.5 -211q0 -59 36 -113.5t102.5 -88t150.5 -33.5q90 0 152.5 35.5t92 89t29.5 104.5v862q381 119 1110 119v-702h227v-322h-579v692q-154 -6 -243 -19.5t-101 -15.5q-41 -8 -62 -10v-641q0 -129 -69.5 -246.5 t-208.5 -192.5t-334 -75q-188 0 -334.5 70.5t-226.5 189.5t-80 256zM563 1024v330h318v-330h-318zM1651 1214v295h248v-295h-248zM1837 1542v270h225v-270h-225zM1999 1214v295h248v-295h-248z" />
<glyph unicode="&#xfc7a;" horiz-adv-x="2635" arabic-form="final" d="M82 0zM82 14q0 80 19.5 197t37.5 184l326 -53q-8 -59 -19.5 -152.5t-11.5 -130.5q0 -100 75 -172.5t208 -72.5l581 2q63 0 94 11t48.5 58t17.5 154q0 37 -31.5 55.5t-99.5 38.5q-41 10 -76 25q-231 78 -328.5 178t-97.5 252q0 215 131 325.5t357 110.5h1095v-702h228 v-322h-580v707h-702q-168 0 -168 -91q0 -31 41 -53t131 -55q78 -29 115 -45q139 -55 210.5 -103.5t104.5 -117t33 -181.5q0 -313 -134.5 -441t-367.5 -128h-592q-137 0 -286.5 52.5t-254 169t-104.5 300.5zM1968 1214v295h248v-295h-248zM2154 1542v270h225v-270h-225z M2316 1214v295h248v-295h-248z" />
<glyph unicode="&#xfc7b;" horiz-adv-x="2635" arabic-form="final" d="M82 0zM82 14q0 80 19.5 197t37.5 184l326 -53q-8 -59 -19.5 -152.5t-11.5 -130.5q0 -100 75 -172.5t208 -72.5l581 2q63 0 94 11t48.5 58t17.5 154q0 37 -31.5 55.5t-99.5 38.5q-41 10 -76 25q-231 78 -328.5 178t-97.5 252q0 215 131 325.5t357 110.5h1095v-702h228 v-322h-580v707h-702q-168 0 -168 -91q0 -31 41 -53t131 -55q78 -29 115 -45q139 -55 210.5 -103.5t104.5 -117t33 -181.5q0 -313 -134.5 -441t-367.5 -128h-592q-137 0 -286.5 52.5t-254 169t-104.5 300.5zM686 -656h248v-311h-248v311zM1034 -656h248v-311h-248v311z M1968 1214v295h248v-295h-248zM2154 1542v270h225v-270h-225zM2316 1214v295h248v-295h-248z" />
<glyph unicode="&#xfc8a;" horiz-adv-x="1601" arabic-form="final" d="M82 0zM82 -182l31 -2q111 0 110 168v929q154 39 436.5 75t714.5 36v-702h228v-322h-580v686q-244 -10 -447 -35v-616q0 -250 -86 -395.5t-260 -145.5q-45 0 -147 6v318zM1073 1214v330h317v-330h-317z" />
<glyph unicode="&#xfc8b;" horiz-adv-x="1601" arabic-form="final" d="M82 0zM82 -182l31 -2q111 0 110 168v929q154 39 436.5 75t714.5 36v-702h228v-322h-580v686q-244 -10 -447 -35v-616q0 -250 -86 -395.5t-260 -145.5q-45 0 -147 6v318zM242 1214v330h317v-330h-317zM1073 1214v330h317v-330h-317z" />
<glyph unicode="&#xfc8d;" horiz-adv-x="2320" arabic-form="final" d="M82 0zM82 8q0 115 68 557l329 -18q-18 -125 -38.5 -287t-20.5 -211q0 -59 36 -113.5t102.5 -88t150.5 -33.5q90 0 152.5 35.5t92 89t29.5 104.5v862q381 119 1110 119v-702h227v-322h-579v692q-154 -6 -243 -19.5t-101 -15.5q-41 -8 -62 -10v-641q0 -129 -69.5 -246.5 t-208.5 -192.5t-334 -75q-188 0 -334.5 70.5t-226.5 189.5t-80 256zM563 1024v330h318v-330h-318zM1790 1214v330h317v-330h-317z" />
<glyph unicode="&#xfc8e;" horiz-adv-x="2635" arabic-form="final" d="M82 0zM82 14q0 80 19.5 197t37.5 184l326 -53q-8 -59 -19.5 -152.5t-11.5 -130.5q0 -100 75 -172.5t208 -72.5l581 2q63 0 94 11t48.5 58t17.5 154q0 37 -31.5 55.5t-99.5 38.5q-41 10 -76 25q-231 78 -328.5 178t-97.5 252q0 215 131 325.5t357 110.5h1095v-702h228 v-322h-580v707h-702q-168 0 -168 -91q0 -31 41 -53t131 -55q78 -29 115 -45q139 -55 210.5 -103.5t104.5 -117t33 -181.5q0 -313 -134.5 -441t-367.5 -128h-592q-137 0 -286.5 52.5t-254 169t-104.5 300.5zM2107 1214v330h317v-330h-317z" />
<glyph unicode="&#xfc8f;" horiz-adv-x="2635" arabic-form="final" d="M82 0zM82 14q0 80 19.5 197t37.5 184l326 -53q-8 -59 -19.5 -152.5t-11.5 -130.5q0 -100 75 -172.5t208 -72.5l581 2q63 0 94 11t48.5 58t17.5 154q0 37 -31.5 55.5t-99.5 38.5q-41 10 -76 25q-231 78 -328.5 178t-97.5 252q0 215 131 325.5t357 110.5h1095v-702h228 v-322h-580v707h-702q-168 0 -168 -91q0 -31 41 -53t131 -55q78 -29 115 -45q139 -55 210.5 -103.5t104.5 -117t33 -181.5q0 -313 -134.5 -441t-367.5 -128h-592q-137 0 -286.5 52.5t-254 169t-104.5 300.5zM686 -656h248v-311h-248v311zM1034 -656h248v-311h-248v311z M2107 1214v330h317v-330h-317z" />
<glyph unicode="&#xfc91;" horiz-adv-x="1601" arabic-form="final" d="M82 0zM82 -182l31 -2q111 0 110 168v929q154 39 436.5 75t714.5 36v-702h228v-322h-580v686q-244 -10 -447 -35v-616q0 -250 -86 -395.5t-260 -145.5q-45 0 -147 6v318zM934 -164h248v-311h-248v311zM1282 -164h248v-311h-248v311z" />
<glyph unicode="&#xfc92;" horiz-adv-x="1601" arabic-form="final" d="M82 0zM82 -182l31 -2q111 0 110 168v929q154 39 436.5 75t714.5 36v-702h228v-322h-580v686q-244 -10 -447 -35v-616q0 -250 -86 -395.5t-260 -145.5q-45 0 -147 6v318zM242 1214v330h317v-330h-317zM934 -164h248v-311h-248v311zM1282 -164h248v-311h-248v311z" />
<glyph unicode="&#xfc94;" horiz-adv-x="2320" arabic-form="final" d="M82 0zM82 8q0 115 68 557l329 -18q-18 -125 -38.5 -287t-20.5 -211q0 -59 36 -113.5t102.5 -88t150.5 -33.5q90 0 152.5 35.5t92 89t29.5 104.5v862q381 119 1110 119v-702h227v-322h-579v692q-154 -6 -243 -19.5t-101 -15.5q-41 -8 -62 -10v-641q0 -129 -69.5 -246.5 t-208.5 -192.5t-334 -75q-188 0 -334.5 70.5t-226.5 189.5t-80 256zM563 1024v330h318v-330h-318zM1651 -164h248v-311h-248v311zM1999 -164h248v-311h-248v311z" />
<glyph unicode="&#xfcfb;" horiz-adv-x="3557" arabic-form="isolated" d="M82 14q0 80 19.5 197t37.5 184l326 -53q-8 -59 -19.5 -152.5t-11.5 -130.5q0 -100 75 -172.5t208 -72.5l581 2q63 0 94 11t48.5 58t17.5 154q0 37 -31.5 55.5t-99.5 38.5q-41 10 -76 25q-231 78 -328.5 178t-97.5 252q0 215 131 325.5t357 110.5h1095v-702h21 q68 0 109.5 49t41.5 133v418h353v-418q0 -82 -17 -164q29 -18 68 -18h113v172l2 110q2 31 2 94q0 109 -17 316l314 14q51 -383 51 -459v-569h-449q-74 0 -142.5 24.5t-94.5 43.5q-90 -68 -209 -68h-498v707h-702q-168 0 -168 -91q0 -31 41 -53t131 -55q78 -29 115 -45 q139 -55 210.5 -103.5t104.5 -117t33 -181.5q0 -313 -134.5 -441t-367.5 -128h-592q-137 0 -286.5 52.5t-254 169t-104.5 300.5z" />
<glyph unicode="&#xfcfc;" horiz-adv-x="3557" arabic-form="isolated" d="M82 0zM82 14q0 80 19.5 197t37.5 184l326 -53q-8 -59 -19.5 -152.5t-11.5 -130.5q0 -100 75 -172.5t208 -72.5l581 2q63 0 94 11t48.5 58t17.5 154q0 37 -31.5 55.5t-99.5 38.5q-41 10 -76 25q-231 78 -328.5 178t-97.5 252q0 215 131 325.5t357 110.5h1095v-702h21 q68 0 109.5 49t41.5 133v418h353v-418q0 -82 -17 -164q29 -18 68 -18h113v172l2 110q2 31 2 94q0 109 -17 316l314 14q51 -383 51 -459v-569h-449q-74 0 -142.5 24.5t-94.5 43.5q-90 -68 -209 -68h-498v707h-702q-168 0 -168 -91q0 -31 41 -53t131 -55q78 -29 115 -45 q139 -55 210.5 -103.5t104.5 -117t33 -181.5q0 -313 -134.5 -441t-367.5 -128h-592q-137 0 -286.5 52.5t-254 169t-104.5 300.5zM686 -656h248v-311h-248v311zM1034 -656h248v-311h-248v311z" />
<glyph unicode="&#xfcfd;" horiz-adv-x="3557" arabic-form="isolated" d="M82 0zM82 14q0 80 19.5 197t37.5 184l326 -53q-8 -59 -19.5 -152.5t-11.5 -130.5q0 -100 75 -172.5t208 -72.5l581 2q63 0 94 11t48.5 58t17.5 154q0 37 -31.5 55.5t-99.5 38.5q-41 10 -76 25q-231 78 -328.5 178t-97.5 252q0 215 131 325.5t357 110.5h1095v-702h21 q68 0 109.5 49t41.5 133v418h353v-418q0 -82 -17 -164q29 -18 68 -18h113v172l2 110q2 31 2 94q0 109 -17 316l314 14q51 -383 51 -459v-569h-449q-74 0 -142.5 24.5t-94.5 43.5q-90 -68 -209 -68h-498v707h-702q-168 0 -168 -91q0 -31 41 -53t131 -55q78 -29 115 -45 q139 -55 210.5 -103.5t104.5 -117t33 -181.5q0 -313 -134.5 -441t-367.5 -128h-592q-137 0 -286.5 52.5t-254 169t-104.5 300.5zM2466 1214v295h248v-295h-248zM2652 1542v270h225v-270h-225zM2814 1214v295h248v-295h-248z" />
<glyph unicode="&#xfcfe;" horiz-adv-x="3557" arabic-form="isolated" d="M82 0zM82 14q0 80 19.5 197t37.5 184l326 -53q-8 -59 -19.5 -152.5t-11.5 -130.5q0 -100 75 -172.5t208 -72.5l581 2q63 0 94 11t48.5 58t17.5 154q0 37 -31.5 55.5t-99.5 38.5q-41 10 -76 25q-231 78 -328.5 178t-97.5 252q0 215 131 325.5t357 110.5h1095v-702h21 q68 0 109.5 49t41.5 133v418h353v-418q0 -82 -17 -164q29 -18 68 -18h113v172l2 110q2 31 2 94q0 109 -17 316l314 14q51 -383 51 -459v-569h-449q-74 0 -142.5 24.5t-94.5 43.5q-90 -68 -209 -68h-498v707h-702q-168 0 -168 -91q0 -31 41 -53t131 -55q78 -29 115 -45 q139 -55 210.5 -103.5t104.5 -117t33 -181.5q0 -313 -134.5 -441t-367.5 -128h-592q-137 0 -286.5 52.5t-254 169t-104.5 300.5zM686 -656h248v-311h-248v311zM1034 -656h248v-311h-248v311zM2466 1214v295h248v-295h-248zM2652 1542v270h225v-270h-225zM2814 1214v295h248 v-295h-248z" />
<glyph unicode="&#xfd05;" horiz-adv-x="3557" arabic-form="isolated" d="M82 14q0 80 19.5 197t37.5 184l326 -53q-8 -59 -19.5 -152.5t-11.5 -130.5q0 -100 75 -172.5t208 -72.5l581 2q63 0 94 11t48.5 58t17.5 154q0 37 -31.5 55.5t-99.5 38.5q-41 10 -76 25q-231 78 -328.5 178t-97.5 252q0 215 131 325.5t357 110.5h1095v-328 q92 115 167 186.5t175.5 116.5t231.5 45q258 0 365.5 -158.5t107.5 -371.5v-514h-1399v707h-702q-168 0 -168 -91q0 -31 41 -53t131 -55q78 -29 115 -45q139 -55 210.5 -103.5t104.5 -117t33 -181.5q0 -313 -134.5 -441t-367.5 -128h-592q-137 0 -286.5 52.5t-254 169 t-104.5 300.5zM2449 322h654v118q0 117 -58.5 200t-158.5 83q-107 0 -226.5 -112.5t-210.5 -288.5z" />
<glyph unicode="&#xfd06;" horiz-adv-x="3557" arabic-form="isolated" d="M82 0zM82 14q0 80 19.5 197t37.5 184l326 -53q-8 -59 -19.5 -152.5t-11.5 -130.5q0 -100 75 -172.5t208 -72.5l581 2q63 0 94 11t48.5 58t17.5 154q0 37 -31.5 55.5t-99.5 38.5q-41 10 -76 25q-231 78 -328.5 178t-97.5 252q0 215 131 325.5t357 110.5h1095v-328 q92 115 167 186.5t175.5 116.5t231.5 45q258 0 365.5 -158.5t107.5 -371.5v-514h-1399v707h-702q-168 0 -168 -91q0 -31 41 -53t131 -55q78 -29 115 -45q139 -55 210.5 -103.5t104.5 -117t33 -181.5q0 -313 -134.5 -441t-367.5 -128h-592q-137 0 -286.5 52.5t-254 169 t-104.5 300.5zM686 -656h248v-311h-248v311zM1034 -656h248v-311h-248v311zM2449 322h654v118q0 117 -58.5 200t-158.5 83q-107 0 -226.5 -112.5t-210.5 -288.5z" />
<glyph unicode="&#xfd07;" horiz-adv-x="3557" arabic-form="isolated" d="M82 0zM82 14q0 80 19.5 197t37.5 184l326 -53q-8 -59 -19.5 -152.5t-11.5 -130.5q0 -100 75 -172.5t208 -72.5l581 2q63 0 94 11t48.5 58t17.5 154q0 37 -31.5 55.5t-99.5 38.5q-41 10 -76 25q-231 78 -328.5 178t-97.5 252q0 215 131 325.5t357 110.5h1095v-328 q92 115 167 186.5t175.5 116.5t231.5 45q258 0 365.5 -158.5t107.5 -371.5v-514h-1399v707h-702q-168 0 -168 -91q0 -31 41 -53t131 -55q78 -29 115 -45q139 -55 210.5 -103.5t104.5 -117t33 -181.5q0 -313 -134.5 -441t-367.5 -128h-592q-137 0 -286.5 52.5t-254 169 t-104.5 300.5zM2449 322h654v118q0 117 -58.5 200t-158.5 83q-107 0 -226.5 -112.5t-210.5 -288.5zM2699 1214v330h317v-330h-317z" />
<glyph unicode="&#xfd08;" horiz-adv-x="3557" arabic-form="isolated" d="M82 0zM82 14q0 80 19.5 197t37.5 184l326 -53q-8 -59 -19.5 -152.5t-11.5 -130.5q0 -100 75 -172.5t208 -72.5l581 2q63 0 94 11t48.5 58t17.5 154q0 37 -31.5 55.5t-99.5 38.5q-41 10 -76 25q-231 78 -328.5 178t-97.5 252q0 215 131 325.5t357 110.5h1095v-328 q92 115 167 186.5t175.5 116.5t231.5 45q258 0 365.5 -158.5t107.5 -371.5v-514h-1399v707h-702q-168 0 -168 -91q0 -31 41 -53t131 -55q78 -29 115 -45q139 -55 210.5 -103.5t104.5 -117t33 -181.5q0 -313 -134.5 -441t-367.5 -128h-592q-137 0 -286.5 52.5t-254 169 t-104.5 300.5zM686 -656h248v-311h-248v311zM1034 -656h248v-311h-248v311zM2449 322h654v118q0 117 -58.5 200t-158.5 83q-107 0 -226.5 -112.5t-210.5 -288.5zM2699 1214v330h317v-330h-317z" />
<glyph unicode="&#xfd0d;" horiz-adv-x="2535" arabic-form="isolated" d="M82 0zM82 -182l31 -2q111 0 110 168v929q152 39 440.5 75t720.5 36v-702h23q68 0 110 49t42 133v414h352v-414q0 -84 -17 -166q33 -16 68 -16h113v167l2 197q0 139 -17 326l314 12q53 -400 53 -459v-565h-451q-72 0 -136 22.5t-101 45.5q-90 -68 -207 -68h-500v690 q-225 -10 -457 -39v-616q0 -250 -86 -395.5t-260 -145.5q-45 0 -147 6v318zM1442 1214v295h248v-295h-248zM1628 1542v270h225v-270h-225zM1790 1214v295h248v-295h-248z" />
<glyph unicode="&#xfd0e;" horiz-adv-x="2535" arabic-form="isolated" d="M82 -182l31 -2q111 0 110 168v929q152 39 440.5 75t720.5 36v-702h23q68 0 110 49t42 133v414h352v-414q0 -84 -17 -166q33 -16 68 -16h113v167l2 197q0 139 -17 326l314 12q53 -400 53 -459v-565h-451q-72 0 -136 22.5t-101 45.5q-90 -68 -207 -68h-500v690 q-225 -10 -457 -39v-616q0 -250 -86 -395.5t-260 -145.5q-45 0 -147 6v318z" />
<glyph unicode="&#xfd0f;" horiz-adv-x="2535" arabic-form="isolated" d="M82 -182l31 -2q111 0 110 168v929q152 39 440.5 75t720.5 36v-328q92 115 167 186.5t175.5 116.5t231.5 45q258 0 365.5 -158.5t107.5 -371.5v-514h-1399v690q-219 -8 -457 -39v-616q0 -250 -86 -395.5t-260 -145.5q-45 0 -147 6v318zM1425 322h654v118q0 117 -57.5 200 t-157.5 83q-107 0 -227.5 -112.5t-211.5 -288.5z" />
<glyph unicode="&#xfd10;" horiz-adv-x="2535" arabic-form="isolated" d="M82 0zM82 -182l31 -2q111 0 110 168v929q152 39 440.5 75t720.5 36v-328q92 115 167 186.5t175.5 116.5t231.5 45q258 0 365.5 -158.5t107.5 -371.5v-514h-1399v690q-219 -8 -457 -39v-616q0 -250 -86 -395.5t-260 -145.5q-45 0 -147 6v318zM1425 322h654v118 q0 117 -57.5 200t-157.5 83q-107 0 -227.5 -112.5t-211.5 -288.5zM1632 1214v330h317v-330h-317z" />
<glyph unicode="&#xfd17;" horiz-adv-x="3667" arabic-form="final" d="M82 14q0 80 19.5 197t37.5 184l326 -53q-8 -59 -19.5 -152.5t-11.5 -130.5q0 -100 75 -172.5t208 -72.5l581 2q63 0 94 11t48.5 58t17.5 154q0 37 -31.5 55.5t-99.5 38.5q-41 10 -76 25q-231 78 -328.5 178t-97.5 252q0 215 131 325.5t357 110.5h1095v-702h21 q68 0 109.5 49t41.5 133v418h353v-418q0 -82 -17 -164q29 -18 68 -18h113v172l2 110q2 31 2 94q0 109 -17 316l314 14q51 -383 51 -459v-247h219v-322h-668q-74 0 -142.5 24.5t-94.5 43.5q-90 -68 -209 -68h-498v707h-702q-168 0 -168 -91q0 -31 41 -53t131 -55 q78 -29 115 -45q139 -55 210.5 -103.5t104.5 -117t33 -181.5q0 -313 -134.5 -441t-367.5 -128h-592q-137 0 -286.5 52.5t-254 169t-104.5 300.5z" />
<glyph unicode="&#xfd18;" horiz-adv-x="3667" arabic-form="final" d="M82 0zM82 14q0 80 19.5 197t37.5 184l326 -53q-8 -59 -19.5 -152.5t-11.5 -130.5q0 -100 75 -172.5t208 -72.5l581 2q63 0 94 11t48.5 58t17.5 154q0 37 -31.5 55.5t-99.5 38.5q-41 10 -76 25q-231 78 -328.5 178t-97.5 252q0 215 131 325.5t357 110.5h1095v-702h21 q68 0 109.5 49t41.5 133v418h353v-418q0 -82 -17 -164q29 -18 68 -18h113v172l2 110q2 31 2 94q0 109 -17 316l314 14q51 -383 51 -459v-247h219v-322h-668q-74 0 -142.5 24.5t-94.5 43.5q-90 -68 -209 -68h-498v707h-702q-168 0 -168 -91q0 -31 41 -53t131 -55 q78 -29 115 -45q139 -55 210.5 -103.5t104.5 -117t33 -181.5q0 -313 -134.5 -441t-367.5 -128h-592q-137 0 -286.5 52.5t-254 169t-104.5 300.5zM686 -656h248v-311h-248v311zM1034 -656h248v-311h-248v311z" />
<glyph unicode="&#xfd19;" horiz-adv-x="3667" arabic-form="final" d="M82 0zM82 14q0 80 19.5 197t37.5 184l326 -53q-8 -59 -19.5 -152.5t-11.5 -130.5q0 -100 75 -172.5t208 -72.5l581 2q63 0 94 11t48.5 58t17.5 154q0 37 -31.5 55.5t-99.5 38.5q-41 10 -76 25q-231 78 -328.5 178t-97.5 252q0 215 131 325.5t357 110.5h1095v-702h21 q68 0 109.5 49t41.5 133v418h353v-418q0 -82 -17 -164q29 -18 68 -18h113v172l2 110q2 31 2 94q0 109 -17 316l314 14q51 -383 51 -459v-247h219v-322h-668q-74 0 -142.5 24.5t-94.5 43.5q-90 -68 -209 -68h-498v707h-702q-168 0 -168 -91q0 -31 41 -53t131 -55 q78 -29 115 -45q139 -55 210.5 -103.5t104.5 -117t33 -181.5q0 -313 -134.5 -441t-367.5 -128h-592q-137 0 -286.5 52.5t-254 169t-104.5 300.5zM2466 1188v295h248v-295h-248zM2652 1516v270h225v-270h-225zM2814 1188v295h248v-295h-248z" />
<glyph unicode="&#xfd1a;" horiz-adv-x="3667" arabic-form="final" d="M82 0zM82 14q0 80 19.5 197t37.5 184l326 -53q-8 -59 -19.5 -152.5t-11.5 -130.5q0 -100 75 -172.5t208 -72.5l581 2q63 0 94 11t48.5 58t17.5 154q0 37 -31.5 55.5t-99.5 38.5q-41 10 -76 25q-231 78 -328.5 178t-97.5 252q0 215 131 325.5t357 110.5h1095v-702h21 q68 0 109.5 49t41.5 133v418h353v-418q0 -82 -17 -164q29 -18 68 -18h113v172l2 110q2 31 2 94q0 109 -17 316l314 14q51 -383 51 -459v-247h219v-322h-668q-74 0 -142.5 24.5t-94.5 43.5q-90 -68 -209 -68h-498v707h-702q-168 0 -168 -91q0 -31 41 -53t131 -55 q78 -29 115 -45q139 -55 210.5 -103.5t104.5 -117t33 -181.5q0 -313 -134.5 -441t-367.5 -128h-592q-137 0 -286.5 52.5t-254 169t-104.5 300.5zM686 -656h248v-311h-248v311zM1034 -656h248v-311h-248v311zM2466 1188v295h248v-295h-248zM2652 1516v270h225v-270h-225z M2814 1188v295h248v-295h-248z" />
<glyph unicode="&#xfd21;" horiz-adv-x="3647" arabic-form="final" d="M82 14q0 80 19.5 197t37.5 184l326 -53q-8 -59 -19.5 -152.5t-11.5 -130.5q0 -100 75 -172.5t208 -72.5l581 2q63 0 94 11t48.5 58t17.5 154q0 37 -31.5 55.5t-99.5 38.5q-41 10 -76 25q-231 78 -328.5 178t-97.5 252q0 215 131 325.5t357 110.5h1095v-328 q92 115 167 186.5t175.5 116.5t231.5 45q258 0 365.5 -158.5t107.5 -371.5v-192h192v-322h-1591v707h-702q-168 0 -168 -91q0 -31 41 -53t131 -55q78 -29 115 -45q139 -55 210.5 -103.5t104.5 -117t33 -181.5q0 -313 -134.5 -441t-367.5 -128h-592q-137 0 -286.5 52.5 t-254 169t-104.5 300.5zM2449 322h654v118q0 117 -58.5 200t-158.5 83q-107 0 -226.5 -112.5t-210.5 -288.5z" />
<glyph unicode="&#xfd22;" horiz-adv-x="3647" arabic-form="final" d="M82 0zM82 14q0 80 19.5 197t37.5 184l326 -53q-8 -59 -19.5 -152.5t-11.5 -130.5q0 -100 75 -172.5t208 -72.5l581 2q63 0 94 11t48.5 58t17.5 154q0 37 -31.5 55.5t-99.5 38.5q-41 10 -76 25q-231 78 -328.5 178t-97.5 252q0 215 131 325.5t357 110.5h1095v-328 q92 115 167 186.5t175.5 116.5t231.5 45q258 0 365.5 -158.5t107.5 -371.5v-192h192v-322h-1591v707h-702q-168 0 -168 -91q0 -31 41 -53t131 -55q78 -29 115 -45q139 -55 210.5 -103.5t104.5 -117t33 -181.5q0 -313 -134.5 -441t-367.5 -128h-592q-137 0 -286.5 52.5 t-254 169t-104.5 300.5zM686 -656h248v-311h-248v311zM1034 -656h248v-311h-248v311zM2449 322h654v118q0 117 -58.5 200t-158.5 83q-107 0 -226.5 -112.5t-210.5 -288.5z" />
<glyph unicode="&#xfd23;" horiz-adv-x="3647" arabic-form="final" d="M82 0zM82 14q0 80 19.5 197t37.5 184l326 -53q-8 -59 -19.5 -152.5t-11.5 -130.5q0 -100 75 -172.5t208 -72.5l581 2q63 0 94 11t48.5 58t17.5 154q0 37 -31.5 55.5t-99.5 38.5q-41 10 -76 25q-231 78 -328.5 178t-97.5 252q0 215 131 325.5t357 110.5h1095v-328 q92 115 167 186.5t175.5 116.5t231.5 45q258 0 365.5 -158.5t107.5 -371.5v-192h192v-322h-1591v707h-702q-168 0 -168 -91q0 -31 41 -53t131 -55q78 -29 115 -45q139 -55 210.5 -103.5t104.5 -117t33 -181.5q0 -313 -134.5 -441t-367.5 -128h-592q-137 0 -286.5 52.5 t-254 169t-104.5 300.5zM2449 322h654v118q0 117 -58.5 200t-158.5 83q-107 0 -226.5 -112.5t-210.5 -288.5zM2699 1214v330h317v-330h-317z" />
<glyph unicode="&#xfd24;" horiz-adv-x="3647" arabic-form="final" d="M82 0zM82 14q0 80 19.5 197t37.5 184l326 -53q-8 -59 -19.5 -152.5t-11.5 -130.5q0 -100 75 -172.5t208 -72.5l581 2q63 0 94 11t48.5 58t17.5 154q0 37 -31.5 55.5t-99.5 38.5q-41 10 -76 25q-231 78 -328.5 178t-97.5 252q0 215 131 325.5t357 110.5h1095v-328 q92 115 167 186.5t175.5 116.5t231.5 45q258 0 365.5 -158.5t107.5 -371.5v-192h192v-322h-1591v707h-702q-168 0 -168 -91q0 -31 41 -53t131 -55q78 -29 115 -45q139 -55 210.5 -103.5t104.5 -117t33 -181.5q0 -313 -134.5 -441t-367.5 -128h-592q-137 0 -286.5 52.5 t-254 169t-104.5 300.5zM686 -656h248v-311h-248v311zM1034 -656h248v-311h-248v311zM2449 322h654v118q0 117 -58.5 200t-158.5 83q-107 0 -226.5 -112.5t-210.5 -288.5zM2699 1214v330h317v-330h-317z" />
<glyph unicode="&#xfd29;" horiz-adv-x="2791" arabic-form="final" d="M82 0zM82 -182l31 -2q111 0 110 168v929q152 39 440.5 75t720.5 36v-702h23q68 0 110 49t42 133v414h352v-414q0 -84 -17 -166q33 -16 68 -16h113v167l2 197q0 139 -17 326l314 12q53 -399 53 -459v-243h364v-322h-815q-72 0 -136 22.5t-101 45.5q-90 -68 -207 -68h-500 v690q-225 -10 -457 -39v-616q0 -250 -86 -395.5t-260 -145.5q-45 0 -147 6v318zM1458 1214v295h248v-295h-248zM1644 1542v270h225v-270h-225zM1806 1214v295h248v-295h-248z" />
<glyph unicode="&#xfd2a;" horiz-adv-x="2791" arabic-form="final" d="M82 -182l31 -2q111 0 110 168v929q152 39 440.5 75t720.5 36v-702h23q68 0 110 49t42 133v414h352v-414q0 -84 -17 -166q33 -16 68 -16h113v167l2 197q0 139 -17 326l314 12q53 -399 53 -459v-243h364v-322h-815q-72 0 -136 22.5t-101 45.5q-90 -68 -207 -68h-500v690 q-225 -10 -457 -39v-616q0 -250 -86 -395.5t-260 -145.5q-45 0 -147 6v318z" />
<glyph unicode="&#xfd2b;" horiz-adv-x="2578" arabic-form="final" d="M82 -182l31 -2q111 0 110 168v929q152 39 440.5 75t720.5 36v-328q92 115 167 186.5t175.5 116.5t231.5 45q258 0 365.5 -158.5t107.5 -371.5v-192h147v-322h-1546v690q-219 -8 -457 -39v-616q0 -250 -86 -395.5t-260 -145.5q-45 0 -147 6v318zM1425 322h654v118 q0 117 -57.5 200t-157.5 83q-107 0 -227.5 -112.5t-211.5 -288.5z" />
<glyph unicode="&#xfd2c;" horiz-adv-x="2578" arabic-form="final" d="M82 0zM82 -182l31 -2q111 0 110 168v929q152 39 440.5 75t720.5 36v-328q92 115 167 186.5t175.5 116.5t231.5 45q258 0 365.5 -158.5t107.5 -371.5v-192h147v-322h-1546v690q-219 -8 -457 -39v-616q0 -250 -86 -395.5t-260 -145.5q-45 0 -147 6v318zM1425 322h654v118 q0 117 -57.5 200t-157.5 83q-107 0 -227.5 -112.5t-211.5 -288.5zM1632 1214v330h317v-330h-317z" />
<glyph unicode="&#x622;" horiz-adv-x="708" arabic-form="final" d="M51 0zM51 1562q86 90 173 90q39 0 94 -21.5t63 -25.5q92 -41 99 -41q12 0 65 45l35 35l63 -200q-86 -86 -166 -86q-32 0 -87.5 21.5t-67.5 25.5q-14 8 -54 24.5t-51 16.5q-12 0 -40.5 -24t-28.5 -21l-35 -37zM150 0v1233h352v-911h207v-322h-559z" />
<glyph unicode="&#x623;" horiz-adv-x="708" arabic-form="final" d="M71 1485l91 23q-86 74 -87 180q0 90 65 155.5t167 65.5q78 0 166 -49l-31 -154q-35 29 -80 29q-43 0 -69.5 -28.5t-26.5 -67.5q0 -61 51 -90l215 57l33 -146l-469 -92zM72 0zM150 0v1233h352v-911h207v-322h-559z" />
<glyph unicode="&#x624;" horiz-adv-x="1417" arabic-form="final" d="M82 0zM82 494q0 248 66.5 372.5t170 162.5t252.5 38q143 0 286.5 -18.5t246.5 -40.5v-686h313v-322h-321q-27 -211 -131.5 -359.5t-339.5 -148.5q-133 0 -389 45v320q281 -43 354 -43q90 0 120.5 43t28.5 143h-196q-197 0 -298.5 76t-132 181t-30.5 237zM393 1401l91 23 q-86 74 -87 180q0 90 65 155.5t167 65.5q78 0 166 -49l-31 -154q-35 29 -80 29q-43 0 -69.5 -28.5t-26.5 -67.5q0 -61 51 -90l215 57l33 -146l-469 -92zM434 516q0 -96 40 -145t155 -49h123v419q-66 4 -121 4q-53 0 -94 -12t-72 -62t-31 -155z" />
<glyph unicode="&#x625;" horiz-adv-x="708" arabic-form="final" d="M28 -541l90 25q-43 35 -64.5 82t-21.5 96q0 90 64.5 155.5t167.5 65.5q84 0 168 -49l-31 -151q-12 8 -33.5 17t-48.5 9q-43 0 -69.5 -28.5t-26.5 -67.5q0 -27 13.5 -50.5t39.5 -37.5l213 55l33 -145l-469 -92zM29 0zM150 0v1409h352v-1087h207v-322h-559z" />
<glyph unicode="&#x626;" horiz-adv-x="2035" arabic-form="final" d="M82 0zM82 14q0 80 19.5 197t37.5 184l326 -53q-8 -59 -19.5 -152.5t-11.5 -130.5q0 -100 75 -172.5t208 -72.5l581 2q59 0 90 9t49.5 49t20.5 126q-100 2 -176 26.5t-166 90.5l156 278q45 -37 79.5 -53t62.5 -18t91 -2h531v-322h-217q-12 -279 -145.5 -393.5 t-354.5 -114.5h-592q-137 0 -286.5 52.5t-254 169t-104.5 300.5zM122 721l91 23q-86 74 -87 180q0 90 65 155.5t167 65.5q78 0 166 -49l-31 -154q-35 29 -80 29q-43 0 -69.5 -28.5t-26.5 -67.5q0 -61 51 -90l215 57l33 -146l-469 -92z" />
<glyph unicode="&#x626;" horiz-adv-x="786" arabic-form="initial" d="M0 0v322h305v702h352v-1024h-657zM0 0zM231 1401l91 23q-86 74 -87 180q0 90 65 155.5t167 65.5q78 0 166 -49l-31 -154q-35 29 -80 29q-43 0 -69.5 -28.5t-26.5 -67.5q0 -61 51 -90l215 57l33 -146l-469 -92z" />
<glyph unicode="&#x626;" horiz-adv-x="966" arabic-form="medial" d="M0 0v322h305v702h352v-702h310v-322h-967zM0 0zM221 1401l91 23q-86 74 -87 180q0 90 65 155.5t167 65.5q78 0 166 -49l-31 -154q-35 29 -80 29q-43 0 -69.5 -28.5t-26.5 -67.5q0 -61 51 -90l215 57l33 -146l-469 -92z" />
<glyph unicode="&#x627;" horiz-adv-x="708" arabic-form="final" d="M150 0v1409h352v-1087h207v-322h-559z" />
<glyph unicode="&#x628;" horiz-adv-x="2009" arabic-form="final" d="M111 0zM111 436q0 90 19.5 193.5t43.5 179.5l287 -16q2 23 -15 -125q-14 -121 -14 -150q0 -72 52.5 -134t195.5 -62h668v702h352v-702h309v-322h-1276q-174 0 -301 22.5t-224 118t-97 295.5zM770 -164h317v-329h-317v329z" />
<glyph unicode="&#x628;" horiz-adv-x="786" arabic-form="initial" d="M0 0v322h305v702h352v-1024h-657zM0 0zM330 -164h317v-329h-317v329z" />
<glyph unicode="&#x628;" horiz-adv-x="966" arabic-form="medial" d="M0 0v322h305v702h352v-702h310v-322h-967zM0 0zM319 -164h317v-329h-317v329z" />
<glyph unicode="&#x629;" horiz-adv-x="1425" arabic-form="final" d="M82 0zM82 539q0 217 59.5 324.5t188.5 144t375 36.5q137 0 300.5 -9t219.5 -19v-694h200v-322h-751q-219 0 -342 37t-186.5 152.5t-63.5 349.5zM406 1215v311h248v-311h-248zM434 537q0 -99 27.5 -145t77 -58t141.5 -12h192v395q-129 6 -172 6q-109 0 -162 -11.5 t-78.5 -51t-25.5 -123.5zM754 1215v311h248v-311h-248z" />
<glyph unicode="&#x62a;" horiz-adv-x="2009" arabic-form="final" d="M111 0zM111 436q0 90 19.5 193.5t43.5 179.5l287 -16q2 23 -15 -125q-14 -121 -14 -150q0 -72 52.5 -134t195.5 -62h668v702h352v-702h309v-322h-1276q-174 0 -301 22.5t-224 118t-97 295.5zM629 1024v311h248v-311h-248zM977 1024v311h248v-311h-248z" />
<glyph unicode="&#x62a;" horiz-adv-x="786" arabic-form="initial" d="M0 0v322h305v702h352v-1024h-657zM0 0zM189 1215v311h248v-311h-248zM537 1215v311h248v-311h-248z" />
<glyph unicode="&#x62a;" horiz-adv-x="966" arabic-form="medial" d="M0 0v322h305v702h352v-702h310v-322h-967zM0 0zM178 1215v311h248v-311h-248zM526 1215v311h248v-311h-248z" />
<glyph unicode="&#x62b;" horiz-adv-x="2009" arabic-form="final" d="M111 0zM111 436q0 90 19.5 193.5t43.5 179.5l287 -16q2 23 -15 -125q-14 -121 -14 -150q0 -72 52.5 -134t195.5 -62h668v702h352v-702h309v-322h-1276q-174 0 -301 22.5t-224 118t-97 295.5zM631 1024v295h248v-295h-248zM817 1352v270h225v-270h-225zM979 1024v295h248 v-295h-248z" />
<glyph unicode="&#x62b;" horiz-adv-x="786" arabic-form="initial" d="M0 0v322h305v702h352v-1024h-657zM0 0zM191 1214v295h248v-295h-248zM377 1542v270h225v-270h-225zM539 1214v295h248v-295h-248z" />
<glyph unicode="&#x62b;" horiz-adv-x="966" arabic-form="medial" d="M0 0v322h305v702h352v-702h310v-322h-967zM0 0zM180 1214v295h248v-295h-248zM366 1542v270h225v-270h-225zM528 1214v295h248v-295h-248z" />
<glyph unicode="&#x62c;" horiz-adv-x="1345" arabic-form="final" d="M82 -131q0 213 111.5 331.5t332.5 118.5q94 0 269 -20v295q0 82 -28 119t-112 37q-33 -2 -127 -2h-200h-111l-10 227q104 31 266 50t283 19q152 0 236.5 -38.5t118.5 -109.5t36 -181v-393h199v-322h-551q-49 6 -99.5 10t-85.5 4q-80 0 -129 -46t-49 -126q0 -74 47 -123 t144 -49l47 -311q-61 -6 -117 -6q-221 0 -346 140t-125 376zM795 -113h247v-295h-247v295z" />
<glyph unicode="&#x62c;" horiz-adv-x="1214" arabic-form="initial" d="M0 0v322h739v272q0 82 -26.5 119t-110.5 37q-33 -2 -129 -2h-199h-112l-8 227q104 31 266 50t280 19q154 0 239 -38.5t118 -109.5t35 -181v-715h-1092zM0 0zM494 -164h317v-329h-317v329z" />
<glyph unicode="&#x62c;" horiz-adv-x="1288" arabic-form="medial" d="M0 0v322h739v272q0 82 -26.5 119t-110.5 37q-33 -2 -129 -2h-199h-112l-8 227q104 31 266 50t280 19q154 0 239 -38.5t118 -109.5t35 -181v-393h196v-322h-1288zM0 0zM492 -164h317v-329h-317v329z" />
<glyph unicode="&#x62d;" horiz-adv-x="1345" arabic-form="final" d="M82 -131q0 213 111.5 331.5t332.5 118.5q94 0 269 -22v297q0 82 -28 119t-112 37q-33 -2 -127 -2h-200h-111l-10 227q104 31 266 50t283 19q152 0 236.5 -38.5t118.5 -109.5t36 -181v-393h199v-322h-551q-106 14 -185 14q-80 0 -129 -46t-49 -126q0 -74 47 -123t144 -49 q49 0 163.5 9.5t225.5 25.5l39 -266q-102 -33 -248 -59.5t-250 -26.5q-221 0 -346 140t-125 376z" />
<glyph unicode="&#x62d;" horiz-adv-x="1214" arabic-form="initial" d="M0 0v322h739v272q0 82 -26.5 119t-110.5 37q-33 -2 -129 -2h-199h-112l-8 227q104 31 266 50t280 19q154 0 239 -38.5t118 -109.5t35 -181v-715h-1092z" />
<glyph unicode="&#x62d;" horiz-adv-x="1288" arabic-form="medial" d="M0 0v322h739v272q0 82 -26.5 119t-110.5 37q-33 -2 -129 -2h-199h-112l-8 227q104 31 266 50t280 19q154 0 239 -38.5t118 -109.5t35 -181v-393h196v-322h-1288z" />
<glyph unicode="&#x62e;" horiz-adv-x="1345" arabic-form="final" d="M82 0zM82 -131q0 213 111.5 331.5t332.5 118.5q94 0 269 -22v297q0 82 -28 119t-112 37q-33 -2 -127 -2h-200h-111l-10 227q104 31 266 50t283 19q152 0 236.5 -38.5t118.5 -109.5t36 -181v-393h199v-322h-551q-106 14 -185 14q-80 0 -129 -46t-49 -126q0 -74 47 -123 t144 -49q49 0 163.5 9.5t225.5 25.5l39 -266q-102 -33 -248 -59.5t-250 -26.5q-221 0 -346 140t-125 376zM541 1214v330h317v-330h-317z" />
<glyph unicode="&#x62e;" horiz-adv-x="1214" arabic-form="initial" d="M0 0v322h739v272q0 82 -26.5 119t-110.5 37q-33 -2 -129 -2h-199h-112l-8 227q104 31 266 50t280 19q154 0 239 -38.5t118 -109.5t35 -181v-715h-1092zM0 0zM494 1214v330h317v-330h-317z" />
<glyph unicode="&#x62e;" horiz-adv-x="1288" arabic-form="medial" d="M0 0v322h739v272q0 82 -26.5 119t-110.5 37q-33 -2 -129 -2h-199h-112l-8 227q104 31 266 50t280 19q154 0 239 -38.5t118 -109.5t35 -181v-393h196v-322h-1288zM0 0zM492 1214v330h317v-330h-317z" />
<glyph unicode="&#x62f;" horiz-adv-x="1312" arabic-form="final" d="M82 0v322h651q-6 223 -94 323t-209 100h-235l-27 281q231 47 352 47q178 0 305 -90t193.5 -258t66.5 -397v-6h228v-322h-1231z" />
<glyph unicode="&#x630;" horiz-adv-x="1312" arabic-form="final" d="M82 0v322h651q-6 223 -94 323t-209 100h-235l-27 281q231 47 352 47q178 0 305 -90t193.5 -258t66.5 -397v-6h228v-322h-1231zM82 0zM240 1270v330h317v-330h-317z" />
<glyph unicode="&#x631;" horiz-adv-x="966" arabic-form="final" d="M82 -182l31 -2q111 0 110 168v1042h352v-704h392v-322h-392q-6 -233 -92 -369.5t-254 -136.5q-45 0 -147 6v318z" />
<glyph unicode="&#x632;" horiz-adv-x="966" arabic-form="final" d="M82 0zM82 -182l31 -2q111 0 110 168v1042h352v-704h392v-322h-392q-6 -233 -92 -369.5t-254 -136.5q-45 0 -147 6v318zM242 1214v330h317v-330h-317z" />
<glyph unicode="&#x633;" horiz-adv-x="2572" arabic-form="final" d="M82 0q0 90 26.5 236.5t69.5 343.5l332 -19q-43 -211 -66.5 -335t-23.5 -179q0 -80 54 -154.5t222 -74.5q147 0 215 64.5t68 150.5v889h352v-600h23q68 0 108.5 49t40.5 133v418h352v-418q0 -82 -16 -164q29 -18 68 -18h112v172l2 110q2 31 2 94q0 109 -16 316l313 14 q51 -383 52 -459v-247h200v-322h-649q-74 0 -142.5 24.5t-94.5 43.5q-90 -68 -209 -68h-146v-82q0 -82 -55 -179t-199.5 -172t-388.5 -75q-272 0 -406.5 93t-167 199.5t-32.5 215.5z" />
<glyph unicode="&#x633;" horiz-adv-x="1804" arabic-form="initial" d="M0 0v322h301v600h352v-600h23q68 0 108.5 49t40.5 133v418h353v-418q0 -82 -17 -164q29 -18 68 -18h112v172l2 110q2 31 3 94q0 109 -17 316l313 14q52 -383 52 -459v-569h-449q-74 0 -142.5 24.5t-94.5 43.5q-90 -68 -209 -68h-799z" />
<glyph unicode="&#x633;" horiz-adv-x="1853" arabic-form="medial" d="M0 0v322h301v600h352v-600h23q68 0 108.5 49t40.5 133v418h353v-418q0 -82 -17 -164q29 -18 68 -18h112v172l2 110q2 31 3 94q0 109 -17 316l313 14q51 -383 52 -459v-247h159v-322h-608q-74 0 -142.5 24.5t-94.5 43.5q-90 -68 -209 -68h-799z" />
<glyph unicode="&#x634;" horiz-adv-x="2572" arabic-form="final" d="M82 0q0 90 26.5 236.5t69.5 343.5l332 -19q-43 -211 -66.5 -335t-23.5 -179q0 -80 54 -154.5t222 -74.5q147 0 215 64.5t68 150.5v889h352v-600h23q68 0 108.5 49t40.5 133v418h352v-418q0 -82 -16 -164q29 -18 68 -18h112v172l2 110q2 31 2 94q0 109 -16 316l313 14 q51 -383 52 -459v-247h200v-322h-649q-74 0 -142.5 24.5t-94.5 43.5q-90 -68 -209 -68h-146v-82q0 -82 -55 -179t-199.5 -172t-388.5 -75q-272 0 -406.5 93t-167 199.5t-32.5 215.5zM82 0zM1389 1214v295h248v-295h-248zM1575 1542v270h225v-270h-225zM1737 1214v295h248 v-295h-248z" />
<glyph unicode="&#x634;" horiz-adv-x="1804" arabic-form="initial" d="M0 0v322h301v600h352v-600h23q68 0 108.5 49t40.5 133v418h353v-418q0 -82 -17 -164q29 -18 68 -18h112v172l2 110q2 31 3 94q0 109 -17 316l313 14q52 -383 52 -459v-569h-449q-74 0 -142.5 24.5t-94.5 43.5q-90 -68 -209 -68h-799zM0 0zM711 1214v295h248v-295h-248z M897 1542v270h225v-270h-225zM1059 1214v295h248v-295h-248z" />
<glyph unicode="&#x634;" horiz-adv-x="1853" arabic-form="medial" d="M0 0v322h301v600h352v-600h23q68 0 108.5 49t40.5 133v418h353v-418q0 -82 -17 -164q29 -18 68 -18h112v172l2 110q2 31 3 94q0 109 -17 316l313 14q51 -383 52 -459v-247h159v-322h-608q-74 0 -142.5 24.5t-94.5 43.5q-90 -68 -209 -68h-799zM0 0zM670 1214v295h248 v-295h-248zM856 1542v270h225v-270h-225zM1018 1214v295h248v-295h-248z" />
<glyph unicode="&#x635;" horiz-adv-x="2572" arabic-form="final" d="M82 -16q0 80 29.5 259t66.5 337l336 -19q-94 -410 -94 -516q0 -80 53 -155.5t223 -75.5q147 0 215 66.5t68 152.5v991h352v-328q92 115 167 186.5t175.5 116.5t231.5 45q258 0 365.5 -158.5t107.5 -371.5v-192h194v-322h-1241v-82q0 -82 -55 -179t-198.5 -172t-385.5 -75 q-389 0 -499.5 161t-110.5 331zM1372 322h653v118q0 117 -57 200t-158 83q-106 0 -227 -112.5t-211 -288.5z" />
<glyph unicode="&#x635;" horiz-adv-x="1759" arabic-form="initial" d="M0 0v322h252v702h352v-328q92 115 167 186.5t175.5 116.5t231.5 45q258 0 365.5 -158.5t107.5 -371.5v-514h-1651zM645 322h653v118q0 117 -58 200t-159 83q-106 0 -226 -112.5t-210 -288.5z" />
<glyph unicode="&#x635;" horiz-adv-x="1808" arabic-form="medial" d="M0 0v322h252v702h352v-328q92 115 167 186.5t175.5 116.5t231.5 45q258 0 365.5 -158.5t107.5 -371.5v-192h157v-322h-1808zM645 322h653v118q0 117 -58 200t-159 83q-106 0 -226 -112.5t-210 -288.5z" />
<glyph unicode="&#x636;" horiz-adv-x="2572" arabic-form="final" d="M82 0zM82 -16q0 80 29.5 259t66.5 337l336 -19q-94 -410 -94 -516q0 -80 53 -155.5t223 -75.5q147 0 215 66.5t68 152.5v991h352v-328q92 115 167 186.5t175.5 116.5t231.5 45q258 0 365.5 -158.5t107.5 -371.5v-192h194v-322h-1241v-82q0 -82 -55 -179t-198.5 -172 t-385.5 -75q-389 0 -499.5 161t-110.5 331zM1372 322h653v118q0 117 -57 200t-158 83q-106 0 -227 -112.5t-211 -288.5zM1579 1214v330h317v-330h-317z" />
<glyph unicode="&#x636;" horiz-adv-x="1759" arabic-form="initial" d="M0 0v322h252v702h352v-328q92 115 167 186.5t175.5 116.5t231.5 45q258 0 365.5 -158.5t107.5 -371.5v-514h-1651zM0 0zM645 322h653v118q0 117 -58 200t-159 83q-106 0 -226 -112.5t-210 -288.5zM901 1214v330h317v-330h-317z" />
<glyph unicode="&#x636;" horiz-adv-x="1808" arabic-form="medial" d="M0 0v322h252v702h352v-328q92 115 167 186.5t175.5 116.5t231.5 45q258 0 365.5 -158.5t107.5 -371.5v-192h157v-322h-1808zM0 0zM645 322h653v118q0 117 -58 200t-159 83q-106 0 -226 -112.5t-210 -288.5zM860 1214v330h317v-330h-317z" />
<glyph unicode="&#x637;" horiz-adv-x="1710" arabic-form="final" d="M2 0v322h111v1087h352v-713q92 115 167 186.5t175 116.5t231 45q258 0 365.5 -158.5t107.5 -371.5v-192h199v-322h-1708zM506 322h653v118q0 117 -58.5 200t-158.5 83q-106 0 -226 -112.5t-210 -288.5z" />
<glyph unicode="&#x637;" horiz-adv-x="1675" arabic-form="initial" d="M0 0v322h158v1087h352v-633q96 96 165.5 150.5t164 86t227.5 31.5q225 0 332.5 -98t130 -206.5t22.5 -225.5v-514h-1552zM528 322h672v102q0 113 -44 206t-171 93q-106 0 -197.5 -74t-137.5 -140.5t-122 -186.5z" />
<glyph unicode="&#x637;" horiz-adv-x="1710" arabic-form="medial" d="M0 0v322h158v1087h352v-633q96 96 165.5 150.5t164 86t227.5 31.5q225 0 332.5 -98t130 -206.5t22.5 -225.5v-192h158v-322h-1710zM528 322h672v102q0 113 -44 206t-171 93q-106 0 -197.5 -74t-137.5 -140.5t-122 -186.5z" />
<glyph unicode="&#x638;" horiz-adv-x="1710" arabic-form="final" d="M2 0v322h111v1087h352v-713q92 115 167 186.5t175 116.5t231 45q258 0 365.5 -158.5t107.5 -371.5v-192h199v-322h-1708zM2 0zM506 322h653v118q0 117 -58.5 200t-158.5 83q-106 0 -226 -112.5t-210 -288.5zM618 1214v330h317v-330h-317z" />
<glyph unicode="&#x638;" horiz-adv-x="1675" arabic-form="initial" d="M0 0v322h158v1087h352v-633q96 96 165.5 150.5t164 86t227.5 31.5q225 0 332.5 -98t130 -206.5t22.5 -225.5v-514h-1552zM0 0zM528 322h672v102q0 113 -44 206t-171 93q-106 0 -197.5 -74t-137.5 -140.5t-122 -186.5zM682 1214v330h317v-330h-317z" />
<glyph unicode="&#x638;" horiz-adv-x="1710" arabic-form="medial" d="M0 0v322h158v1087h352v-633q96 96 165.5 150.5t164 86t227.5 31.5q225 0 332.5 -98t130 -206.5t22.5 -225.5v-192h158v-322h-1710zM0 0zM528 322h672v102q0 113 -44 206t-171 93q-106 0 -197.5 -74t-137.5 -140.5t-122 -186.5zM618 1214v330h317v-330h-317z" />
<glyph unicode="&#x639;" horiz-adv-x="1386" arabic-form="final" d="M45 -135q0 176 78 292.5t231 147.5q-35 35 -82 72q-94 82 -141 144.5t-49 152.5l-4 203q39 31 134 72.5t219 71.5t243 30t243.5 -30t223 -72t137.5 -72l-8 -203q2 -88 -40 -144.5t-130 -132.5q-47 -37 -84 -73q20 -2 63 -2h307v-322h-303q-203 0 -405 82l-191 -76 q-33 -20 -49 -62t-16 -102q0 -78 36 -125t130 -47q49 0 163.5 9.5t223.5 25.5l39 -266l-78 -21q-86 -25 -208 -45t-212 -20q-145 0 -251.5 64.5t-163 180t-56.5 267.5zM424 692q10 -45 71.5 -114.5t182.5 -135.5q129 78 188.5 143.5t67.5 106.5q-117 37 -258 37 q-145 0 -252 -37zM424 709l4 2zM930 711l2 -2q0 2 -1 2h-1z" />
<glyph unicode="&#x639;" horiz-adv-x="1208" arabic-form="initial" d="M0 0v322h227q-25 113 -24 206q0 211 96 327t216 156t216 40q74 0 177.5 -22.5t176.5 -55.5l-16 -338q-203 94 -313 94q-201 0 -201 -213q0 -113 72 -194h520v-322h-1147z" />
<glyph unicode="&#x639;" horiz-adv-x="1435" arabic-form="medial" d="M0 0v322h328q41 0 61 2q-25 25 -45 42t-37 31q-88 74 -131 132.5t-41 144.5l-6 203q39 31 134 72.5t219 71.5t241 30q119 0 244 -30t223 -72t139 -72l-10 -203q2 -59 -20.5 -106.5t-55.5 -82t-92 -86.5q-57 -49 -84 -75q20 -2 63 -2h306v-322h-303q-209 0 -406 84 q-96 -41 -199.5 -62.5t-193.5 -21.5h-334zM477 694q10 -45 70.5 -115.5t181.5 -136.5q129 78 188.5 144.5t67.5 105.5q-117 37 -260 37q-141 0 -248 -35zM477 709l2 2q-2 0 -2 -2zM985 709h2h-2z" />
<glyph unicode="&#x63a;" horiz-adv-x="1386" arabic-form="final" d="M45 0zM45 -135q0 176 78 292.5t231 147.5q-35 35 -82 72q-94 82 -141 144.5t-49 152.5l-4 203q39 31 134 72.5t219 71.5t243 30t243.5 -30t223 -72t137.5 -72l-8 -203q2 -88 -40 -144.5t-130 -132.5q-47 -37 -84 -73q20 -2 63 -2h307v-322h-303q-203 0 -405 82l-191 -76 q-33 -20 -49 -62t-16 -102q0 -78 36 -125t130 -47q49 0 163.5 9.5t223.5 25.5l39 -266l-78 -21q-86 -25 -208 -45t-212 -20q-145 0 -251.5 64.5t-163 180t-56.5 267.5zM424 692q10 -45 71.5 -114.5t182.5 -135.5q129 78 188.5 143.5t67.5 106.5q-117 37 -258 37 q-145 0 -252 -37zM424 709l4 2zM512 1214v330h317v-330h-317zM930 711l2 -2q0 2 -1 2h-1z" />
<glyph unicode="&#x63a;" horiz-adv-x="1208" arabic-form="initial" d="M0 0v322h227q-25 113 -24 206q0 211 96 327t216 156t216 40q74 0 177.5 -22.5t176.5 -55.5l-16 -338q-203 94 -313 94q-201 0 -201 -213q0 -113 72 -194h520v-322h-1147zM0 0zM598 1214v330h317v-330h-317z" />
<glyph unicode="&#x63a;" horiz-adv-x="1435" arabic-form="medial" d="M0 0v322h328q41 0 61 2q-25 25 -45 42t-37 31q-88 74 -131 132.5t-41 144.5l-6 203q39 31 134 72.5t219 71.5t241 30q119 0 244 -30t223 -72t139 -72l-10 -203q2 -59 -20.5 -106.5t-55.5 -82t-92 -86.5q-57 -49 -84 -75q20 -2 63 -2h306v-322h-303q-209 0 -406 84 q-96 -41 -199.5 -62.5t-193.5 -21.5h-334zM0 0zM477 694q10 -45 70.5 -115.5t181.5 -136.5q129 78 188.5 144.5t67.5 105.5q-117 37 -260 37q-141 0 -248 -35zM477 709l2 2q-2 0 -2 -2zM557 1214v330h317v-330h-317zM985 709h2h-2z" />
<glyph unicode="&#x641;" horiz-adv-x="2244" arabic-form="final" d="M82 0zM82 440q0 156 61 369l287 -16q-4 -45 -8 -68q-18 -178 -19 -207q0 -72 52.5 -134t195.5 -62h371q-29 131 -29 241q0 250 146.5 354.5t445.5 104.5q182 0 313 -14l140 -17v-669h207v-322h-1540q-174 0 -301.5 22.5t-224.5 119t-97 298.5zM1018 289q2 -4 5 -4t3 4h-8 zM1354 451q0 -59 10 -129h322v380q-82 4 -105 5q-102 0 -147 -15.5t-62.5 -68t-17.5 -172.5zM1485 1214v330h317v-330h-317z" />
<glyph unicode="&#x641;" horiz-adv-x="1372" arabic-form="initial" d="M0 0v322h246q4 -4 -8.5 76.5t-12.5 168.5q0 178 67.5 276.5t200 137.5t345.5 39q197 0 292 -12l140 -17v-991h-1270zM0 0zM586 479q0 -84 6 -113.5t8 -43.5h318v380q-86 4 -109 5q-100 0 -144 -14.5t-61.5 -60.5t-17.5 -153zM610 1214v330h317v-330h-317z" />
<glyph unicode="&#x641;" horiz-adv-x="1404" arabic-form="medial" d="M0 0v322h246q4 -4 -8.5 76.5t-12.5 168.5q0 178 67.5 276.5t200 137.5t345.5 39q197 0 292 -12l140 -17v-669h135v-322h-1405zM0 0zM586 479q0 -84 6 -113.5t8 -43.5h318v380q-86 4 -109 5q-100 0 -144 -14.5t-61.5 -60.5t-17.5 -153zM618 1214v330h317v-330h-317z" />
<glyph unicode="&#x642;" horiz-adv-x="2072" arabic-form="final" d="M82 0zM82 -74q0 172 90 682l328 -55l-21 -129q-29 -184 -44 -295t-15 -178q0 -231 223 -232h586q125 0 175 68t50 158v55h-225q-180 0 -272.5 28.5t-139.5 132t-47 322.5q0 244 59.5 357.5t180 146.5t362.5 33q184 0 295 -12l139 -17v-669h267v-322h-267v-80 q0 -131 -61.5 -250t-192.5 -195.5t-329 -76.5h-576q-201 0 -327.5 76.5t-182 195.5t-55.5 256zM1114 1215v311h248v-311h-248zM1122 485q0 -71 11.5 -107t33 -47.5t60.5 -11.5l80 3h147v374h-80q-109 0 -156 -9t-71.5 -53t-24.5 -149zM1462 1215v311h248v-311h-248z" />
<glyph unicode="&#x642;" horiz-adv-x="1372" arabic-form="initial" d="M0 0v322h246q4 -4 -8.5 76.5t-12.5 168.5q0 178 67.5 276.5t200 137.5t345.5 39q197 0 292 -12l140 -17v-991h-1270zM0 0zM469 1215v311h248v-311h-248zM586 479q0 -84 6 -113.5t8 -43.5h318v380q-86 4 -109 5q-100 0 -144 -14.5t-61.5 -60.5t-17.5 -153zM817 1215v311 h248v-311h-248z" />
<glyph unicode="&#x642;" horiz-adv-x="1404" arabic-form="medial" d="M0 0v322h246q4 -4 -8.5 76.5t-12.5 168.5q0 178 67.5 276.5t200 137.5t345.5 39q197 0 292 -12l140 -17v-669h135v-322h-1405zM0 0zM477 1215v311h248v-311h-248zM586 479q0 -84 6 -113.5t8 -43.5h318v380q-86 4 -109 5q-100 0 -144 -14.5t-61.5 -60.5t-17.5 -153z M825 1215v311h248v-311h-248z" />
<glyph unicode="&#x643;" horiz-adv-x="1857" arabic-form="final" d="M68 0zM68 436q0 137 47 309l297 -16l-11 -102q-10 -86 -10 -109q0 -72 52.5 -134t193.5 -62h563v1087h352v-1087h306v-322h-1168q-174 0 -300 22.5t-224 118t-98 295.5zM565 801l91 23q-86 74 -87 180q0 90 65 155.5t167 65.5q78 0 166 -49l-31 -154q-35 29 -80 29 q-43 0 -69.5 -28.5t-26.5 -67.5q0 -61 51 -90l215 57l33 -146l-469 -92z" />
<glyph unicode="&#x643;" horiz-adv-x="1380" arabic-form="initial" d="M0 0v322h905v223q0 70 -25.5 115t-61.5 65t-62 18h-545l-166 224l133 260q43 88 109.5 174t118.5 135l264 -150q-16 -18 -75.5 -113t-109.5 -190l-10 -18h346q193 0 289 -106.5t121.5 -221t25.5 -194.5v-543h-1257zM670 1386z" />
<glyph unicode="&#x643;" horiz-adv-x="1517" arabic-form="medial" d="M0 0v322h905v223q0 70 -25.5 115t-61.5 65t-62 18h-545l-166 224l133 260q43 88 109.5 174t118.5 135l264 -150q-16 -18 -75.5 -113t-109.5 -190l-10 -18h346q193 0 289 -106.5t121.5 -221t25.5 -194.5v-221h261v-322h-1518zM670 1386z" />
<glyph unicode="&#x644;" horiz-adv-x="1587" arabic-form="final" d="M92 8q0 115 68 557l329 -18q-18 -125 -38.5 -287t-20.5 -211q0 -59 36 -113.5t102.5 -88t150.5 -33.5q90 0 152.5 35.5t92 89t29.5 104.5v1366h353v-1087h241v-322h-241q-2 -127 -73 -243.5t-209 -190.5t-331 -74q-188 0 -334.5 70.5t-226.5 189.5t-80 256z" />
<glyph unicode="&#x644;" horiz-adv-x="753" arabic-form="initial" d="M0 0v322h252v1087h352v-1409h-604z" />
<glyph unicode="&#x644;" horiz-adv-x="788" arabic-form="medial" d="M0 0v322h252v1087h352v-1087h184v-322h-788z" />
<glyph unicode="&#x645;" horiz-adv-x="1523" arabic-form="final" d="M80 -111q0 139 53 232.5t139 144.5q-39 152 -39 250q0 96 27 221t59 228q59 29 178 52t271 23q242 0 359.5 -67.5t148.5 -175t31 -285.5v-115q12 -35 33.5 -55t39.5 -20h144v-322h-144q-23 0 -43 14.5t-30 36.5v-51h-666q-90 0 -160.5 -59.5t-70.5 -225.5q0 -121 55 -377 l-301 -12q-31 125 -57.5 293t-26.5 270zM571 516q0 -51 9.5 -104.5t19.5 -89.5h354v198q0 70 -10 110t-57 67.5t-150 27.5q-76 0 -145 -16q-20 -113 -21 -193z" />
<glyph unicode="&#x645;" horiz-adv-x="1441" arabic-form="initial" d="M0 0v322h305q-27 115 -26 194q0 96 27.5 223t60.5 226q57 29 176 52t270 23q244 0 360.5 -67.5t147.5 -174t31 -286.5v-512h-1352zM616 516q0 -51 9.5 -104.5t19.5 -89.5h354v198q0 72 -9 111t-56 66.5t-150 27.5q-78 0 -147 -16q-20 -113 -21 -193z" />
<glyph unicode="&#x645;" horiz-adv-x="1570" arabic-form="medial" d="M0 0v322h305q-27 115 -26 194q0 96 27.5 223t60.5 226q57 29 176 52t270 23q244 0 360.5 -67.5t147.5 -174t31 -286.5v-109q12 -37 33.5 -59t41.5 -22h144v-322h-144q-25 0 -45 15.5t-30 41.5v-57h-1352zM616 516q0 -51 9.5 -104.5t19.5 -89.5h354v198q0 72 -9 111 t-56 66.5t-150 27.5q-78 0 -147 -16q-20 -113 -21 -193z" />
<glyph unicode="&#x646;" horiz-adv-x="1529" arabic-form="final" d="M82 0zM82 8q0 115 68 557l329 -18q-18 -125 -38.5 -287t-20.5 -211q0 -59 36 -113.5t102.5 -88t150.5 -33.5q90 0 152.5 35.5t92 89t29.5 104.5v981h352v-702h195v-322h-195q-2 -127 -72.5 -243.5t-209 -190.5t-330.5 -74q-188 0 -334.5 70.5t-226.5 189.5t-80 256z M563 1024v330h317v-330h-317z" />
<glyph unicode="&#x646;" horiz-adv-x="786" arabic-form="initial" d="M0 0v322h305v702h352v-1024h-657zM0 0zM330 1214v330h317v-330h-317z" />
<glyph unicode="&#x646;" horiz-adv-x="966" arabic-form="medial" d="M0 0v322h305v702h352v-702h310v-322h-967zM0 0zM319 1214v330h317v-330h-317z" />
<glyph unicode="&#x647;" horiz-adv-x="1425" arabic-form="final" d="M82 539q0 217 59.5 324.5t188.5 144t375 36.5q137 0 300.5 -9t219.5 -19v-694h200v-322h-751q-219 0 -342 37t-186.5 152.5t-63.5 349.5zM434 537q0 -99 27.5 -145t77 -58t141.5 -12h192v395q-129 6 -172 6q-109 0 -162 -11.5t-78.5 -51t-25.5 -123.5z" />
<glyph unicode="&#x647;" horiz-adv-x="1683" arabic-form="initial" d="M0 0v322h203v32q-2 113 56 220.5t163.5 175t243.5 67.5q137 0 240.5 -68.5t159.5 -174t56 -216.5v-36h119v235q0 184 -78 284.5t-181 135.5t-200 35q-74 0 -173 -13.5t-285 -44.5q-16 -4 -45 -8l-31 289q195 47 344 72.5t272 25.5q262 0 425 -111.5t233.5 -286.5 t70.5 -378v-557h-1593zM557 322h213v32q0 59 -31.5 101.5t-76.5 42.5q-46 0 -75.5 -42t-29.5 -104v-30z" />
<glyph unicode="&#x647;" horiz-adv-x="1763" arabic-form="medial" d="M0 0v322h203v32q-2 113 56 220.5t163.5 175t243.5 67.5q137 0 240.5 -68.5t159.5 -174t56 -216.5v-36h119v235q0 184 -78 284.5t-181 135.5t-200 35q-74 0 -173 -13.5t-285 -44.5q-16 -4 -45 -8l-31 289q195 47 344 72.5t272 25.5q262 0 425 -111.5t233.5 -286.5 t70.5 -378v-235h170v-322h-1763zM557 322h213v32q0 59 -31.5 101.5t-76.5 42.5q-46 0 -75.5 -42t-29.5 -104v-30z" />
<glyph unicode="&#x648;" horiz-adv-x="1417" arabic-form="final" d="M82 494q0 248 66.5 372.5t170 162.5t252.5 38q143 0 286.5 -18.5t246.5 -40.5v-686h313v-322h-321q-27 -211 -131.5 -359.5t-339.5 -148.5q-133 0 -389 45v320q281 -43 354 -43q90 0 120.5 43t28.5 143h-196q-197 0 -298.5 76t-132 181t-30.5 237zM434 516q0 -96 40 -145 t155 -49h123v419q-66 4 -121 4q-53 0 -94 -12t-72 -62t-31 -155z" />
<glyph unicode="&#x649;" horiz-adv-x="2035" arabic-form="final" d="M82 14q0 80 19.5 197t37.5 184l326 -53q-8 -59 -19.5 -152.5t-11.5 -130.5q0 -100 75 -172.5t208 -72.5l581 2q59 0 90 9t49.5 49t20.5 126q-100 2 -176 26.5t-166 90.5l156 278q45 -37 79.5 -53t62.5 -18t91 -2h531v-322h-217q-12 -279 -145.5 -393.5t-354.5 -114.5 h-592q-137 0 -286.5 52.5t-254 169t-104.5 300.5z" />
<glyph unicode="&#x64a;" horiz-adv-x="2035" arabic-form="final" d="M82 0zM82 14q0 80 19.5 197t37.5 184l326 -53q-8 -59 -19.5 -152.5t-11.5 -130.5q0 -100 75 -172.5t208 -72.5l581 2q59 0 90 9t49.5 49t20.5 126q-100 2 -176 26.5t-166 90.5l156 278q45 -37 79.5 -53t62.5 -18t91 -2h531v-322h-217q-12 -279 -145.5 -393.5 t-354.5 -114.5h-592q-137 0 -286.5 52.5t-254 169t-104.5 300.5zM686 -656h248v-311h-248v311zM1034 -656h248v-311h-248v311z" />
<glyph unicode="&#x64a;" horiz-adv-x="786" arabic-form="initial" d="M0 0v322h305v702h352v-1024h-657zM0 0zM191 -164h248v-311h-248v311zM539 -164h248v-311h-248v311z" />
<glyph unicode="&#x64a;" horiz-adv-x="966" arabic-form="medial" d="M0 0v322h305v702h352v-702h310v-322h-967zM0 0zM180 -164h248v-311h-248v311zM528 -164h248v-311h-248v311z" />
<glyph horiz-adv-x="0" />
<glyph horiz-adv-x="0" />
<glyph unicode="&#xd;" horiz-adv-x="481" />
<glyph unicode=" "  horiz-adv-x="450" />
<glyph unicode="&#x09;" horiz-adv-x="450" />
<glyph unicode="&#xa0;" horiz-adv-x="450" />
<glyph unicode="!" horiz-adv-x="618" d="M117 1376h387l-41 -833h-307zM119 0v397h379v-397h-379z" />
<glyph unicode="&#x22;" horiz-adv-x="892" d="M100 1376h338l-18 -516h-311zM461 1376h338l-17 -516h-311z" />
<glyph unicode="#" d="M23 270v295h176v176h-176v295h176v307h303v-307h143v307h303v-307h176v-295h-176v-176h176v-295h-176v-270h-303v270h-143v-270h-303v270h-176zM502 565h143v176h-143v-176z" />
<glyph unicode="$" d="M84 954q0 197 130 310.5t347 113.5l14 2l37 295h185l-39 -311q33 -2 122 -15.5t126 -23.5l28 -8l-28 -279q-158 16 -289 25l-27 -232q139 -51 217 -102t115 -121.5t37 -179.5q0 -225 -136.5 -341t-353.5 -116h17l-31 -245q-184 6 -184 14l28 244q-96 12 -145 23t-104 28 l-46 10l33 272q170 -23 303 -30l31 252q-213 72 -300 172t-87 243zM436 977q0 -31 80 -80l19 168q-41 -8 -70 -34.5t-29 -53.5zM625 285q41 14 61.5 42.5t20.5 55.5q0 45 -60 94z" />
<glyph unicode="%" d="M10 1071q0 307 258 307q260 0 260 -307q0 -154 -63.5 -229.5t-196.5 -75.5q-131 0 -194.5 77t-63.5 228zM215 -23l522 1479l185 -67l-523 -1473zM260 1069q0 -98 8 -98t8 98q0 45 -3 76t-5 31q-8 0 -8 -107zM616 276q0 309 261 310q131 0 195.5 -77t64.5 -233 q0 -152 -62.5 -227.5t-195.5 -75.5q-134 0 -198.5 76t-64.5 227zM870 276q0 -100 7 -100q2 0 5 28.5t3 74.5q0 43 -3 72.5t-5 29.5q-2 -6 -4.5 -34t-2.5 -71z" />
<glyph unicode="&#x26;" horiz-adv-x="1454" d="M61 408q0 137 63.5 237t211.5 164q-90 109 -119 177.5t-29 135.5q0 176 122 263.5t341 87.5q221 0 340 -87.5t119 -269.5q0 -111 -55.5 -202t-202.5 -214l127 -131q6 8 17.5 99.5t9.5 117.5l344 -10q-29 -211 -111 -407l207 -168l-199 -230l-196 144q-86 -51 -135.5 -77 t-132.5 -45.5t-199 -19.5q-265 0 -394 112t-129 323zM422 422q0 -66 45 -99.5t131 -33.5q24 0 147 10l66 4l-303 303q-39 -33 -62.5 -85t-23.5 -99zM549 1085q0 -39 21.5 -74.5t70.5 -88.5l18 -25q50 64 69.5 104.5t19.5 79.5q0 45 -25 69t-70 24q-51 0 -77.5 -25t-26.5 -64 z" />
<glyph unicode="'" horiz-adv-x="532" d="M100 1376h338l-18 -516h-311z" />
<glyph unicode="(" horiz-adv-x="690" d="M59 614q0 246 76 504t178 418h336q-66 -162 -130 -453.5t-64 -457.5q0 -203 50 -417t144 -464h-336q-55 51 -114.5 201.5t-99.5 335t-40 333.5z" />
<glyph unicode=")" horiz-adv-x="690" d="M41 -256q197 508 197 883q0 156 -66 455.5t-131 453.5h336q113 -190 183.5 -440t70.5 -482q0 -154 -40 -339t-99.5 -333.5t-114.5 -197.5h-336z" />
<glyph unicode="*" horiz-adv-x="876" d="M63 938l211 158l-204 145l114 158l201 -144l78 242l188 -63l-76 -244h244v-184h-239l73 -240l-182 -53l-84 239l-207 -161z" />
<glyph unicode="+" d="M96 356v316h318v307h315v-307h322v-316h-322v-311h-315v311h-318z" />
<glyph unicode="," horiz-adv-x="593" d="M23 -252l106 574h393l-217 -574h-282z" />
<glyph unicode="-" horiz-adv-x="794" d="M98 373v319h596v-319h-596z" />
<glyph unicode="." horiz-adv-x="579" d="M100 0v412h379v-412h-379z" />
<glyph unicode="/" horiz-adv-x="1028" d="M61 14l598 1471l312 -111l-598 -1470z" />
<glyph unicode="0" d="M29 682q0 360 135 531t409 171q279 0 413 -171t134 -531t-134 -531t-413 -171q-274 0 -409 172t-135 530zM403 682q0 -209 38 -297t132 -88q95 0 132.5 88t37.5 297q0 211 -37.5 299t-132.5 88q-94 0 -132 -88t-38 -299z" />
<glyph unicode="1" d="M106 1049l457 303h332v-1352h-365v936l-256 -160z" />
<glyph unicode="2" d="M127 0v311l219 211q125 129 182.5 197.5t75 111.5t17.5 97q0 129 -123 129q-137 0 -301 -19l-47 -2l-15 277q197 66 424 65q219 0 328.5 -102t109.5 -301q0 -106 -27.5 -188t-95 -164t-192.5 -195l-154 -111h484v-317h-885z" />
<glyph unicode="3" d="M111 51l14 273q205 -31 360 -31q96 0 129 28.5t33 73.5q0 63 -43 97t-100 30h-273v299h273q53 0 88 47t35 105q0 90 -191 90q-61 0 -188 -21l-60 -8l-53 -6l-22 264q184 86 413 86q246 0 362 -90t116 -280q0 -119 -28 -183.5t-102 -134.5q61 -43 92 -76.5t44.5 -79 t13.5 -122.5q0 -223 -115.5 -331t-371.5 -108q-84 0 -167 14.5t-194 47.5z" />
<glyph unicode="4" d="M82 197v276l299 879h405l-344 -840h158v350h367v-350h100v-315h-100v-197h-367v197h-518z" />
<glyph unicode="5" d="M84 57l39 267q244 -35 426 -35q61 0 95 33.5t34 99.5q0 63 -25.5 97t-70.5 34l-80 2q-18 2 -58 2q-37 0 -79 -6h-23l-207 51l37 750h850v-314h-569l-33 -194q104 25 190 24q444 0 445 -411q0 -229 -123 -357.5t-348 -128.5q-92 0 -229.5 22.5t-192.5 43.5z" />
<glyph unicode="6" d="M51 696q0 682 586 682q162 0 360 -57l70 -18l-33 -275q-231 35 -364 35q-127 0 -185.5 -51t-58.5 -164l39 6q100 27 156 27q244 0 363.5 -107.5t119.5 -341.5q0 -459 -535 -459q-254 0 -386 185.5t-132 537.5zM424 541q0 -135 43 -193.5t131 -58.5q59 0 94 38t35 105 q0 68 -29.5 100.5t-99.5 32.5q-41 0 -69.5 -3t-77.5 -17z" />
<glyph unicode="7" d="M131 1028v324h881v-396l-457 -983l-336 90l428 891v74h-516z" />
<glyph unicode="8" d="M51 344q0 117 27.5 189.5t101.5 156.5q-68 74 -87 136.5t-19 170.5q0 172 137 279q141 102 358 102q147 0 261 -47t178.5 -134t64.5 -202q0 -84 -5 -127t-24.5 -83t-66.5 -95q70 -90 93.5 -153.5t23.5 -169.5q0 -197 -147.5 -295.5t-379.5 -98.5q-516 0 -516 371z M444 436q0 -135 129 -135q127 0 127 127q0 20 -11 48t-32 42h-155q-27 -18 -42.5 -40.5t-15.5 -41.5zM467 924q0 -25 35 -99h155q23 74 23 111q0 115 -107 115q-49 0 -77.5 -32t-28.5 -95z" />
<glyph unicode="9" d="M39 924q0 219 138 336.5t403 117.5q246 0 378 -181t132 -535t-145.5 -521.5t-434.5 -167.5q-174 1 -358 56l-72 18l33 277q231 -35 397 -35q209 0 205 239l-72 -20q-100 -31 -123 -31q-227 0 -354 115t-127 332zM416 924q0 -129 137 -129q73 -1 145 24l19 4 q2 121 -39 180.5t-125 59.5q-137 0 -137 -139z" />
<glyph unicode=":" horiz-adv-x="577" d="M100 0v412h379v-412h-379zM100 547v411h379v-411h-379z" />
<glyph unicode=";" horiz-adv-x="614" d="M27 -252l108 574h391l-215 -574h-284zM117 547v411h379v-411h-379z" />
<glyph unicode="&#x3c;" d="M141 371v286l820 347v-357l-429 -125l429 -149v-357z" />
<glyph unicode="=" d="M111 127v319h925v-319h-925zM111 586v317h925v-317h-925z" />
<glyph unicode="&#x3e;" d="M188 16v357l428 149l-428 125v357l818 -347v-286z" />
<glyph unicode="?" horiz-adv-x="880" d="M53 1325q156 78 393 78q186 0 284.5 -81t98.5 -232q0 -123 -12 -191t-44 -113t-99 -92q-63 -39 -97 -76.5t-34 -93.5v-57h-281q-88 80 -88 227q0 18 24.5 51t61.5 58q4 4 45 33q82 59 118 96t36 80q0 35 -29 55t-80 20q-139 0 -280 -24zM203 -2v397h379v-397h-379z" />
<glyph unicode="@" horiz-adv-x="1986" d="M59 535q0 301 122 519t343 332.5t512 114.5q289 0 493 -103.5t311.5 -300t107.5 -472.5v-11q0 -285 -108.5 -445.5t-315.5 -160.5q-92 0 -170 30t-119 79q-141 -111 -266 -111q-211 0 -305.5 132t-94.5 390q0 252 88 371t287 119q63 0 127 -37l27 -14v22h356v-350 q0 -240 4 -254q2 -43 12.5 -61.5t38.5 -18.5q53 0 69.5 77t16.5 232v13q0 291 -138 426t-427 135q-190 0 -328.5 -83t-213 -236.5t-74.5 -358.5q0 -317 143 -475t471 -158l293 17l14 -308q-164 -23 -307 -22q-235 0 -408.5 49t-302.5 156q-258 227 -258 766zM930 524 q0 -205 69 -205q74 0 107 23q-8 66 -8 125v231q-41 6 -68 7q-45 0 -65.5 -15.5t-27.5 -52.5t-7 -113z" />
<glyph unicode="A" horiz-adv-x="1241" d="M25 0l264 1376h663l265 -1376h-369l-27 176h-401l-27 -176h-368zM481 492h279l-94 585h-91z" />
<glyph unicode="B" horiz-adv-x="1236" d="M137 0v1376h568q227 0 334.5 -89t107.5 -294q0 -96 -27.5 -162.5t-105.5 -123.5q76 -35 112.5 -106t36.5 -183q0 -207 -119.5 -312.5t-343.5 -105.5h-563zM502 309h180q59 0 85 23.5t26 85.5q0 57 -18.5 87t-86.5 30h-186v-226zM502 840h178q47 0 72.5 27.5t25.5 82.5 q0 53 -24.5 85t-67.5 32h-184v-227z" />
<glyph unicode="C" horiz-adv-x="1110" d="M80 678q0 295 52 450.5t163 215t307 59.5q201 0 438 -62l-10 -286q-186 26 -302 26h-9q-109 0 -166 -33.5t-78.5 -106.5t-21.5 -206q0 -68 2 -104q6 -152 24.5 -219.5t65.5 -92t151 -24.5q141 0 334 22l6 -294q-221 -49 -403 -50q-223 0 -343 76t-165 226.5t-45 402.5z " />
<glyph unicode="D" horiz-adv-x="1296" d="M137 0v1376h445q262 0 392 -47t187.5 -189.5t57.5 -437.5q0 -266 -44.5 -411.5t-180.5 -218t-412 -72.5h-445zM502 317h78q116 0 171.5 46.5t72 132.5t16.5 243q0 127 -18.5 193.5t-74 96.5t-167.5 30h-78v-742z" />
<glyph unicode="E" horiz-adv-x="1136" d="M137 0v1376h926v-317h-561v-215h438v-312h-438v-215h561v-317h-926z" />
<glyph unicode="F" horiz-adv-x="1093" d="M137 0v1376h916v-317h-551v-314h438v-317h-438v-428h-365z" />
<glyph unicode="G" horiz-adv-x="1245" d="M76 698q0 258 57 412t181 223.5t331 69.5q190 0 422 -43l76 -17l-8 -278q-213 16 -377 16q-143 0 -210 -58t-82 -149.5t-15 -252.5q0 -133 19 -203t71.5 -99.5t152.5 -29.5h88v155h-53v316h414v-742q-328 -45 -484 -45q-225 0 -351 74t-179 230.5t-53 420.5z" />
<glyph unicode="H" horiz-adv-x="1388" d="M137 0v1376h365v-526h383v526h368v-1376h-368v535h-383v-535h-365z" />
<glyph unicode="I" horiz-adv-x="641" d="M137 0v1376h365v-1376h-365z" />
<glyph unicode="J" horiz-adv-x="636" d="M41 -141v315q39 0 71.5 27.5t32.5 66.5v1108h365l2 -1114q0 -143 -42 -230t-144.5 -130t-284.5 -43z" />
<glyph unicode="K" horiz-adv-x="1247" d="M137 0v1376h365v-571l151 18l148 553h416l-242 -686l242 -690h-420l-148 506l-147 -17v-489h-365z" />
<glyph unicode="L" horiz-adv-x="956" d="M137 0v1376h365v-1054h436v-322h-801z" />
<glyph unicode="M" horiz-adv-x="1781" d="M137 0v1376h613l141 -819l141 819h613v-1376h-365v963h-23l-190 -895h-352l-193 895h-20v-963h-365z" />
<glyph unicode="N" horiz-adv-x="1441" d="M137 0v1376h598l203 -1018v1018h369v-1376h-584l-221 1051v-1051h-365z" />
<glyph unicode="O" horiz-adv-x="1325" d="M72 682q0 373 137 547t453 174q315 0 452 -174t137 -545q0 -354 -135 -532.5t-454 -178.5q-314 0 -452 170t-138 539zM449 682q0 -193 40.5 -293t172.5 -100q79 0 125.5 40t66.5 125t20 230q0 217 -47 310t-165 93q-117 0 -165 -94t-48 -311z" />
<glyph unicode="P" horiz-adv-x="1200" d="M137 0v1376h508q256 0 390 -127t134 -375t-135 -382t-389 -134h-143v-358h-365zM502 668h141q156 0 156 206q0 104 -38 148.5t-118 44.5h-141v-399z" />
<glyph unicode="Q" horiz-adv-x="1325" d="M72 682q0 373 137 547t453 174q315 0 452 -175t137 -550q0 -203 -53 -353.5t-149 -234.5l168 -270l-332 -154l-187 305h2q-2 0 -12 1t-26 1q-213 0 -342.5 75t-188.5 230.5t-59 403.5zM449 678q0 -127 14 -209t60 -131t139 -49q79 0 125.5 39t66.5 124t20 230 q0 219 -47 312t-165 93q-117 0 -165 -95t-48 -314z" />
<glyph unicode="R" horiz-adv-x="1275" d="M137 0v1376h551q258 0 388 -120.5t130 -356.5t-168 -395l150 -504h-400l-100 416h-186v-416h-365zM502 727h192q66 0 101.5 50t35.5 122q0 70 -39.5 119t-103.5 49h-186v-340z" />
<glyph unicode="S" horiz-adv-x="1116" d="M61 967q0 215 131.5 325.5t356.5 110.5q92 0 175 -12.5t304 -53.5l-29 -282q-258 30 -400 30h-9q-168 0 -168 -92q0 -31 41 -52t129 -54q90 -33 117 -45q135 -55 208.5 -107.5t106.5 -126t33 -186.5q0 -143 -66.5 -244.5t-180.5 -154t-255 -52.5q-176 1 -401 60l-74 16 l37 279q270 -37 418 -37q159 0 159 109q0 40 -35.5 62.5t-105.5 49.5q-45 16 -66 27q-231 78 -328.5 178t-97.5 252z" />
<glyph unicode="T" horiz-adv-x="1077" d="M27 1055v321h1024v-321h-326v-1055h-369v1055h-329z" />
<glyph unicode="U" horiz-adv-x="1353" d="M123 498v878h366v-884q0 -203 191 -203q92 0 137 52t45 151v884h369v-878q0 -268 -136.5 -396.5t-416.5 -128.5q-281 0 -418 128t-137 397z" />
<glyph unicode="V" horiz-adv-x="1263" d="M23 1376h385l186 -1059h76l186 1059h385l-291 -1376h-637z" />
<glyph unicode="W" horiz-adv-x="1964" d="M25 1376h385l125 -1067h12l223 1075h424l223 -1075h13l124 1067h388l-252 -1376h-521l-186 958l-186 -958h-523z" />
<glyph unicode="X" horiz-adv-x="1179" d="M4 0l377 649l-377 727h404l192 -448l199 448h375l-377 -704l377 -672h-404l-192 410l-199 -410h-375z" />
<glyph unicode="Y" horiz-adv-x="1167" d="M-14 1376h403l193 -483l192 483h404l-410 -835v-541h-367v541z" />
<glyph unicode="Z" horiz-adv-x="1083" d="M82 2v285l475 741v31h-475v317h922v-286l-476 -740v-33h476v-315h-922z" />
<glyph unicode="[" horiz-adv-x="761" d="M125 -252v1786h573v-317h-211v-1151h211v-318h-573z" />
<glyph unicode="\" horiz-adv-x="1103" d="M68 1341l299 138l671 -1454l-305 -129z" />
<glyph unicode="]" horiz-adv-x="761" d="M66 66h208v1151h-208v317h573v-1786h-573v318z" />
<glyph unicode="^" d="M-8 633l409 719h299l402 -719h-369l-178 377l-195 -377h-368z" />
<glyph unicode="_" horiz-adv-x="1253" d="M188 -123h877v-299h-877v299z" />
<glyph unicode="`" horiz-adv-x="591" d="M-57 1255l102 306l565 -215l-73 -228z" />
<glyph unicode="a" horiz-adv-x="1060" d="M45 326q0 170 91 238.5t296 78.5l152 8v47q0 35 -17.5 44.5t-72.5 9.5l-185 -4q-128 -6 -169 -6q-15 0 -19 1l-8 240q221 68 430 68q211 0 303 -83t92 -270v-360q2 -23 4 -50.5t8 -36.5t23 -13l-10 -265q-127 0 -189.5 11.5t-136.5 52.5q-127 -63 -256 -64 q-170 0 -253 87t-83 266zM399 322q0 -63 64 -64q32 0 100 10l21 2v142l-109 -9q-35 -4 -55.5 -24.5t-20.5 -56.5z" />
<glyph unicode="b" horiz-adv-x="1138" d="M113 6v1403h356v-401q16 6 55 19t71 18.5t71 5.5q207 0 310 -127t103 -412q0 -287 -115.5 -414t-367.5 -127q-153 0 -391 25zM469 297q47 -6 88 -6q84 0 123 47t39 168q0 227 -148 227q-47 0 -102 -4v-432z" />
<glyph unicode="c" horiz-adv-x="927" d="M59 512q0 219 55.5 337t154 160t251.5 42q61 0 137 -12.5t199 -41.5l-8 -278q-190 14 -238 14q-80 0 -120.5 -19.5t-55 -64.5t-14.5 -131q0 -92 15.5 -140t56 -67.5t118.5 -19.5l236 14l10 -280q-231 -51 -371 -52q-217 0 -321.5 131.5t-104.5 407.5z" />
<glyph unicode="d" horiz-adv-x="1150" d="M61 500q0 285 100.5 418t299.5 133q43 0 95 -8.5t69 -10.5q16 -4 31.5 -6t27.5 -4v387h356v-1409h-354v25q-84 -35 -130 -43.5t-95 -8.5q-213 0 -306.5 132.5t-93.5 394.5zM420 502q0 -123 29.5 -167t99.5 -44q4 0 17.5 -2t31.5 -2q25 0 66 6l20 -2v436q-90 16 -149 16 q-55 0 -85 -54t-30 -187z" />
<glyph unicode="e" horiz-adv-x="1050" d="M57 489q0 281 118 421.5t360 140.5q223 0 342.5 -115t119.5 -336l-28 -240h-553q6 -37 23.5 -53t48 -19t104.5 -3t175 4t138 8l56 6l4 -256q-227 -74 -439 -74q-245 0 -357 121t-112 395zM414 627h235q0 80 -24.5 107.5t-94.5 27.5t-92 -27.5t-24 -107.5z" />
<glyph unicode="f" horiz-adv-x="765" d="M68 723v301h98v14q0 152 29.5 238t97 123t188.5 37l250 -21l-4 -301q-106 10 -154 10q-23 0 -37 -32.5t-14 -55.5v-12h215v-301h-215v-723h-356v723h-98z" />
<glyph unicode="g" horiz-adv-x="1120" d="M57 -205q0 63 37 128t103 118q-88 61 -88 154q0 35 16 67.5t70 108.5q-61 61 -93 131.5t-32 163.5q0 193 126 285.5t332 92.5q82 0 207 -26l346 12v-278l-125 18q20 -47 24.5 -64.5t4.5 -56.5q0 -186 -110.5 -266t-331.5 -80q-59 0 -86 8q-10 -20 -11 -55q0 -29 35 -37 t129 -12q172 -6 272.5 -27.5t156 -83t55.5 -184.5q0 -195 -138.5 -286t-406.5 -91q-215 0 -353.5 60.5t-138.5 199.5zM408 -143q0 -12 47 -21.5t116 -9.5q78 0 121 12t43 31q0 35 -59 35q-20 0 -39 -2t-35 -2q-12 0 -18 2l-160 16q-2 -18 -8 -36.5t-8 -24.5zM426 674 q0 -45 29.5 -75t76.5 -30q48 0 76.5 30t28.5 73q0 45 -28.5 72.5t-78.5 27.5q-47 0 -75.5 -26.5t-28.5 -71.5z" />
<glyph unicode="h" horiz-adv-x="1155" d="M113 0v1409h356v-428q68 39 117 54.5t114 15.5q184 0 267.5 -125t83.5 -361v-565h-355v557q0 86 -25.5 131t-90.5 45q-45 0 -93 -10l-18 -4v-719h-356z" />
<glyph unicode="i" horiz-adv-x="583" d="M113 0v1024h356v-1024h-356zM113 0zM115 1090v342h356v-342h-356z" />
<glyph unicode="j" horiz-adv-x="585" d="M-49 -221q78 59 111.5 96t43 75t9.5 113v961h356v-963q0 -152 -31.5 -240.5t-110.5 -155t-239 -146.5zM0 0zM117 1090v342h356v-342h-356z" />
<glyph unicode="k" horiz-adv-x="1103" d="M113 0v1409h356v-780l68 26l141 369h397l-221 -496l236 -528h-400l-141 348l-80 -26v-322h-356z" />
<glyph unicode="l" horiz-adv-x="606" d="M125 0v1409h356v-1409h-356z" />
<glyph unicode="m" horiz-adv-x="1722" d="M113 0v1024h354v-47q74 41 118 57.5t93 16.5q61 0 127.5 -22.5t114.5 -67.5q106 51 181 70.5t150 19.5q195 0 282 -119t87 -367v-565h-356v553q0 86 -23.5 133t-81.5 47q-4 0 -24.5 -1t-65.5 -9l-25 -4l-4 -191v-528h-356v524q0 84 -8 127t-31.5 62.5t-73.5 19.5 q-37 0 -86 -10h-16v-723h-356z" />
<glyph unicode="n" horiz-adv-x="1155" d="M113 0v1024h354v-47q66 41 117 57.5t110 16.5q188 0 272.5 -126t84.5 -360v-565h-357v553q0 94 -27.5 137t-101.5 43h-22.5t-59.5 -10h-14v-723h-356z" />
<glyph unicode="o" horiz-adv-x="1095" d="M55 520q0 154 59.5 273.5t170 188.5t262.5 69t263.5 -68t170.5 -187.5t59 -275.5q0 -160 -60 -283.5t-173 -193.5t-260 -70q-148 0 -259.5 70t-172 194.5t-60.5 282.5zM414 520q0 -123 40 -185.5t93 -62.5t94 62.5t41 185.5q0 113 -39 172.5t-96 59.5t-95 -59.5 t-38 -172.5z" />
<glyph unicode="p" horiz-adv-x="1136" d="M113 -414v1438h354v-43q78 47 119 58.5t88 11.5q203 0 302 -133.5t99 -423.5q0 -197 -49 -310.5t-149.5 -162t-266.5 -48.5q-72 0 -141 13v-400h-356zM469 285q37 -4 94 -4q86 0 119 49t33 168q0 121 -33 178t-117 57l-22 2q-25 0 -60 -12l-14 -4v-434z" />
<glyph unicode="q" horiz-adv-x="1134" d="M61 524q0 209 51.5 321.5t163 159t310.5 46.5l438 -31v-1434h-356v434q-82 -31 -117 -39t-90 -8q-205 0 -302.5 126t-97.5 425zM416 522q0 -125 34.5 -178t106.5 -53q57 0 90 4h21v444q-31 4 -78 4q-98 0 -136 -48t-38 -173z" />
<glyph unicode="r" horiz-adv-x="796" d="M113 0v1024h354v-88q178 92 295 115v-359q-63 -14 -158 -26q-16 -2 -102 -17l-33 -6v-643h-356z" />
<glyph unicode="s" horiz-adv-x="976" d="M61 696q0 168 113 260.5t301 92.5q125 0 340 -48l74 -12l-4 -293q-264 33 -350 33q-59 0 -90 -4t-31 -18q0 -16 33.5 -26.5t109.5 -21.5l76 -12q154 -29 218 -103.5t64 -221.5q0 -348 -421 -349q-148 0 -347 41l-67 15l8 293q244 -31 354 -31q121 0 121 18 q0 10 -24.5 18.5t-79.5 16.5l-92 16q-158 27 -232 99.5t-74 236.5z" />
<glyph unicode="t" horiz-adv-x="763" d="M41 723v301h104v266h357v-266h203v-301h-203v-373q0 -57 40 -57h5l139 -2l12 -281q-88 -23 -130 -30t-91 -7q-127 0 -198.5 40t-102.5 126t-31 234v350h-104z" />
<glyph unicode="u" horiz-adv-x="1163" d="M102 485v539h357v-547q0 -84 6 -119.5t28.5 -51t73.5 -15.5q43 0 127 10v723h355v-1024h-351v47q-88 -45 -140 -59.5t-105 -14.5q-195 0 -273 124t-78 388z" />
<glyph unicode="v" horiz-adv-x="1042" d="M16 1024h369l115 -723h45l121 723h358l-217 -1024h-574z" />
<glyph unicode="w" horiz-adv-x="1595" d="M39 1024h348l72 -723h59l96 703h365l98 -703h58l71 723h348l-161 -1024h-545l-51 510l-49 -510h-547z" />
<glyph unicode="x" horiz-adv-x="1001" d="M18 0l252 516l-252 508h375l107 -262l110 262h377l-268 -498l268 -526h-375l-112 256l-107 -256h-375z" />
<glyph unicode="y" horiz-adv-x="1046" d="M20 1024h349l139 -723h35l137 723h348l-315 -1438h-346l100 414h-221z" />
<glyph unicode="z" horiz-adv-x="927" d="M82 0v317l336 390h-336v317h760v-317l-334 -390h334v-317h-760z" />
<glyph unicode="{" horiz-adv-x="751" d="M23 508v270q113 27 174 71t61 101l-14 260q0 133 41 208t136 109t263 40v-301q-55 -8 -75.5 -27.5t-20.5 -56.5l14 -271q0 -90 -16.5 -137t-66.5 -75.5t-157 -53.5q102 -23 154.5 -56.5t71 -86.5t18.5 -148l-14 -239q0 -43 17.5 -67.5t66.5 -29.5l4 -301 q-162 7 -257 41.5t-137 108.5t-42 199l14 245q0 68 -60.5 118t-174.5 79z" />
<glyph unicode="|" horiz-adv-x="600" d="M123 -414v1823h356v-1823h-356z" />
<glyph unicode="}" horiz-adv-x="751" d="M68 1266v301q168 -6 263 -40t136 -109t41 -208l-14 -260q0 -57 61 -101t174 -71v-270q-115 -29 -175 -79t-60 -118l14 -245q0 -125 -42 -199t-137.5 -108.5t-256.5 -41.5l4 301q49 4 66.5 29t17.5 68l-15 239q0 94 18.5 147.5t71 87.5t154.5 56q-106 25 -156.5 53.5 t-66.5 75.5t-16 137l14 271q0 37 -20.5 56t-75.5 28z" />
<glyph unicode="~" d="M117 592q129 104 262 104q61 0 213 -34q156 -33 201 -33q76 0 180 49l35 18l12 -282q-25 -31 -99.5 -66t-129.5 -35q-64 0 -228 33q-162 33 -205 33q-37 0 -96 -17.5t-92 -35.5l-35 -15z" />
<glyph unicode="&#xa1;" horiz-adv-x="589" d="M102 -352l37 833h310l40 -833h-387zM102 627v397h381v-397h-381z" />
<glyph unicode="&#xa2;" d="M162 514q0 201 97 318.5t284 136.5v184h286v-192l132 -29l-11 -260l-264 2q-76 0 -121 -40t-45 -120q0 -84 49 -125t154 -41l227 4l8 -258q-41 -20 -129 -31v-208h-286v194q-182 16 -281.5 139t-99.5 326z" />
<glyph unicode="&#xa3;" d="M147 0v299h136v309h-127v301h127v125q0 190 87 266t277 76q150 0 297 -45l45 -14l-12 -273q-123 12 -277 13q-23 0 -44 -15.5t-21 -19.5v-113h289v-301h-289v-309h213l129 33l55 -295l-166 -37h-719z" />
<glyph unicode="&#xa4;" d="M23 207l151 151q-27 74 -27 160q0 80 27 154l-151 153l241 242l152 -154q80 29 159 29q74 0 154 -29l154 154l241 -242l-153 -153q29 -80 28 -154q0 -80 -28 -160l153 -151l-241 -242l-154 154q-80 -29 -154 -29q-76 0 -157 29l-154 -154zM436 516q0 -51 43 -94t94 -43 q56 0 97 41t41 96t-41 96t-97 41q-55 0 -96 -41t-41 -96z" />
<glyph unicode="&#xa5;" d="M-14 1352h405l184 -353l185 353h405l-256 -496h119v-293h-266v-35h264v-292h-264v-236h-367v236h-276v292h276v35h-274v293h123z" />
<glyph unicode="&#xa6;" horiz-adv-x="608" d="M127 367h356v-781h-356v781zM127 649v760h356v-760h-356z" />
<glyph unicode="&#xa7;" horiz-adv-x="1083" d="M55 379q0 68 40 151.5t100 133.5q-90 66 -91 217q0 408 480 407q150 0 315 -43l62 -14l-17 -283q-227 33 -340 33q-72 0 -103.5 -7t-41.5 -26.5t-10 -62.5q0 -14 35.5 -25.5t113.5 -28.5q102 -23 129 -32q123 -35 183.5 -71t83 -89t22.5 -152q0 -147 -111 -301 q47 -45 63.5 -88t16.5 -147q0 -145 -48 -231.5t-152.5 -125t-278.5 -38.5q-94 0 -332 45l-65 10l34 283q221 -31 330 -31q96 0 135 13t39 44q0 35 -47 53q-63 25 -231 76q-129 37 -194.5 75t-92.5 96.5t-27 158.5zM414 446q0 -41 7 -51t46 -28q55 -25 162 -58q18 25 22 43.5 t4 39v28.5q0 27 -11 43t-22.5 26.5t-13.5 12.5q6 2 -90 25.5t-92 19.5q-12 -12 -12 -101z" />
<glyph unicode="&#xa8;" horiz-adv-x="591" d="M-86 1186v327h338v-327h-338zM379 1186v327h336v-327h-336z" />
<glyph unicode="&#xa9;" horiz-adv-x="1314" d="M76 895q0 170 74.5 304t210 210t305.5 76q168 0 298 -79t201.5 -216t71.5 -307q0 -168 -72.5 -303.5t-203 -211t-297.5 -75.5q-168 0 -302.5 79t-210 216t-75.5 307zM227 889q0 -123 57.5 -226.5t156 -165t218.5 -61.5q121 0 218.5 60.5t152.5 163t55 225.5t-56 227.5 t-154.5 165.5t-217.5 61q-178 0 -303 -131q-127 -133 -127 -319zM403 893q0 135 30 209t91.5 103.5t169.5 29.5q76 0 148 -33l20 -6l-18 -221q-68 12 -111 12q-41 0 -51 -15.5t-10 -68.5q0 -49 13 -82t26 -33l133 7l18 -209q-49 -45 -200 -45q-134 0 -196.5 76.5 t-62.5 275.5z" />
<glyph unicode="&#xaa;" horiz-adv-x="718" d="M33 965q0 94 60.5 131t195.5 41l96 4v10q0 20 -49 20l-273 -14l-4 168q141 39 297 39q154 0 224.5 -46t70.5 -149v-211q12 -8 33 -10l-4 -160q-88 -12 -119 -12q-78 0 -137 39q-72 -39 -166 -39q-225 1 -225 189zM301 971q0 -23 33 -23q28 1 51 17v41l-37 -2 q-47 -4 -47 -33z" />
<glyph unicode="&#xab;" horiz-adv-x="1314" d="M76 365v245l502 365v-357l-203 -126l203 -150v-354zM717 365v245l502 365v-357l-203 -126l203 -150v-354z" />
<glyph unicode="&#xac;" d="M106 438v318h904v-561h-314v243h-590z" />
<glyph unicode="&#xad;" horiz-adv-x="794" d="M98 373v319h596v-319h-596z" />
<glyph unicode="&#xae;" horiz-adv-x="1314" d="M76 891q0 170 74.5 306t209 212t302.5 76t299 -80t203.5 -217t72.5 -305q0 -170 -70.5 -304.5t-199.5 -210t-299 -75.5t-305.5 76.5t-211 213t-75.5 308.5zM227 887q0 -121 58.5 -224.5t158 -165t218.5 -61.5q116 0 213.5 61.5t153.5 165t56 226.5q0 121 -56 224.5 t-154.5 164.5t-217.5 61q-125 0 -223 -64.5t-152.5 -169t-54.5 -218.5zM395 557v662h314q102 0 167.5 -57.5t65.5 -153.5q0 -98 -11 -143.5t-48 -88.5l65 -219h-258l-28 172h-19v-172h-248zM641 907h16q45 0 45 66q0 63 -34 63h-27v-129z" />
<glyph unicode="&#xaf;" horiz-adv-x="591" d="M2 1186v260h604v-260h-604z" />
<glyph unicode="&#xb0;" d="M256 1083q0 143 88 231.5t229 88.5t229.5 -88t88.5 -232q0 -141 -88 -228t-230 -87q-143 0 -230 86t-87 229zM442 1083q0 -57 37 -94t94 -37q60 0 98 37t38 94q0 59 -38 98.5t-98 39.5q-66 0 -98.5 -40t-32.5 -98z" />
<glyph unicode="&#xb1;" d="M96 12v318h955v-318h-955zM96 522v316h318v196h315v-196h322v-316h-322v-168h-315v168h-318z" />
<glyph unicode="&#xb2;" horiz-adv-x="573" d="M31 979v231l129 84q88 57 88 80q-4 0 -18.5 1t-41.5 1l-143 -8l-12 260q201 14 284 14q221 0 222 -180q0 -98 -23.5 -144t-83.5 -81l-45 -12h148v-246h-504z" />
<glyph unicode="&#xb3;" horiz-adv-x="716" d="M68 920l6 206q139 -12 188 -12q63 0 84 5t21 36q0 35 -64 37h-168v209h158q63 0 63 37t-82 37l-194 -11l-6 203q150 33 235 33q180 0 257 -50.5t77 -174.5q0 -63 -16.5 -98.5t-57.5 -63.5q47 -37 65.5 -71t18.5 -93q0 -143 -74.5 -202.5t-240.5 -59.5q-98 -1 -227 24z " />
<glyph unicode="&#xb4;" horiz-adv-x="548" d="M-18 1346l565 215l100 -306l-592 -137z" />
<glyph unicode="&#xb5;" d="M100 -414v1438h355v-631q4 -53 23.5 -77.5t72.5 -24.5q10 0 43 -1t78 11h20v723h355v-1024h-353v47q-135 -74 -235 -74q8 0 7 -4t-11 -10v-373h-355z" />
<glyph unicode="&#xb6;" horiz-adv-x="1234" d="M47 952q0 125 48 221.5t135 149.5t204 53h680v-301h-24v-1075h-295v1075h-54v-1075h-299v535h-14q-174 0 -277.5 115.5t-103.5 301.5z" />
<glyph unicode="&#xb7;" horiz-adv-x="577" d="M100 258v410h379v-410h-379z" />
<glyph unicode="&#xb8;" horiz-adv-x="542" d="M45 -498l10 201q25 -2 46.5 -1t27.5 1q70 0 70 37q0 29 -70 29h-25v233h125v-61q145 -4 207 -46t62 -161q0 -125 -66.5 -192.5t-185.5 -67.5q-82 0 -170 20z" />
<glyph unicode="&#xb9;" horiz-adv-x="573" d="M-10 1458l225 160h246v-639h-275v336l-67 -45z" />
<glyph unicode="&#xba;" horiz-adv-x="915" d="M63 967q0 188 99.5 285.5t296.5 97.5t295 -96.5t98 -286.5q0 -383 -393 -383q-396 0 -396 383zM379 969q0 -57 17.5 -83t62.5 -26q47 0 60 22.5t13 86.5q0 63 -13 85.5t-60 22.5t-63.5 -24.5t-16.5 -83.5z" />
<glyph unicode="&#xbb;" horiz-adv-x="1323" d="M96 -12v354l203 150l-203 126v357l504 -365v-245zM737 -12v354l203 150l-203 126v357l504 -365v-245z" />
<glyph unicode="&#xbc;" horiz-adv-x="1220" d="M-459 61l680 1092v162l-67 -45l-129 188l225 160h246v-639h-205l-623 -1008zM635 2l94 434h272l-135 -407h52v94l253 33v-127h25v-195h-25v-84h-253v84h-283v168z" />
<glyph unicode="&#xbd;" horiz-adv-x="1181" d="M-459 61l680 1092v162l-67 -45l-129 188l225 160h246v-639h-205l-623 -1008zM639 27l129 84q88 57 88 79q-4 0 -18.5 1.5t-40.5 1.5l-144 -9l-12 260q201 14 285 15q221 0 221 -180q0 -98 -23.5 -144.5t-83.5 -81.5l-45 -12h148v-246h-504v232z" />
<glyph unicode="&#xbe;" horiz-adv-x="1363" d="M-459 61l807 1295l125 -84l-805 -1301zM0 0zM62 2l94 434h272l-135 -407h51v94l254 33v-127h25v-195h-25v-84h-254v84h-282v168zM715 920l6 206q139 -12 188 -12q63 0 84 5t21 36q0 35 -64 37h-168v209h158q63 0 63 37t-82 37l-194 -11l-6 203q150 33 235 33 q180 0 257 -50.5t77 -174.5q0 -63 -16.5 -98.5t-57.5 -63.5q47 -37 65.5 -71t18.5 -93q0 -143 -74.5 -202.5t-240.5 -59.5q-98 -1 -227 24z" />
<glyph unicode="&#xbf;" horiz-adv-x="876" d="M47 -68q0 123 12.5 190.5t44 113t99.5 92.5q63 39 97 76.5t34 93.5v57h280q88 -80 88 -227q0 -18 -24.5 -51t-61.5 -58q-4 -4 -45 -33q-82 -59 -117.5 -96t-35.5 -80q0 -35 28.5 -55.5t79.5 -20.5q139 0 281 25l16 -262q-156 -78 -393 -78q-186 0 -284.5 81t-98.5 232z M295 627v397h379v-397h-379z" />
<glyph unicode="&#xc0;" horiz-adv-x="1241" d="M25 0l264 1376h663l265 -1376h-369l-27 176h-401l-27 -176h-368zM25 0zM262 1634l105 320l565 -225l-80 -244zM481 492h279l-94 585h-91z" />
<glyph unicode="&#xc1;" horiz-adv-x="1241" d="M25 0l264 1376h663l265 -1376h-369l-27 176h-401l-27 -176h-368zM25 0zM299 1729l565 225l104 -320l-589 -149zM481 492h279l-94 585h-91z" />
<glyph unicode="&#xc2;" horiz-adv-x="1241" d="M25 0l264 1376h663l265 -1376h-369l-27 176h-401l-27 -176h-368zM25 0zM188 1532l275 323h311l274 -323h-370l-56 82l-63 -82h-371zM481 492h279l-94 585h-91z" />
<glyph unicode="&#xc3;" horiz-adv-x="1241" d="M25 0l264 1376h663l265 -1376h-369l-27 176h-401l-27 -176h-368zM25 0zM174 1747q47 57 117.5 98t138.5 41q63 0 192 -41t150 -41q51 0 149 62l31 18l76 -254q-2 -2 -79 -70.5t-173 -68.5q-58 0 -191 41l-51 14q-96 29 -110 29q-49 0 -146 -62l-28 -16zM481 492h279 l-94 585h-91z" />
<glyph unicode="&#xc4;" horiz-adv-x="1241" d="M25 0l264 1376h663l265 -1376h-369l-27 176h-401l-27 -176h-368zM25 0zM223 1505v328h336v-328h-336zM481 492h279l-94 585h-91zM682 1505v328h338v-328h-338z" />
<glyph unicode="&#xc5;" horiz-adv-x="1241" d="M25 0l260 1358q-12 41 -13 86q0 137 99.5 212t249.5 75q152 0 252 -75t100 -212q0 -49 -17 -94l261 -1350h-369l-27 176h-401l-27 -176h-368zM481 492h279l-94 585h-91zM504 1444q0 -31 34.5 -48.5t82.5 -17.5q47 0 81.5 17.5t34.5 48.5q0 33 -33.5 50t-82.5 17 q-46 0 -81.5 -18t-35.5 -49z" />
<glyph unicode="&#xc6;" horiz-adv-x="1777" d="M14 0l322 1405h1366v-350h-561v-174h438v-349h-438v-182h561v-350h-922v158h-383l-20 -158h-363zM483 510h297l2 545h-192z" />
<glyph unicode="&#xc7;" horiz-adv-x="1110" d="M80 678q0 295 52 450.5t163 215t307 59.5q201 0 438 -62l-10 -286q-193 27 -311 26q-109 0 -166 -33.5t-78.5 -106.5t-21.5 -206q0 -68 2 -104q6 -152 24.5 -219.5t65.5 -92t151 -24.5q141 0 334 22l6 -294q-217 -50 -399 -50v-32q145 -4 206.5 -46t61.5 -161 q0 -125 -66.5 -192.5t-185.5 -67.5q-82 0 -170 20l-30 8l10 201q25 -2 46 -1t28 1q70 0 69 37q0 29 -69 29h-25v211q-174 20 -267 102t-129 224.5t-36 371.5z" />
<glyph unicode="&#xc8;" horiz-adv-x="1136" d="M137 0v1376h926v-317h-561v-215h438v-312h-438v-215h561v-317h-926zM137 0zM243 1634l105 320l565 -225l-80 -244z" />
<glyph unicode="&#xc9;" horiz-adv-x="1136" d="M137 0v1376h926v-317h-561v-215h438v-312h-438v-215h561v-317h-926zM137 0zM287 1729l565 225l104 -320l-589 -149z" />
<glyph unicode="&#xca;" horiz-adv-x="1136" d="M137 0v1376h926v-317h-561v-215h438v-312h-438v-215h561v-317h-926zM137 0zM184 1532l275 323h311l274 -323h-370l-56 82l-63 -82h-371z" />
<glyph unicode="&#xcb;" horiz-adv-x="1136" d="M137 0v1376h926v-317h-561v-215h438v-312h-438v-215h561v-317h-926zM137 0zM206 1505v328h336v-328h-336zM665 1505v328h338v-328h-338z" />
<glyph unicode="&#xcc;" horiz-adv-x="641" d="M-56 1634l105 320l565 -225l-80 -244zM0 0zM137 0v1376h365v-1376h-365z" />
<glyph unicode="&#xcd;" horiz-adv-x="641" d="M8 0zM8 1729l565 225l104 -320l-589 -149zM137 0v1376h365v-1376h-365z" />
<glyph unicode="&#xce;" horiz-adv-x="641" d="M-107 1532l275 323h311l274 -323h-370l-56 82l-63 -82h-371zM0 0zM137 0v1376h365v-1376h-365z" />
<glyph unicode="&#xcf;" horiz-adv-x="641" d="M-74 1505v328h336v-328h-336zM0 0zM137 0v1376h365v-1376h-365zM385 1505v328h338v-328h-338z" />
<glyph unicode="&#xd0;" horiz-adv-x="1308" d="M57 520v352h93v533h438q270 0 404 -60.5t183.5 -203t49.5 -416.5q0 -276 -44 -425.5t-179.5 -224.5t-413.5 -75h-438v520h-93zM510 348h78q119 0 164 12.5t70.5 90t25.5 268.5l2 82q2 25 2 65q0 68 -18.5 108t-76 61.5t-169.5 21.5h-78v-185h227v-352h-227v-172z" />
<glyph unicode="&#xd1;" horiz-adv-x="1441" d="M137 0v1376h598l203 -1018v1018h369v-1376h-584l-221 1051v-1051h-365zM137 0zM281 1747q47 57 117.5 98t138.5 41q63 0 192 -41t150 -41q51 0 149 62l31 18l76 -254q-2 -2 -79 -70.5t-173 -68.5q-58 0 -191 41l-51 14q-96 29 -110 29q-49 0 -146 -62l-28 -16z" />
<glyph unicode="&#xd2;" horiz-adv-x="1325" d="M72 0zM72 682q0 373 137 547t453 174q315 0 452 -174t137 -545q0 -354 -135 -532.5t-454 -178.5q-314 0 -452 170t-138 539zM280 1634l105 320l565 -225l-80 -244zM449 682q0 -193 40.5 -293t172.5 -100q79 0 125.5 40t66.5 125t20 230q0 217 -47 310t-165 93 q-117 0 -165 -94t-48 -311z" />
<glyph unicode="&#xd3;" horiz-adv-x="1325" d="M72 0zM72 682q0 373 137 547t453 174q315 0 452 -174t137 -545q0 -354 -135 -532.5t-454 -178.5q-314 0 -452 170t-138 539zM301 1729l565 225l104 -320l-589 -149zM449 682q0 -193 40.5 -293t172.5 -100q79 0 125.5 40t66.5 125t20 230q0 217 -47 310t-165 93 q-117 0 -165 -94t-48 -311z" />
<glyph unicode="&#xd4;" horiz-adv-x="1325" d="M72 0zM72 682q0 373 137 547t453 174q315 0 452 -174t137 -545q0 -354 -135 -532.5t-454 -178.5q-314 0 -452 170t-138 539zM237 1532l275 323h311l274 -323h-370l-56 82l-63 -82h-371zM449 682q0 -193 40.5 -293t172.5 -100q79 0 125.5 40t66.5 125t20 230 q0 217 -47 310t-165 93q-117 0 -165 -94t-48 -311z" />
<glyph unicode="&#xd5;" horiz-adv-x="1325" d="M72 0zM72 682q0 373 137 547t453 174q315 0 452 -174t137 -545q0 -354 -135 -532.5t-454 -178.5q-314 0 -452 170t-138 539zM238 1747q47 57 117.5 98t138.5 41q63 0 192 -41t150 -41q51 0 149 62l31 18l76 -254q-2 -2 -79 -70.5t-173 -68.5q-58 0 -191 41l-51 14 q-96 29 -110 29q-49 0 -146 -62l-28 -16zM449 682q0 -193 40.5 -293t172.5 -100q79 0 125.5 40t66.5 125t20 230q0 217 -47 310t-165 93q-117 0 -165 -94t-48 -311z" />
<glyph unicode="&#xd6;" horiz-adv-x="1325" d="M72 0zM72 682q0 373 137 547t453 174q315 0 452 -174t137 -545q0 -354 -135 -532.5t-454 -178.5q-314 0 -452 170t-138 539zM268 1505v328h336v-328h-336zM449 682q0 -193 40.5 -293t172.5 -100q79 0 125.5 40t66.5 125t20 230q0 217 -47 310t-165 93q-117 0 -165 -94 t-48 -311zM727 1505v328h338v-328h-338z" />
<glyph unicode="&#xd7;" horiz-adv-x="1142" d="M137 254l258 258l-258 258l225 225l259 -258l258 258l225 -225l-258 -258l258 -258l-225 -225l-258 258l-259 -258z" />
<glyph unicode="&#xd8;" horiz-adv-x="1325" d="M72 678q0 375 137 550t453 175q94 0 174 -12l131 282l262 -112l-142 -306q164 -172 164 -577q0 -362 -138 -533.5t-451 -171.5q-90 0 -164 11l-119 -258l-258 131l119 252q-80 80 -124 225t-44 344zM430 514l264 576l-32 -3q-113 0 -163 -91t-50 -246q0 -145 -19 -236z M637 285l25 4q212 -1 212 323q0 145 19 226z" />
<glyph unicode="&#xd9;" horiz-adv-x="1353" d="M123 0zM123 498v878h366v-884q0 -203 191 -203q92 0 137 52t45 151v884h369v-878q0 -268 -136.5 -396.5t-416.5 -128.5q-281 0 -418 128t-137 397zM329 1634l105 320l565 -225l-80 -244z" />
<glyph unicode="&#xda;" horiz-adv-x="1353" d="M123 0zM123 498v878h366v-884q0 -203 191 -203q92 0 137 52t45 151v884h369v-878q0 -268 -136.5 -396.5t-416.5 -128.5q-281 0 -418 128t-137 397zM326 1729l565 225l104 -320l-589 -149z" />
<glyph unicode="&#xdb;" horiz-adv-x="1353" d="M123 0zM123 498v878h366v-884q0 -203 191 -203q92 0 137 52t45 151v884h369v-878q0 -268 -136.5 -396.5t-416.5 -128.5q-281 0 -418 128t-137 397zM250 1532l275 323h311l274 -323h-370l-56 82l-63 -82h-371z" />
<glyph unicode="&#xdc;" horiz-adv-x="1353" d="M123 0zM123 498v878h366v-884q0 -203 191 -203q92 0 137 52t45 151v884h369v-878q0 -268 -136.5 -396.5t-416.5 -128.5q-281 0 -418 128t-137 397zM282 1505v328h336v-328h-336zM741 1505v328h338v-328h-338z" />
<glyph unicode="&#xdd;" horiz-adv-x="1167" d="M-14 1376h403l193 -483l192 483h404l-410 -835v-541h-367v541zM0 0zM228 1729l565 225l104 -320l-589 -149z" />
<glyph unicode="&#xde;" horiz-adv-x="1216" d="M137 0v1405h365v-182h143q262 0 395.5 -129t133.5 -381q0 -256 -137.5 -398.5t-391.5 -142.5h-143v-172h-365zM502 528h141q74 0 118 51.5t44 133.5q0 76 -43 118.5t-119 42.5h-141v-346z" />
<glyph unicode="&#xdf;" horiz-adv-x="1302" d="M113 0v1038q0 209 120.5 303.5t389.5 94.5q272 0 402 -80t130 -258q0 -72 -20.5 -116t-58.5 -71.5t-111 -60.5q-80 -35 -110 -54.5t-30 -52.5q0 -37 74 -78.5t129 -52.5q96 -43 147.5 -80.5t74 -87t22.5 -127.5q0 -137 -40 -210.5t-129 -103.5t-247 -30q-119 0 -293 45 l-53 13l8 278q217 -25 291 -24q37 0 67.5 -3t30.5 -8q0 20 -24.5 32.5t-75.5 27.5q-68 23 -82 28q-113 43 -175.5 104.5t-80.5 149.5v-616h-356zM469 809q12 72 50 116t110 72l73 27q49 14 69 25.5t20 29.5q0 31 -37 39t-74 7t-47 -1q-164 0 -164 -84v-231z" />
<glyph unicode="&#xe0;" horiz-adv-x="1060" d="M45 0zM45 326q0 170 91 238.5t296 78.5l152 8v47q0 35 -17.5 44.5t-72.5 9.5l-185 -4q-176 -8 -188 -5l-8 240q221 68 430 68q211 0 303 -83t92 -270v-360q2 -23 4 -50.5t8 -36.5t23 -13l-10 -265q-127 0 -189.5 11.5t-136.5 52.5q-127 -63 -256 -64q-170 0 -253 87 t-83 266zM187 1255l102 306l565 -215l-73 -228zM399 322q0 -63 64 -64q32 0 100 10l21 2v142l-109 -9q-35 -4 -55.5 -24.5t-20.5 -56.5z" />
<glyph unicode="&#xe1;" horiz-adv-x="1060" d="M45 0zM45 326q0 170 91 238.5t296 78.5l152 8v47q0 35 -17.5 44.5t-72.5 9.5l-185 -4q-176 -8 -188 -5l-8 240q221 68 430 68q211 0 303 -83t92 -270v-360q2 -23 4 -50.5t8 -36.5t23 -13l-10 -265q-127 0 -189.5 11.5t-136.5 52.5q-127 -63 -256 -64q-170 0 -253 87 t-83 266zM166 1346l565 215l100 -306l-592 -137zM399 322q0 -63 64 -64q32 0 100 10l21 2v142l-109 -9q-35 -4 -55.5 -24.5t-20.5 -56.5z" />
<glyph unicode="&#xe2;" horiz-adv-x="1060" d="M45 0zM45 326q0 170 91 238.5t296 78.5l152 8v47q0 35 -17.5 44.5t-72.5 9.5l-185 -4q-176 -8 -188 -5l-8 240q221 68 430 68q211 0 303 -83t92 -270v-360q2 -23 4 -50.5t8 -36.5t23 -13l-10 -265q-127 0 -189.5 11.5t-136.5 52.5q-127 -63 -256 -64q-170 0 -253 87 t-83 266zM154 1171l262 324h217l266 -324h-317l-58 111l-53 -111h-317zM399 322q0 -63 64 -64q32 0 100 10l21 2v142l-109 -9q-35 -4 -55.5 -24.5t-20.5 -56.5z" />
<glyph unicode="&#xe3;" horiz-adv-x="1060" d="M45 0zM45 326q0 170 91 238.5t296 78.5l152 8v47q0 35 -17.5 44.5t-72.5 9.5l-185 -4q-176 -8 -188 -5l-8 240q221 68 430 68q211 0 303 -83t92 -270v-360q2 -23 4 -50.5t8 -36.5t23 -13l-10 -265q-127 0 -189.5 11.5t-136.5 52.5q-127 -63 -256 -64q-170 0 -253 87 t-83 266zM78 1360q37 45 111 89t121 44q49 0 135 -31q84 -29 110 -28q63 0 148 45l28 18l76 -194q-8 -14 -51 -50t-94 -64t-92 -28q-46 0 -138 29q-86 31 -112 31q-61 0 -139 -39l-27 -13zM399 322q0 -63 64 -64q32 0 100 10l21 2v142l-109 -9q-35 -4 -55.5 -24.5 t-20.5 -56.5z" />
<glyph unicode="&#xe4;" horiz-adv-x="1060" d="M45 0zM45 326q0 170 91 238.5t296 78.5l152 8v47q0 35 -17.5 44.5t-72.5 9.5l-185 -4q-176 -8 -188 -5l-8 240q221 68 430 68q211 0 303 -83t92 -270v-360q2 -23 4 -50.5t8 -36.5t23 -13l-10 -265q-127 0 -189.5 11.5t-136.5 52.5q-127 -63 -256 -64q-170 0 -253 87 t-83 266zM78 1186v327h338v-327h-338zM399 322q0 -63 64 -64q32 0 100 10l21 2v142l-109 -9q-35 -4 -55.5 -24.5t-20.5 -56.5zM543 1186v327h336v-327h-336z" />
<glyph unicode="&#xe5;" horiz-adv-x="1060" d="M45 326q0 170 91 238.5t296 78.5l152 8v47q0 35 -17.5 44.5t-72.5 9.5l-185 -4q-176 -8 -188 -5l-8 240q199 59 372 66q-84 23 -137 90t-53 157q0 111 75.5 184.5t186.5 73.5t186.5 -73.5t75.5 -184.5q0 -92 -55 -159.5t-143 -87.5q168 -14 242.5 -98.5t74.5 -252.5v-360 q2 -23 4 -50.5t8 -36.5t23 -13l-10 -265q-127 0 -189.5 11.5t-136.5 52.5q-127 -63 -256 -64q-170 0 -253 87t-83 266zM399 322q0 -63 64 -64q33 0 100 10l21 2v142l-109 -9q-35 -4 -55.5 -24.5t-20.5 -56.5zM479 1296q0 -35 21.5 -55t56.5 -20t56.5 20.5t21.5 54.5 q0 35 -21.5 55.5t-56.5 20.5t-56.5 -20.5t-21.5 -55.5z" />
<glyph unicode="&#xe6;" horiz-adv-x="1579" d="M45 326q0 158 90 235.5t256 81.5l193 8v29q0 8 -19.5 18.5t-50.5 10.5q-143 0 -317 -17l-68 -6l-10 307q295 55 459 56q133 0 231 -27q109 27 246 27q227 0 346 -115t119 -334l-29 -242h-553q2 -33 38 -46t109 -13q164 0 345 14l57 4l4 -270q-233 -74 -447 -74 q-213 0 -321 90l-35 -18q-162 -72 -297 -72q-178 0 -262 92.5t-84 260.5zM399 334q0 -27 11.5 -42.5t31.5 -15.5q7 0 18 -4t34 -4q33 0 92 8l-2 109l-109 4q-33 0 -54.5 -15.5t-21.5 -39.5zM938 627h233q0 61 -25.5 83.5t-96.5 22.5q-68 0 -89.5 -23.5t-21.5 -82.5z" />
<glyph unicode="&#xe7;" horiz-adv-x="927" d="M59 512q0 219 55.5 337t154 160t251.5 42q61 0 137 -12.5t199 -41.5l-8 -278q-190 14 -238 14q-80 0 -120.5 -19.5t-55 -64.5t-14.5 -131q0 -92 15.5 -140t56 -67.5t118.5 -19.5l236 14l10 -280q-201 -44 -326 -50v-34q145 -4 207 -46t62 -161q0 -125 -66.5 -192.5 t-185.5 -67.5q-82 0 -170 20l-31 8l10 201q25 -2 46.5 -1t27.5 1q70 0 70 37q0 29 -70 29h-24v208q-176 23 -261.5 154t-85.5 381z" />
<glyph unicode="&#xe8;" horiz-adv-x="1050" d="M57 0zM57 489q0 281 118 421.5t360 140.5q223 0 342.5 -115t119.5 -336l-28 -240h-553q6 -37 23.5 -53t48 -19t104.5 -3t175 4t138 8l56 6l4 -256q-227 -74 -439 -74q-245 0 -357 121t-112 395zM209 1255l102 306l565 -215l-73 -228zM414 627h235q0 80 -24.5 107.5 t-94.5 27.5t-92 -27.5t-24 -107.5z" />
<glyph unicode="&#xe9;" horiz-adv-x="1050" d="M57 0zM57 489q0 281 118 421.5t360 140.5q223 0 342.5 -115t119.5 -336l-28 -240h-553q6 -37 23.5 -53t48 -19t104.5 -3t175 4t138 8l56 6l4 -256q-227 -74 -439 -74q-245 0 -357 121t-112 395zM160 1346l565 215l100 -306l-592 -137zM414 627h235q0 80 -24.5 107.5 t-94.5 27.5t-92 -27.5t-24 -107.5z" />
<glyph unicode="&#xea;" horiz-adv-x="1050" d="M57 0zM57 489q0 281 118 421.5t360 140.5q223 0 342.5 -115t119.5 -336l-28 -240h-553q6 -37 23.5 -53t48 -19t104.5 -3t175 4t138 8l56 6l4 -256q-227 -74 -439 -74q-245 0 -357 121t-112 395zM152 1171l262 324h217l266 -324h-317l-58 111l-53 -111h-317zM414 627h235 q0 80 -24.5 107.5t-94.5 27.5t-92 -27.5t-24 -107.5z" />
<glyph unicode="&#xeb;" horiz-adv-x="1050" d="M57 0zM57 489q0 281 118 421.5t360 140.5q223 0 342.5 -115t119.5 -336l-28 -240h-553q6 -37 23.5 -53t48 -19t104.5 -3t175 4t138 8l56 6l4 -256q-227 -74 -439 -74q-245 0 -357 121t-112 395zM123 1186v327h338v-327h-338zM414 627h235q0 80 -24.5 107.5t-94.5 27.5 t-92 -27.5t-24 -107.5zM588 1186v327h336v-327h-336z" />
<glyph unicode="&#xec;" horiz-adv-x="583" d="M-120 1255l102 306l565 -215l-73 -228zM0 0zM113 0v1024h356v-1024h-356z" />
<glyph unicode="&#xed;" horiz-adv-x="583" d="M53 0zM54 1346l565 215l100 -306l-592 -137zM113 0v1024h356v-1024h-356z" />
<glyph unicode="&#xee;" horiz-adv-x="583" d="M-96 1171l262 324h217l266 -324h-317l-58 111l-53 -111h-317zM0 0zM113 0v1024h356v-1024h-356z" />
<glyph unicode="&#xef;" horiz-adv-x="583" d="M-121 1186v327h338v-327h-338zM0 0zM113 0v1024h356v-1024h-356zM344 1186v327h336v-327h-336z" />
<glyph unicode="&#xf0;" horiz-adv-x="1187" d="M72 451q0 172 71.5 283.5t214.5 152.5l-139 192l129 86l-198 27l40 244q270 -2 478 -60l188 127l139 -196l-80 -52q209 -167 209 -538q0 -377 -132 -556t-423 -179q-256 0 -376.5 113.5t-120.5 355.5zM362 887q70 20 168 20q121 0 195 -24l23 -9q-14 80 -36 121t-81 72z M449 451q0 -82 28.5 -117t83.5 -35q88 0 137.5 69.5t49.5 202.5q-41 25 -201 25q-45 0 -71.5 -45t-26.5 -100z" />
<glyph unicode="&#xf1;" horiz-adv-x="1155" d="M113 0v1024h354v-47q66 41 117 57.5t110 16.5q188 0 272.5 -126t84.5 -360v-565h-357v553q0 94 -27.5 137t-101.5 43h-22.5t-59.5 -10h-14v-723h-356zM113 0zM215 1360q37 45 111 89t121 44q49 0 135 -31q84 -29 110 -28q63 0 148 45l28 18l76 -194q-8 -14 -51 -50 t-94 -64t-92 -28q-46 0 -138 29q-86 31 -112 31q-61 0 -139 -39l-27 -13z" />
<glyph unicode="&#xf2;" horiz-adv-x="1095" d="M55 0zM55 520q0 154 59.5 273.5t170 188.5t262.5 69t263.5 -68t170.5 -187.5t59 -275.5q0 -160 -60 -283.5t-173 -193.5t-260 -70q-148 0 -259.5 70t-172 194.5t-60.5 282.5zM228 1255l102 306l565 -215l-73 -228zM414 520q0 -123 40 -185.5t93 -62.5t94 62.5t41 185.5 q0 113 -39 172.5t-96 59.5t-95 -59.5t-38 -172.5z" />
<glyph unicode="&#xf3;" horiz-adv-x="1095" d="M55 0zM55 520q0 154 59.5 273.5t170 188.5t262.5 69t263.5 -68t170.5 -187.5t59 -275.5q0 -160 -60 -283.5t-173 -193.5t-260 -70q-148 0 -259.5 70t-172 194.5t-60.5 282.5zM187 1346l565 215l100 -306l-592 -137zM414 520q0 -123 40 -185.5t93 -62.5t94 62.5t41 185.5 q0 113 -39 172.5t-96 59.5t-95 -59.5t-38 -172.5z" />
<glyph unicode="&#xf4;" horiz-adv-x="1095" d="M55 0zM55 520q0 154 59.5 273.5t170 188.5t262.5 69t263.5 -68t170.5 -187.5t59 -275.5q0 -160 -60 -283.5t-173 -193.5t-260 -70q-148 0 -259.5 70t-172 194.5t-60.5 282.5zM158 1171l262 324h217l266 -324h-317l-58 111l-53 -111h-317zM414 520q0 -123 40 -185.5 t93 -62.5t94 62.5t41 185.5q0 113 -39 172.5t-96 59.5t-95 -59.5t-38 -172.5z" />
<glyph unicode="&#xf5;" horiz-adv-x="1095" d="M55 0zM55 520q0 154 59.5 273.5t170 188.5t262.5 69t263.5 -68t170.5 -187.5t59 -275.5q0 -160 -60 -283.5t-173 -193.5t-260 -70q-148 0 -259.5 70t-172 194.5t-60.5 282.5zM166 1360q37 45 111 89t121 44q49 0 135 -31q84 -29 110 -28q63 0 148 45l28 18l76 -194 q-8 -14 -51 -50t-94 -64t-92 -28q-46 0 -138 29q-86 31 -112 31q-61 0 -139 -39l-27 -13zM414 520q0 -123 40 -185.5t93 -62.5t94 62.5t41 185.5q0 113 -39 172.5t-96 59.5t-95 -59.5t-38 -172.5z" />
<glyph unicode="&#xf6;" horiz-adv-x="1095" d="M55 0zM55 520q0 154 59.5 273.5t170 188.5t262.5 69t263.5 -68t170.5 -187.5t59 -275.5q0 -160 -60 -283.5t-173 -193.5t-260 -70q-148 0 -259.5 70t-172 194.5t-60.5 282.5zM147 1186v327h338v-327h-338zM414 520q0 -123 40 -185.5t93 -62.5t94 62.5t41 185.5 q0 113 -39 172.5t-96 59.5t-95 -59.5t-38 -172.5zM612 1186v327h336v-327h-336z" />
<glyph unicode="&#xf7;" horiz-adv-x="1126" d="M88 348v348h950v-348h-950zM358 20v287h410v-287h-410zM358 737v287h410v-287h-410z" />
<glyph unicode="&#xf8;" horiz-adv-x="1095" d="M55 508q0 254 120 398.5t372 144.5q41 0 90 -7l78 201l209 -78l-82 -192q198 -131 198 -467q0 -252 -133 -393.5t-360 -141.5q-68 0 -111 9l-82 -197l-204 78l88 203q-86 66 -134.5 180t-48.5 262zM414 508l2 -37l106 279q-59 -10 -83.5 -71t-24.5 -171zM549 272 q63 2 98 61.5t35 145.5q0 89 8 146z" />
<glyph unicode="&#xf9;" horiz-adv-x="1163" d="M102 0zM102 485v539h357v-547q0 -84 6 -119.5t28.5 -51t73.5 -15.5q43 0 127 10v723h355v-1024h-351v47q-88 -45 -140 -59.5t-105 -14.5q-195 0 -273 124t-78 388zM179 1255l102 306l565 -215l-73 -228z" />
<glyph unicode="&#xfa;" horiz-adv-x="1163" d="M102 0zM102 485v539h357v-547q0 -84 6 -119.5t28.5 -51t73.5 -15.5q43 0 127 10v723h355v-1024h-351v47q-88 -45 -140 -59.5t-105 -14.5q-195 0 -273 124t-78 388zM232 1346l565 215l100 -306l-592 -137z" />
<glyph unicode="&#xfb;" horiz-adv-x="1163" d="M102 0zM102 485v539h357v-547q0 -84 6 -119.5t28.5 -51t73.5 -15.5q43 0 127 10v723h355v-1024h-351v47q-88 -45 -140 -59.5t-105 -14.5q-195 0 -273 124t-78 388zM138 1171l262 324h217l266 -324h-317l-58 111l-53 -111h-317z" />
<glyph unicode="&#xfc;" horiz-adv-x="1163" d="M102 0zM102 485v539h357v-547q0 -84 6 -119.5t28.5 -51t73.5 -15.5q43 0 127 10v723h355v-1024h-351v47q-88 -45 -140 -59.5t-105 -14.5q-195 0 -273 124t-78 388zM182 1186v327h338v-327h-338zM647 1186v327h336v-327h-336z" />
<glyph unicode="&#xfd;" horiz-adv-x="1046" d="M20 0zM20 1024h349l139 -723h35l137 723h348l-315 -1438h-346l100 414h-221zM207 1346l565 215l100 -306l-592 -137z" />
<glyph unicode="&#xfe;" horiz-adv-x="1136" d="M113 -414v1823h356v-401q117 43 168 43q152 0 248 -51.5t144 -171t48 -322.5t-50 -319.5t-149.5 -165t-263.5 -48.5l-145 17v-404h-356zM469 293q66 -12 117 -12q71 0 102 54t31 191q0 88 -38 147.5t-95 59.5q-70 0 -97 -4h-20v-436z" />
<glyph unicode="&#xff;" horiz-adv-x="1046" d="M20 0zM20 1024h349l139 -723h35l137 723h348l-315 -1438h-346l100 414h-221zM127 1186v327h338v-327h-338zM592 1186v327h336v-327h-336z" />
<glyph unicode="&#x100;" horiz-adv-x="1241" d="M25 0l264 1376h663l265 -1376h-369l-27 176h-401l-27 -176h-368zM25 0zM232 1561v256h760v-256h-760zM481 492h279l-94 585h-91z" />
<glyph unicode="&#x101;" horiz-adv-x="1060" d="M45 0zM45 326q0 170 91 238.5t296 78.5l152 8v47q0 35 -17.5 44.5t-72.5 9.5l-185 -4q-176 -8 -188 -5l-8 240q221 68 430 68q211 0 303 -83t92 -270v-360q2 -23 4 -50.5t8 -36.5t23 -13l-10 -265q-127 0 -189.5 11.5t-136.5 52.5q-127 -63 -256 -64q-170 0 -253 87 t-83 266zM213 1186v260h604v-260h-604zM399 322q0 -63 64 -64q32 0 100 10l21 2v142l-109 -9q-35 -4 -55.5 -24.5t-20.5 -56.5z" />
<glyph unicode="&#x102;" horiz-adv-x="1241" d="M25 0l264 1376h663l265 -1376h-369l-27 176h-401l-27 -176h-368zM25 0zM188 1853h320q25 -92 102 -92q41 0 67.5 25.5t37.5 66.5h317q-55 -338 -424 -337q-365 -1 -420 337zM481 492h279l-94 585h-91z" />
<glyph unicode="&#x103;" horiz-adv-x="1060" d="M45 332q0 164 91 234.5t294 80.5l154 4v29q0 6 -19.5 17.5t-32.5 11.5q-127 0 -315 -7l-86 -2l-10 299l76 11q246 39 356 39q197 0 291 -84t94 -281v-297l-2 -70q0 -25 6 -33t29 -12l-13 -299q-98 0 -150 5.5t-86 17.5t-85 41l-45 -14q-80 -29 -127 -39.5t-98 -10.5 q-158 0 -240 93.5t-82 265.5zM76 1552h368q10 -27 27.5 -37t50.5 -10q31 0 46.5 10.5t23.5 36.5h371q-53 -362 -445 -362q-389 0 -442 362zM399 334q0 -31 10.5 -44.5t32.5 -13.5q29 1 142 11v98l-109 4q-76 0 -76 -55z" />
<glyph unicode="&#x104;" horiz-adv-x="1241" d="M25 0l264 1376h663l265 -1376h-50q-98 -59 -98 -133q0 -33 11.5 -45t41.5 -12l76 4l31 -244q-150 -27 -242 -27q-106 0 -175 57.5t-69 147.5q0 84 38 153.5t85 98.5h-18l-27 176h-401l-27 -176h-368zM481 492h279l-94 585h-91z" />
<glyph unicode="&#x105;" horiz-adv-x="1060" d="M45 326q0 170 91 238.5t296 78.5l152 8v47q0 35 -17.5 44.5t-72.5 9.5l-185 -4q-176 -8 -188 -5l-8 240q221 68 430 68q211 0 303 -83t92 -270v-360q2 -23 4 -50.5t8 -36.5t23 -13l-10 -265q-63 0 -91 2q-61 -53 -61 -108q0 -33 11.5 -45t41.5 -12l76 4l31 -244 q-150 -27 -242 -27q-106 0 -175 57.5t-69 147.5q0 84 38 152.5t85 99.5l39 27h10l-20 10q-127 -63 -256 -64q-170 0 -253 87t-83 266zM399 322q0 -63 64 -64q33 0 100 10l21 2v142l-109 -9q-35 -4 -55.5 -24.5t-20.5 -56.5z" />
<glyph unicode="&#x106;" horiz-adv-x="1110" d="M80 0zM80 678q0 295 52 450.5t163 215t307 59.5q201 0 438 -62l-10 -286q-193 27 -311 26q-109 0 -166 -33.5t-78.5 -106.5t-21.5 -206q0 -68 2 -104q6 -152 24.5 -219.5t65.5 -92t151 -24.5q141 0 334 22l6 -294q-221 -49 -403 -50q-223 0 -343 76t-165 226.5t-45 402.5 zM256 1729l565 225l104 -320l-589 -149z" />
<glyph unicode="&#x107;" horiz-adv-x="927" d="M59 0zM59 512q0 219 55.5 337t154 160t251.5 42q61 0 137 -12.5t199 -41.5l-8 -278q-190 14 -238 14q-80 0 -120.5 -19.5t-55 -64.5t-14.5 -131q0 -92 15.5 -140t56 -67.5t118.5 -19.5l236 14l10 -280q-231 -51 -371 -52q-217 0 -321.5 131.5t-104.5 407.5zM160 1346 l565 215l100 -306l-592 -137z" />
<glyph unicode="&#x108;" horiz-adv-x="1110" d="M80 0zM80 678q0 295 52 450.5t163 215t307 59.5q201 0 438 -62l-10 -286q-193 27 -311 26q-109 0 -166 -33.5t-78.5 -106.5t-21.5 -206q0 -68 2 -104q6 -152 24.5 -219.5t65.5 -92t151 -24.5q141 0 334 22l6 -294q-221 -49 -403 -50q-223 0 -343 76t-165 226.5t-45 402.5 zM168 1532l275 323h311l274 -323h-370l-56 82l-63 -82h-371z" />
<glyph unicode="&#x109;" horiz-adv-x="927" d="M59 0zM59 512q0 219 55.5 337t154 160t251.5 42q61 0 137 -12.5t199 -41.5l-8 -278q-190 14 -238 14q-80 0 -120.5 -19.5t-55 -64.5t-14.5 -131q0 -92 15.5 -140t56 -67.5t118.5 -19.5l236 14l10 -280q-231 -51 -371 -52q-217 0 -321.5 131.5t-104.5 407.5zM72 1171 l262 324h217l266 -324h-317l-58 111l-53 -111h-317z" />
<glyph unicode="&#x10a;" horiz-adv-x="1110" d="M80 0zM80 678q0 295 52 450.5t163 215t307 59.5q201 0 438 -62l-10 -286q-193 27 -311 26q-109 0 -166 -33.5t-78.5 -106.5t-21.5 -206q0 -68 2 -104q6 -152 24.5 -219.5t65.5 -92t151 -24.5q141 0 334 22l6 -294q-221 -49 -403 -50q-223 0 -343 76t-165 226.5t-45 402.5 zM400 1499v342h356v-342h-356z" />
<glyph unicode="&#x10b;" horiz-adv-x="927" d="M59 0zM59 512q0 219 55.5 337t154 160t251.5 42q61 0 137 -12.5t199 -41.5l-8 -278q-190 14 -238 14q-80 0 -120.5 -19.5t-55 -64.5t-14.5 -131q0 -92 15.5 -140t56 -67.5t118.5 -19.5l236 14l10 -280q-231 -51 -371 -52q-217 0 -321.5 131.5t-104.5 407.5zM355 1067v342 h356v-342h-356z" />
<glyph unicode="&#x10c;" horiz-adv-x="1110" d="M80 0zM80 678q0 295 52 450.5t163 215t307 59.5q201 0 438 -62l-10 -286q-193 27 -311 26q-109 0 -166 -33.5t-78.5 -106.5t-21.5 -206q0 -68 2 -104q6 -152 24.5 -219.5t65.5 -92t151 -24.5q141 0 334 22l6 -294q-221 -49 -403 -50q-223 0 -343 76t-165 226.5t-45 402.5 zM208 1855h369l66 -81l55 81h369l-275 -323h-309z" />
<glyph unicode="&#x10d;" horiz-adv-x="927" d="M59 0zM59 512q0 219 55.5 337t154 160t251.5 42q61 0 137 -12.5t199 -41.5l-8 -278q-190 14 -238 14q-80 0 -120.5 -19.5t-55 -64.5t-14.5 -131q0 -92 15.5 -140t56 -67.5t118.5 -19.5l236 14l10 -280q-231 -51 -371 -52q-217 0 -321.5 131.5t-104.5 407.5zM125 1495h317 l56 -109l57 109h317l-268 -324h-217z" />
<glyph unicode="&#x10e;" horiz-adv-x="1296" d="M137 0v1376h445q262 0 392 -47t187.5 -189.5t57.5 -437.5q0 -266 -44.5 -411.5t-180.5 -218t-412 -72.5h-445zM137 0zM208 1855h369l66 -81l55 81h369l-275 -323h-309zM502 317h78q116 0 171.5 46.5t72 132.5t16.5 243q0 127 -18.5 193.5t-74 96.5t-167.5 30h-78v-742z " />
<glyph unicode="&#x10f;" horiz-adv-x="1150" d="M61 0zM61 500q0 285 100.5 418t299.5 133q43 0 95 -8.5t69 -10.5q16 -4 31.5 -6t27.5 -4v387h356v-1409h-354v25q-84 -35 -130 -43.5t-95 -8.5q-213 0 -306.5 132.5t-93.5 394.5zM420 502q0 -123 29.5 -167t99.5 -44q4 0 17.5 -2t31.5 -2q25 0 66 6l20 -2v436 q-90 16 -149 16q-55 0 -85 -54t-30 -187zM1151 866l102 516h342l-119 -516h-325z" />
<glyph unicode="&#x110;" horiz-adv-x="1308" d="M57 520v352h93v533h438q270 0 404 -60.5t183.5 -203t49.5 -416.5q0 -276 -44 -425.5t-179.5 -224.5t-413.5 -75h-438v520h-93zM510 348h78q119 0 164 12.5t70.5 90t25.5 268.5l2 82q2 25 2 65q0 68 -18.5 108t-76 61.5t-169.5 21.5h-78v-185h227v-352h-227v-172z" />
<glyph unicode="&#x111;" horiz-adv-x="1167" d="M33 516q0 545 452 545l166 -12v67h-125v219h125v78h459v-78h82v-219h-82v-1116h-453l-4 45q-115 -72 -215 -72q-219 0 -312 134.5t-93 408.5zM496 518q0 -88 19.5 -131t72.5 -43l63 6v334q-47 6 -65 6q-53 0 -71.5 -41t-18.5 -131z" />
<glyph unicode="&#x112;" horiz-adv-x="1136" d="M137 0v1376h926v-317h-561v-215h438v-312h-438v-215h561v-317h-926zM137 0zM207 1561v256h760v-256h-760z" />
<glyph unicode="&#x113;" horiz-adv-x="1050" d="M57 0zM57 489q0 281 118 421.5t360 140.5q223 0 342.5 -115t119.5 -336l-28 -240h-553q6 -37 23.5 -53t48 -19t104.5 -3t175 4t138 8l56 6l4 -256q-227 -74 -439 -74q-245 0 -357 121t-112 395zM217 1186v260h604v-260h-604zM414 627h235q0 80 -24.5 107.5t-94.5 27.5 t-92 -27.5t-24 -107.5z" />
<glyph unicode="&#x114;" horiz-adv-x="1136" d="M137 0v1376h926v-317h-561v-215h438v-312h-438v-215h561v-317h-926zM137 0zM188 1853h320q25 -92 102 -92q41 0 67.5 25.5t37.5 66.5h317q-55 -338 -424 -337q-365 -1 -420 337z" />
<glyph unicode="&#x115;" horiz-adv-x="1050" d="M57 0zM57 489q0 281 118 421.5t360 140.5q223 0 342.5 -115t119.5 -336l-28 -240h-553q6 -37 23.5 -53t48 -19t104.5 -3t175 4t138 8l56 6l4 -256q-227 -74 -439 -74q-245 0 -357 121t-112 395zM174 1501h262q8 -53 33.5 -81.5t60.5 -28.5q41 0 63.5 24.5t35.5 85.5h260 q-27 -152 -120 -249t-239 -97q-145 0 -237 97.5t-119 248.5zM414 627h235q0 80 -24.5 107.5t-94.5 27.5t-92 -27.5t-24 -107.5z" />
<glyph unicode="&#x116;" horiz-adv-x="1136" d="M137 0v1376h926v-317h-561v-215h438v-312h-438v-215h561v-317h-926zM137 0zM441 1524v342h356v-342h-356z" />
<glyph unicode="&#x117;" horiz-adv-x="1050" d="M57 0zM57 489q0 281 118 421.5t360 140.5q223 0 342.5 -115t119.5 -336l-28 -240h-553q6 -37 23.5 -53t48 -19t104.5 -3t175 4t138 8l56 6l4 -256q-227 -74 -439 -74q-245 0 -357 121t-112 395zM352 1067v342h356v-342h-356zM414 627h235q0 80 -24.5 107.5t-94.5 27.5 t-92 -27.5t-24 -107.5z" />
<glyph unicode="&#x118;" horiz-adv-x="1136" d="M137 0v1376h926v-317h-561v-215h438v-312h-438v-215h561v-317h-53q-98 -59 -99 -133q0 -33 11.5 -45t42.5 -12l75 4l31 -244q-150 -27 -242 -27q-106 0 -174.5 57.5t-68.5 147.5q0 84 38 153.5t85 98.5h-572z" />
<glyph unicode="&#x119;" horiz-adv-x="1050" d="M57 489q0 281 118 421.5t360 140.5q223 0 342.5 -115t119.5 -336l-28 -240h-553q6 -37 23.5 -53t48 -19t104.5 -3t175 4t138 8l56 6l4 -256q-82 -29 -160 -43l20 -2q-102 -59 -102 -135q0 -33 11 -45t42 -12l76 4l31 -244q-150 -27 -242 -27q-106 0 -175 57.5t-69 147.5 q0 68 27 128.5t63 96.5q-225 10 -327.5 131t-102.5 385zM414 627h235q0 80 -24.5 107.5t-94.5 27.5t-92 -27.5t-24 -107.5z" />
<glyph unicode="&#x11a;" horiz-adv-x="1136" d="M129 0zM129 1855h369l66 -81l55 81h369l-275 -323h-309zM137 0v1376h926v-317h-561v-215h438v-312h-438v-215h561v-317h-926z" />
<glyph unicode="&#x11b;" horiz-adv-x="1050" d="M57 0zM57 489q0 281 118 421.5t360 140.5q223 0 342.5 -115t119.5 -336l-28 -240h-553q6 -37 23.5 -53t48 -19t104.5 -3t175 4t138 8l56 6l4 -256q-227 -74 -439 -74q-245 0 -357 121t-112 395zM148 1495h317l56 -109l57 109h317l-268 -324h-217zM414 627h235 q0 80 -24.5 107.5t-94.5 27.5t-92 -27.5t-24 -107.5z" />
<glyph unicode="&#x11c;" horiz-adv-x="1245" d="M76 0zM76 698q0 258 57 412t181 223.5t331 69.5q190 0 422 -43l76 -17l-8 -278q-213 16 -377 16q-143 0 -210 -58t-82 -149.5t-15 -252.5q0 -133 19 -203t71.5 -99.5t152.5 -29.5h88v155h-53v316h414v-742q-328 -45 -484 -45q-225 0 -351 74t-179 230.5t-53 420.5z M252 1532l275 323h311l274 -323h-370l-56 82l-63 -82h-371z" />
<glyph unicode="&#x11d;" horiz-adv-x="1120" d="M57 0zM57 -205q0 63 37 128t103 118q-88 61 -88 154q0 35 16 67.5t70 108.5q-61 61 -93 131.5t-32 163.5q0 193 126 285.5t332 92.5q82 0 207 -26l346 12v-278l-125 18q20 -47 24.5 -64.5t4.5 -56.5q0 -186 -110.5 -266t-331.5 -80q-59 0 -86 8q-10 -20 -11 -55 q0 -29 35 -37t129 -12q172 -6 272.5 -27.5t156 -83t55.5 -184.5q0 -195 -138.5 -286t-406.5 -91q-215 0 -353.5 60.5t-138.5 199.5zM199 1171l262 324h217l266 -324h-317l-58 111l-53 -111h-317zM408 -143q0 -12 47 -21.5t116 -9.5q78 0 121 12t43 31q0 35 -59 35 q-20 0 -39 -2t-35 -2q-12 0 -18 2l-160 16q-2 -18 -8 -36.5t-8 -24.5zM426 674q0 -45 29.5 -75t76.5 -30q48 0 76.5 30t28.5 73q0 45 -28.5 72.5t-78.5 27.5q-47 0 -75.5 -26.5t-28.5 -71.5z" />
<glyph unicode="&#x11e;" horiz-adv-x="1245" d="M76 0zM76 698q0 258 57 412t181 223.5t331 69.5q190 0 422 -43l76 -17l-8 -278q-213 16 -377 16q-143 0 -210 -58t-82 -149.5t-15 -252.5q0 -133 19 -203t71.5 -99.5t152.5 -29.5h88v155h-53v316h414v-742q-328 -45 -484 -45q-225 0 -351 74t-179 230.5t-53 420.5z M231 1853h320q25 -92 102 -92q41 0 67.5 25.5t37.5 66.5h317q-55 -338 -424 -337q-365 -1 -420 337z" />
<glyph unicode="&#x11f;" horiz-adv-x="1120" d="M57 0zM57 -205q0 63 37 128t103 118q-88 61 -88 154q0 35 16 67.5t70 108.5q-61 61 -93 131.5t-32 163.5q0 193 126 285.5t332 92.5q82 0 207 -26l346 12v-278l-125 18q20 -47 24.5 -64.5t4.5 -56.5q0 -186 -110.5 -266t-331.5 -80q-59 0 -86 8q-10 -20 -11 -55 q0 -29 35 -37t129 -12q172 -6 272.5 -27.5t156 -83t55.5 -184.5q0 -195 -138.5 -286t-406.5 -91q-215 0 -353.5 60.5t-138.5 199.5zM211 1501h262q8 -53 33.5 -81.5t60.5 -28.5q41 0 63.5 24.5t35.5 85.5h260q-27 -152 -120 -249t-239 -97q-145 0 -237 97.5t-119 248.5z M408 -143q0 -12 47 -21.5t116 -9.5q78 0 121 12t43 31q0 35 -59 35q-20 0 -39 -2t-35 -2q-12 0 -18 2l-160 16q-2 -18 -8 -36.5t-8 -24.5zM426 674q0 -45 29.5 -75t76.5 -30q48 0 76.5 30t28.5 73q0 45 -28.5 72.5t-78.5 27.5q-47 0 -75.5 -26.5t-28.5 -71.5z" />
<glyph unicode="&#x120;" horiz-adv-x="1245" d="M76 0zM76 698q0 258 57 412t181 223.5t331 69.5q190 0 422 -43l76 -17l-8 -278q-213 16 -377 16q-143 0 -210 -58t-82 -149.5t-15 -252.5q0 -133 19 -203t71.5 -99.5t152.5 -29.5h88v155h-53v316h414v-742q-328 -45 -484 -45q-225 0 -351 74t-179 230.5t-53 420.5z M461 1524v342h356v-342h-356z" />
<glyph unicode="&#x121;" horiz-adv-x="1120" d="M57 0zM57 -205q0 63 37 128t103 118q-88 61 -88 154q0 35 16 67.5t70 108.5q-61 61 -93 131.5t-32 163.5q0 193 126 285.5t332 92.5q82 0 207 -26l346 12v-278l-125 18q20 -47 24.5 -64.5t4.5 -56.5q0 -186 -110.5 -266t-331.5 -80q-59 0 -86 8q-10 -20 -11 -55 q0 -29 35 -37t129 -12q172 -6 272.5 -27.5t156 -83t55.5 -184.5q0 -195 -138.5 -286t-406.5 -91q-215 0 -353.5 60.5t-138.5 199.5zM391 1067v342h356v-342h-356zM408 -143q0 -12 47 -21.5t116 -9.5q78 0 121 12t43 31q0 35 -59 35q-20 0 -39 -2t-35 -2q-12 0 -18 2l-160 16 q-2 -18 -8 -36.5t-8 -24.5zM426 674q0 -45 29.5 -75t76.5 -30q48 0 76.5 30t28.5 73q0 45 -28.5 72.5t-78.5 27.5q-47 0 -75.5 -26.5t-28.5 -71.5z" />
<glyph unicode="&#x122;" horiz-adv-x="1245" d="M76 0zM76 698q0 258 57 412t181 223.5t331 69.5q190 0 422 -43l76 -17l-8 -278q-213 16 -377 16q-143 0 -210 -58t-82 -149.5t-15 -252.5q0 -133 19 -203t71.5 -99.5t152.5 -29.5h88v155h-53v316h414v-742q-328 -45 -484 -45q-225 0 -351 74t-179 230.5t-53 420.5z M396 -672l102 516h342l-119 -516h-325z" />
<glyph unicode="&#x123;" horiz-adv-x="1120" d="M57 -205q0 63 37 128t103 118q-88 61 -88 154q0 35 16 67.5t70 108.5q-61 61 -93 131.5t-32 163.5q0 193 126 285.5t332 92.5q82 0 207 -26l346 12v-278l-125 18q20 -47 24.5 -64.5t4.5 -56.5q0 -186 -110.5 -266t-331.5 -80q-59 0 -86 8q-10 -20 -11 -55q0 -29 35 -37 t129 -12q172 -6 272.5 -27.5t156 -83t55.5 -184.5q0 -195 -138.5 -286t-406.5 -91q-215 0 -353.5 60.5t-138.5 199.5zM317 1186l119 516h326l-103 -516h-342zM408 -143q0 -12 47 -21.5t116 -9.5q78 0 121 12t43 31q0 35 -59 35q-20 0 -39 -2t-35 -2q-12 0 -18 2l-160 16 q-2 -18 -8 -36.5t-8 -24.5zM426 674q0 -45 29.5 -75t76.5 -30q48 0 76.5 30t28.5 73q0 45 -28.5 72.5t-78.5 27.5q-47 0 -75.5 -26.5t-28.5 -71.5z" />
<glyph unicode="&#x124;" horiz-adv-x="1388" d="M137 0v1376h365v-526h383v526h368v-1376h-368v535h-383v-535h-365zM137 0zM264 1532l275 323h311l274 -323h-370l-56 82l-63 -82h-371z" />
<glyph unicode="&#x125;" horiz-adv-x="1155" d="M113 0v1409h356v-428q68 39 117 54.5t114 15.5q184 0 267.5 -125t83.5 -361v-565h-355v557q0 86 -25.5 131t-90.5 45q-45 0 -93 -10l-18 -4v-719h-356zM113 0zM205 1503l262 324h217l266 -324h-317l-58 111l-53 -111h-317z" />
<glyph unicode="&#x126;" horiz-adv-x="1400" d="M45 965v307h100v104h365v-104h383v104h369v-104h110v-307h-110v-965h-369v535h-383v-535h-365v965h-100zM510 850h383v115h-383v-115z" />
<glyph unicode="&#x127;" horiz-adv-x="1183" d="M-25 1116v219h82v78h459v-78h125v-219h-125v-90q150 35 219 35q152 0 238 -50t125 -164t39 -312v-535h-459v487q0 178 -78 179l-84 -13v-653h-459v1116h-82z" />
<glyph unicode="&#x128;" horiz-adv-x="641" d="M-104 1747q47 57 117.5 98t138.5 41q63 0 192 -41t150 -41q51 0 149 62l31 18l76 -254q-2 -2 -79 -70.5t-173 -68.5q-58 0 -191 41l-51 14q-96 29 -110 29q-49 0 -146 -62l-28 -16zM0 0zM137 0v1376h365v-1376h-365z" />
<glyph unicode="&#x129;" horiz-adv-x="583" d="M-66 1360q37 45 111 89t121 44q49 0 135 -31q84 -29 110 -28q63 0 148 45l28 18l76 -194q-8 -14 -51 -50t-94 -64t-92 -28q-46 0 -138 29q-86 31 -112 31q-61 0 -139 -39l-27 -13zM0 0zM113 0v1024h356v-1024h-356z" />
<glyph unicode="&#x12a;" horiz-adv-x="641" d="M-51 1561v256h760v-256h-760zM0 0zM137 0v1376h365v-1376h-365z" />
<glyph unicode="&#x12b;" horiz-adv-x="583" d="M-10 1186v260h604v-260h-604zM0 0zM113 0v1024h356v-1024h-356z" />
<glyph unicode="&#x12c;" horiz-adv-x="641" d="M-54 1853h320q25 -92 102 -92q41 0 67.5 25.5t37.5 66.5h317q-55 -338 -424 -337q-365 -1 -420 337zM0 0zM137 0v1376h365v-1376h-365z" />
<glyph unicode="&#x12d;" horiz-adv-x="583" d="M-65 1501h262q8 -53 33.5 -81.5t60.5 -28.5q41 0 63.5 24.5t35.5 85.5h260q-27 -152 -120 -249t-239 -97q-145 0 -237 97.5t-119 248.5zM0 0zM113 0v1024h356v-1024h-356z" />
<glyph unicode="&#x12e;" horiz-adv-x="641" d="M49 -252q0 84 38 152.5t85 99.5h-35v1376h365v-1376h-29q-98 -59 -98 -133q0 -33 11 -45t42 -12l76 4l31 -244q-150 -27 -242 -27q-106 0 -175 57.5t-69 147.5z" />
<glyph unicode="&#x12f;" horiz-adv-x="583" d="M16 -252q0 84 38 152.5t85 99.5h-26v1024h356v-1024h-29q-98 -59 -98 -133q0 -33 11.5 -45t41.5 -12l76 4l31 -244q-150 -27 -242 -27q-106 0 -175 57.5t-69 147.5zM115 1090v342h356v-342h-356z" />
<glyph unicode="&#x130;" horiz-adv-x="641" d="M137 0v1376h365v-1376h-365zM137 0zM144 1524v342h356v-342h-356z" />
<glyph unicode="&#x131;" horiz-adv-x="583" d="M113 0v1024h356v-1024h-356z" />
<glyph unicode="&#x134;" horiz-adv-x="636" d="M-103 1536l275 323h311l274 -323h-370l-56 82l-63 -82h-371zM0 0zM41 -141v315q39 0 71.5 27.5t32.5 66.5v1108h365l2 -1114q0 -143 -42 -230t-144.5 -130t-284.5 -43z" />
<glyph unicode="&#x135;" horiz-adv-x="585" d="M-69 1171l262 324h217l266 -324h-317l-58 111l-53 -111h-317zM-49 -221q78 59 111.5 96t43 75t9.5 113v961h356v-963q0 -152 -31.5 -240.5t-110.5 -155t-239 -146.5zM0 0z" />
<glyph unicode="&#x136;" horiz-adv-x="1247" d="M137 0v1376h365v-571l151 18l148 553h416l-242 -686l242 -690h-420l-148 506l-147 -17v-489h-365zM137 0zM375 -672l102 516h342l-119 -516h-325z" />
<glyph unicode="&#x137;" horiz-adv-x="1103" d="M-172 -672l102 516h342l-119 -516h-325zM0 0zM113 0v1409h356v-780l68 26l141 369h397l-221 -496l236 -528h-400l-141 348l-80 -26v-322h-356z" />
<glyph unicode="&#x139;" horiz-adv-x="956" d="M137 0v1376h365v-1054h436v-322h-801zM137 0zM193 1729l565 225l104 -320l-589 -149z" />
<glyph unicode="&#x13a;" horiz-adv-x="606" d="M70 0zM70 1784l565 215l100 -306l-592 -137zM125 0v1409h356v-1409h-356z" />
<glyph unicode="&#x13b;" horiz-adv-x="956" d="M137 0v1376h365v-1054h436v-322h-801zM137 0zM267 -672l102 516h342l-119 -516h-325z" />
<glyph unicode="&#x13c;" horiz-adv-x="606" d="M23 0zM23 -672l102 516h342l-119 -516h-325zM125 0v1409h356v-1409h-356z" />
<glyph unicode="&#x13d;" horiz-adv-x="1026" d="M137 0v1376h365v-1054h436v-322h-801zM631 838v567h344v-567h-344z" />
<glyph unicode="&#x13e;" horiz-adv-x="970" d="M125 0v1409h356v-1409h-356zM125 0zM584 866l102 516h342l-119 -516h-325z" />
<glyph unicode="&#x141;" horiz-adv-x="983" d="M-76 561l236 166v649h366v-395l144 104l172 -237l-316 -221v-305h435v-322h-801v369l-66 -43z" />
<glyph unicode="&#x142;" horiz-adv-x="876" d="M-4 545l254 176v688h356v-438l113 80l172 -238l-285 -201v-612h-356v362l-82 -55z" />
<glyph unicode="&#x143;" horiz-adv-x="1441" d="M137 0v1376h598l203 -1018v1018h369v-1376h-584l-221 1051v-1051h-365zM137 0zM389 1729l565 225l104 -320l-589 -149z" />
<glyph unicode="&#x144;" horiz-adv-x="1155" d="M113 0v1024h354v-47q66 41 117 57.5t110 16.5q188 0 272.5 -126t84.5 -360v-565h-357v553q0 94 -27.5 137t-101.5 43h-22.5t-59.5 -10h-14v-723h-356zM113 0zM281 1346l565 215l100 -306l-592 -137z" />
<glyph unicode="&#x145;" horiz-adv-x="1441" d="M137 0v1376h598l203 -1018v1018h369v-1376h-584l-221 1051v-1051h-365zM137 0zM477 -672l102 516h342l-119 -516h-325z" />
<glyph unicode="&#x146;" horiz-adv-x="1155" d="M-209 -672l102 516h342l-119 -516h-325zM0 0zM113 0v1024h354v-47q66 41 117 57.5t110 16.5q188 0 272.5 -126t84.5 -360v-565h-357v553q0 94 -27.5 137t-101.5 43h-22.5t-59.5 -10h-14v-723h-356z" />
<glyph unicode="&#x147;" horiz-adv-x="1441" d="M137 0v1376h598l203 -1018v1018h369v-1376h-584l-221 1051v-1051h-365zM137 0zM294 1859h369l66 -81l55 81h369l-275 -323h-309z" />
<glyph unicode="&#x148;" horiz-adv-x="1155" d="M113 0v1024h354v-47q66 41 117 57.5t110 16.5q188 0 272.5 -126t84.5 -360v-565h-357v553q0 94 -27.5 137t-101.5 43h-22.5t-59.5 -10h-14v-723h-356zM113 0zM197 1495h317l56 -109l57 109h317l-268 -324h-217z" />
<glyph unicode="&#x14a;" horiz-adv-x="1441" d="M137 0v1376h598l199 -1059h4v1059h369l-2 -1437q0 -166 -59.5 -257.5t-184.5 -123.5q-78 -23 -227 -23v315q39 0 71.5 28t32.5 65v57h-215l-213 1059h-8v-1059h-365z" />
<glyph unicode="&#x14b;" horiz-adv-x="1148" d="M111 0v1020h356v-29q166 59 223 60q182 0 271.5 -136.5t89.5 -377.5v-517q0 -162 -30 -252t-111 -153.5t-248 -136.5l-160 293q98 53 134 79.5t47 57.5t11 98v531q0 78 -26.5 133t-55.5 55q-4 0 -11 1t-19 1q-27 0 -84 -8l-31 -6v-713h-356z" />
<glyph unicode="&#x14c;" horiz-adv-x="1325" d="M72 0zM72 682q0 373 137 547t453 174q315 0 452 -174t137 -545q0 -354 -135 -532.5t-454 -178.5q-314 0 -452 170t-138 539zM271 1561v256h760v-256h-760zM449 682q0 -193 40.5 -293t172.5 -100q79 0 125.5 40t66.5 125t20 230q0 217 -47 310t-165 93q-117 0 -165 -94 t-48 -311z" />
<glyph unicode="&#x14d;" horiz-adv-x="1095" d="M55 0zM55 520q0 154 59.5 273.5t170 188.5t262.5 69t263.5 -68t170.5 -187.5t59 -275.5q0 -160 -60 -283.5t-173 -193.5t-260 -70q-148 0 -259.5 70t-172 194.5t-60.5 282.5zM256 1170v260h604v-260h-604zM414 520q0 -123 40 -185.5t93 -62.5t94 62.5t41 185.5 q0 113 -39 172.5t-96 59.5t-95 -59.5t-38 -172.5z" />
<glyph unicode="&#x14e;" horiz-adv-x="1325" d="M72 0zM72 682q0 373 137 547t453 174q315 0 452 -174t137 -545q0 -354 -135 -532.5t-454 -178.5q-314 0 -452 170t-138 539zM243 1853h320q25 -92 102 -92q41 0 67.5 25.5t37.5 66.5h317q-55 -338 -424 -337q-365 -1 -420 337zM449 682q0 -193 40.5 -293t172.5 -100 q79 0 125.5 40t66.5 125t20 230q0 217 -47 310t-165 93q-117 0 -165 -94t-48 -311z" />
<glyph unicode="&#x14f;" horiz-adv-x="1095" d="M55 0zM55 520q0 154 59.5 273.5t170 188.5t262.5 69t263.5 -68t170.5 -187.5t59 -275.5q0 -160 -60 -283.5t-173 -193.5t-260 -70q-148 0 -259.5 70t-172 194.5t-60.5 282.5zM195 1501h262q8 -53 33.5 -81.5t60.5 -28.5q41 0 63.5 24.5t35.5 85.5h260q-27 -152 -120 -249 t-239 -97q-145 0 -237 97.5t-119 248.5zM414 520q0 -123 40 -185.5t93 -62.5t94 62.5t41 185.5q0 113 -39 172.5t-96 59.5t-95 -59.5t-38 -172.5z" />
<glyph unicode="&#x150;" horiz-adv-x="1325" d="M72 0zM72 682q0 373 137 547t453 174q315 0 452 -174t137 -545q0 -354 -135 -532.5t-454 -178.5q-314 0 -452 170t-138 539zM331 1577l35 491l324 -94l-70 -477zM449 682q0 -193 40.5 -293t172.5 -100q79 0 125.5 40t66.5 125t20 230q0 217 -47 310t-165 93 q-117 0 -165 -94t-48 -311zM774 1573l35 493l319 -94l-65 -477z" />
<glyph unicode="&#x151;" horiz-adv-x="1095" d="M55 0zM55 520q0 154 59.5 273.5t170 188.5t262.5 69t263.5 -68t170.5 -187.5t59 -275.5q0 -160 -60 -283.5t-173 -193.5t-260 -70q-148 0 -259.5 70t-172 194.5t-60.5 282.5zM58 1292l200 457l299 -168l-227 -455zM414 520q0 -123 40 -185.5t93 -62.5t94 62.5t41 185.5 q0 113 -39 172.5t-96 59.5t-95 -59.5t-38 -172.5zM490 1292l200 459l299 -170l-225 -455z" />
<glyph unicode="&#x152;" horiz-adv-x="1816" d="M80 715q0 268 52 423.5t166 224.5t306 69q47 0 207 -27h930v-350h-570v-174h447v-346h-447v-185h570v-348h-926q-127 -29 -211 -29q-205 0 -317.5 73t-159.5 232.5t-47 436.5zM453 799l2 -164q0 -119 17 -181.5t63.5 -91t138.5 -28.5q18 0 137 12v717q-127 8 -197 8 q-98 0 -129.5 -68.5t-31.5 -203.5z" />
<glyph unicode="&#x153;" horiz-adv-x="1677" d="M55 510q0 250 120 394.5t372 144.5q106 0 181 -31t130 -103q57 78 124 106t167 28q231 0 350 -115t119 -334l-29 -242h-553q2 -33 39 -46t109 -13q164 0 344 14l57 4l4 -270q-233 -74 -469 -74q-182 0 -278 107q-53 -49 -137 -78t-187 -29q-223 0 -343 147.5t-120 389.5z M414 506q0 -102 33.5 -156.5t99.5 -54.5q135 0 135 215q0 113 -27.5 165t-103.5 52t-106.5 -56.5t-30.5 -164.5zM1034 627h236q0 61 -25.5 83.5t-95.5 22.5t-92.5 -22.5t-22.5 -83.5z" />
<glyph unicode="&#x154;" horiz-adv-x="1275" d="M137 0v1376h551q258 0 388 -120.5t130 -356.5t-168 -395l150 -504h-400l-100 416h-186v-416h-365zM137 0zM326 1729l565 225l104 -320l-589 -149zM502 727h192q66 0 101.5 50t35.5 122q0 70 -39.5 119t-103.5 49h-186v-340z" />
<glyph unicode="&#x155;" horiz-adv-x="796" d="M72 0zM72 1346l565 215l100 -306l-592 -137zM113 0v1024h354v-88q178 92 295 115v-359q-63 -14 -158 -26q-16 -2 -102 -17l-33 -6v-643h-356z" />
<glyph unicode="&#x156;" horiz-adv-x="1275" d="M137 0v1376h551q258 0 388 -120.5t130 -356.5t-168 -395l150 -504h-400l-100 416h-186v-416h-365zM137 0zM385 -672l102 516h342l-119 -516h-325zM502 727h192q66 0 101.5 50t35.5 122q0 70 -39.5 119t-103.5 49h-186v-340z" />
<glyph unicode="&#x157;" horiz-adv-x="796" d="M12 0zM13 -672l102 516h342l-119 -516h-325zM113 0v1024h354v-88q178 92 295 115v-359q-63 -14 -158 -26q-16 -2 -102 -17l-33 -6v-643h-356z" />
<glyph unicode="&#x158;" horiz-adv-x="1275" d="M137 0v1376h551q258 0 388 -120.5t130 -356.5t-168 -395l150 -504h-400l-100 416h-186v-416h-365zM137 0zM182 1855h369l66 -81l55 81h369l-275 -323h-309zM502 727h192q66 0 101.5 50t35.5 122q0 70 -39.5 119t-103.5 49h-186v-340z" />
<glyph unicode="&#x159;" horiz-adv-x="796" d="M-18 1495h317l56 -109l57 109h317l-268 -324h-217zM0 0zM113 0v1024h354v-88q178 92 295 115v-359q-63 -14 -158 -26q-16 -2 -102 -17l-33 -6v-643h-356z" />
<glyph unicode="&#x15a;" horiz-adv-x="1116" d="M61 0zM61 967q0 215 131.5 325.5t356.5 110.5q92 0 175 -12.5t304 -53.5l-29 -282q-266 31 -409 30q-168 0 -168 -92q0 -31 41 -52t129 -54q90 -33 117 -45q135 -55 208.5 -107.5t106.5 -126t33 -186.5q0 -143 -66.5 -244.5t-180.5 -154t-255 -52.5q-176 1 -401 60 l-74 16l37 279q270 -37 418 -37q160 0 159 110q0 39 -35.5 61.5t-105.5 49.5q-45 16 -66 27q-231 78 -328.5 178t-97.5 252zM271 1729l565 225l104 -320l-589 -149z" />
<glyph unicode="&#x15b;" horiz-adv-x="976" d="M61 0zM61 696q0 168 113 260.5t301 92.5q125 0 340 -48l74 -12l-4 -293q-264 33 -350 33q-59 0 -90 -4t-31 -18q0 -16 33.5 -26.5t109.5 -21.5l76 -12q154 -29 218 -103.5t64 -221.5q0 -348 -421 -349q-148 0 -347 41l-67 15l8 293q244 -31 354 -31q121 0 121 18 q0 10 -24.5 18.5t-79.5 16.5l-92 16q-158 27 -232 99.5t-74 236.5zM156 1346l565 215l100 -306l-592 -137z" />
<glyph unicode="&#x15c;" horiz-adv-x="1116" d="M61 0zM61 967q0 215 131.5 325.5t356.5 110.5q92 0 175 -12.5t304 -53.5l-29 -282q-266 31 -409 30q-168 0 -168 -92q0 -31 41 -52t129 -54q90 -33 117 -45q135 -55 208.5 -107.5t106.5 -126t33 -186.5q0 -143 -66.5 -244.5t-180.5 -154t-255 -52.5q-176 1 -401 60 l-74 16l37 279q270 -37 418 -37q160 0 159 110q0 39 -35.5 61.5t-105.5 49.5q-45 16 -66 27q-231 78 -328.5 178t-97.5 252zM139 1536l275 323h311l274 -323h-370l-56 82l-63 -82h-371z" />
<glyph unicode="&#x15d;" horiz-adv-x="976" d="M61 0zM61 696q0 168 113 260.5t301 92.5q125 0 340 -48l74 -12l-4 -293q-264 33 -350 33q-59 0 -90 -4t-31 -18q0 -16 33.5 -26.5t109.5 -21.5l76 -12q154 -29 218 -103.5t64 -221.5q0 -348 -421 -349q-148 0 -347 41l-67 15l8 293q244 -31 354 -31q121 0 121 18 q0 10 -24.5 18.5t-79.5 16.5l-92 16q-158 27 -232 99.5t-74 236.5zM117 1171l262 324h217l266 -324h-317l-58 111l-53 -111h-317z" />
<glyph unicode="&#x15e;" horiz-adv-x="1116" d="M61 967q0 215 131.5 325.5t356.5 110.5q92 0 175 -12.5t304 -53.5l-29 -282q-266 31 -409 30q-168 0 -168 -92q0 -31 41 -52t129 -54q90 -33 117 -45q135 -55 208.5 -107.5t106.5 -126t33 -186.5q0 -189 -111.5 -303.5t-292.5 -141.5v-36q145 -4 207 -46t62 -161 q0 -125 -67 -192.5t-185 -67.5q-82 0 -170 20l-31 8l10 201q25 -2 46.5 -1t27.5 1q70 0 70 37q0 29 -70 29h-25v202q-156 2 -374 60l-74 16l37 279q270 -37 418 -37q160 0 159 110q0 39 -35.5 61.5t-105.5 49.5q-45 16 -66 27q-231 78 -328.5 178t-97.5 252z" />
<glyph unicode="&#x15f;" horiz-adv-x="976" d="M61 696q0 168 113 260.5t301 92.5q125 0 340 -48l74 -12l-4 -293q-264 33 -350 33q-59 0 -90 -4t-31 -18q0 -16 33.5 -26.5t109.5 -21.5l76 -12q154 -29 218 -103.5t64 -221.5q1 -329 -374 -347v-34q145 -4 206.5 -46t61.5 -161q0 -125 -66.5 -192.5t-185.5 -67.5 q-82 0 -170 20l-31 8l11 201q25 -2 46 -1t27 1q70 0 70 37q0 29 -70 29h-24v206q-121 10 -269 39l-67 15l8 293q244 -31 354 -31q121 0 121 18q0 10 -24.5 18.5t-79.5 16.5l-92 16q-158 27 -232 99.5t-74 236.5z" />
<glyph unicode="&#x160;" horiz-adv-x="1116" d="M61 0zM61 967q0 215 131.5 325.5t356.5 110.5q92 0 175 -12.5t304 -53.5l-29 -282q-266 31 -409 30q-168 0 -168 -92q0 -31 41 -52t129 -54q90 -33 117 -45q135 -55 208.5 -107.5t106.5 -126t33 -186.5q0 -143 -66.5 -244.5t-180.5 -154t-255 -52.5q-176 1 -401 60 l-74 16l37 279q270 -37 418 -37q160 0 159 110q0 39 -35.5 61.5t-105.5 49.5q-45 16 -66 27q-231 78 -328.5 178t-97.5 252zM186 1855h369l66 -81l55 81h369l-275 -323h-309z" />
<glyph unicode="&#x161;" horiz-adv-x="976" d="M61 0zM61 696q0 168 113 260.5t301 92.5q125 0 340 -48l74 -12l-4 -293q-264 33 -350 33q-59 0 -90 -4t-31 -18q0 -16 33.5 -26.5t109.5 -21.5l76 -12q154 -29 218 -103.5t64 -221.5q0 -348 -421 -349q-148 0 -347 41l-67 15l8 293q244 -31 354 -31q121 0 121 18 q0 10 -24.5 18.5t-79.5 16.5l-92 16q-158 27 -232 99.5t-74 236.5zM135 1495h317l56 -109l57 109h317l-268 -324h-217z" />
<glyph unicode="&#x162;" horiz-adv-x="1077" d="M27 1055v321h1024v-321h-326v-1055h-121v-59q145 -4 206.5 -46t61.5 -161q0 -125 -66.5 -192.5t-184.5 -67.5q-82 0 -170 20l-31 8l10 201q25 -2 46.5 -1t27.5 1q70 0 69 37q0 29 -69 29h-25v231h-123v1055h-329z" />
<glyph unicode="&#x163;" horiz-adv-x="763" d="M41 723v301h104v266h357v-266h203v-301h-203v-373q0 -61 45 -57l139 -2l12 -281q-88 -23 -130 -30t-91 -7q-80 0 -135 15v-47q145 -4 206.5 -46t61.5 -161q0 -125 -66.5 -192.5t-185.5 -67.5q-82 0 -170 20l-30 8l10 201q25 -2 46.5 -1t27.5 1q70 0 69 37q0 29 -69 29 h-25v233h84q-86 37 -121 124t-35 247v350h-104z" />
<glyph unicode="&#x164;" horiz-adv-x="1077" d="M27 0zM27 1055v321h1024v-321h-326v-1055h-369v1055h-329zM114 1855h369l66 -81l55 81h369l-275 -323h-309z" />
<glyph unicode="&#x165;" horiz-adv-x="1073" d="M41 723v301h104v266h357v-266h203v-301h-203v-373q0 -61 45 -57l139 -2l12 -281q-88 -23 -130 -30t-91 -7q-127 0 -198.5 40t-102.5 126t-31 234v350h-104zM778 838v567h346v-567h-346z" />
<glyph unicode="&#x166;" horiz-adv-x="1079" d="M27 1055v321h1024v-321h-326v-295h250v-305h-250v-455h-367v455h-229v305h229v295h-331z" />
<glyph unicode="&#x167;" horiz-adv-x="761" d="M39 700v320h104v270h355v-270h204v-320h-204v-71h141v-260h-141v4q0 -59 45 -60h139l14 -303q-141 -37 -211 -37q-135 0 -207.5 37t-103.5 122t-31 241v-4h-26v260h26v71h-104z" />
<glyph unicode="&#x168;" horiz-adv-x="1353" d="M123 0zM123 498v878h366v-884q0 -203 191 -203q92 0 137 52t45 151v884h369v-878q0 -268 -136.5 -396.5t-416.5 -128.5q-281 0 -418 128t-137 397zM230 1743q47 57 117.5 98t138.5 41q63 0 192 -41t150 -41q51 0 149 62l31 18l76 -254q-2 -2 -79 -70.5t-173 -68.5 q-58 0 -191 41l-51 14q-96 29 -110 29q-49 0 -146 -62l-28 -16z" />
<glyph unicode="&#x169;" horiz-adv-x="1163" d="M102 0zM102 485v539h357v-547q0 -84 6 -119.5t28.5 -51t73.5 -15.5q43 0 127 10v723h355v-1024h-351v47q-88 -45 -140 -59.5t-105 -14.5q-195 0 -273 124t-78 388zM194 1360q37 45 111 89t121 44q49 0 135 -31q84 -29 110 -28q63 0 148 45l28 18l76 -194q-8 -14 -51 -50 t-94 -64t-92 -28q-46 0 -138 29q-86 31 -112 31q-61 0 -139 -39l-27 -13z" />
<glyph unicode="&#x16a;" horiz-adv-x="1353" d="M123 0zM123 498v878h366v-884q0 -203 191 -203q92 0 137 52t45 151v884h369v-878q0 -268 -136.5 -396.5t-416.5 -128.5q-281 0 -418 128t-137 397zM307 1561v256h760v-256h-760z" />
<glyph unicode="&#x16b;" horiz-adv-x="1163" d="M102 0zM102 485v539h357v-547q0 -84 6 -119.5t28.5 -51t73.5 -15.5q43 0 127 10v723h355v-1024h-351v47q-88 -45 -140 -59.5t-105 -14.5q-195 0 -273 124t-78 388zM283 1186v260h604v-260h-604z" />
<glyph unicode="&#x16c;" horiz-adv-x="1353" d="M123 0zM123 498v878h366v-884q0 -203 191 -203q92 0 137 52t45 151v884h369v-878q0 -268 -136.5 -396.5t-416.5 -128.5q-281 0 -418 128t-137 397zM266 1853h320q25 -92 102 -92q41 0 67.5 25.5t37.5 66.5h317q-55 -338 -424 -337q-365 -1 -420 337z" />
<glyph unicode="&#x16d;" horiz-adv-x="1163" d="M102 0zM102 485v539h357v-547q0 -84 6 -119.5t28.5 -51t73.5 -15.5q43 0 127 10v723h355v-1024h-351v47q-88 -45 -140 -59.5t-105 -14.5q-195 0 -273 124t-78 388zM231 1501h262q8 -53 33.5 -81.5t60.5 -28.5q41 0 63.5 24.5t35.5 85.5h260q-27 -152 -120 -249t-239 -97 q-145 0 -237 97.5t-119 248.5z" />
<glyph unicode="&#x16e;" horiz-adv-x="1353" d="M123 0zM123 498v878h366v-884q0 -203 191 -203q92 0 137 52t45 151v884h369v-878q0 -268 -136.5 -396.5t-416.5 -128.5q-281 0 -418 128t-137 397zM338 1708q0 137 99 211.5t249 74.5q152 0 252 -74.5t100 -211.5q0 -133 -101.5 -209t-250.5 -76q-148 0 -248 76t-100 209 zM569 1708q0 -31 35 -48.5t82 -17.5t81.5 17.5t34.5 48.5q0 33 -33.5 50t-82.5 17q-45 0 -81 -18.5t-36 -48.5z" />
<glyph unicode="&#x16f;" horiz-adv-x="1163" d="M102 0zM102 485v539h357v-547q0 -84 6 -119.5t28.5 -51t73.5 -15.5q43 0 127 10v723h355v-1024h-351v47q-88 -45 -140 -59.5t-105 -14.5q-195 0 -273 124t-78 388zM318 1296q0 111 75.5 184.5t186.5 73.5t186.5 -73.5t75.5 -184.5q0 -109 -75.5 -182.5t-186.5 -73.5 t-186.5 74t-75.5 182zM502 1296q0 -35 21.5 -55t56.5 -20t56.5 20.5t21.5 54.5q0 35 -21.5 55.5t-56.5 20.5t-56.5 -20.5t-21.5 -55.5z" />
<glyph unicode="&#x170;" horiz-adv-x="1353" d="M123 0zM123 498v878h366v-884q0 -203 191 -203q92 0 137 52t45 151v884h369v-878q0 -268 -136.5 -396.5t-416.5 -128.5q-281 0 -418 128t-137 397zM309 1577l35 491l324 -94l-70 -477zM752 1573l35 493l319 -94l-65 -477z" />
<glyph unicode="&#x171;" horiz-adv-x="1163" d="M102 0zM102 485v539h357v-547q0 -84 6 -119.5t28.5 -51t73.5 -15.5q43 0 127 10v723h355v-1024h-351v47q-88 -45 -140 -59.5t-105 -14.5q-195 0 -273 124t-78 388zM181 1292l200 457l299 -168l-227 -455zM613 1292l200 459l299 -170l-225 -455z" />
<glyph unicode="&#x172;" horiz-adv-x="1353" d="M123 498v878h366v-884q0 -203 191 -203q92 0 137 52t45 151v884h369v-878q0 -217 -90 -342t-275 -164q-84 -57 -84 -125q0 -33 11.5 -45t42.5 -12l75 4l31 -244q-150 -27 -242 -27q-106 0 -174.5 57.5t-68.5 147.5q0 72 28.5 134.5t69.5 97.5q-219 27 -325.5 154.5 t-106.5 363.5z" />
<glyph unicode="&#x173;" horiz-adv-x="1163" d="M102 485v539h357v-547q0 -84 6 -119.5t28.5 -51t73.5 -15.5q43 0 127 10v723h355v-1024h-41q-98 -59 -99 -133q0 -33 11.5 -45t42.5 -12l75 4l31 -244q-150 -27 -242 -27q-106 0 -174.5 57.5t-68.5 147.5q0 84 37.5 152.5t85.5 99.5h-9v47q-88 -45 -140 -59.5t-105 -14.5 q-195 0 -273 124t-78 388z" />
<glyph unicode="&#x174;" horiz-adv-x="1964" d="M25 0zM25 1376h385l125 -1067h12l223 1075h424l223 -1075h13l124 1067h388l-252 -1376h-521l-186 958l-186 -958h-523zM553 1536l275 323h311l274 -323h-370l-56 82l-63 -82h-371z" />
<glyph unicode="&#x175;" horiz-adv-x="1595" d="M39 0zM39 1024h348l72 -723h59l96 703h365l98 -703h58l71 723h348l-161 -1024h-545l-51 510l-49 -510h-547zM430 1171l262 324h217l266 -324h-317l-58 111l-53 -111h-317z" />
<glyph unicode="&#x176;" horiz-adv-x="1167" d="M-14 1376h403l193 -483l192 483h404l-410 -835v-541h-367v541zM0 0zM158 1532l275 323h311l274 -323h-370l-56 82l-63 -82h-371z" />
<glyph unicode="&#x177;" horiz-adv-x="1046" d="M20 0zM20 1024h349l139 -723h35l137 723h348l-315 -1438h-346l100 414h-221zM152 1171l262 324h217l266 -324h-317l-58 111l-53 -111h-317z" />
<glyph unicode="&#x178;" horiz-adv-x="1167" d="M-14 1376h403l193 -483l192 483h404l-410 -835v-541h-367v541zM0 0zM182 1505v328h336v-328h-336zM641 1505v328h338v-328h-338z" />
<glyph unicode="&#x179;" horiz-adv-x="1083" d="M82 2v285l475 741v31h-475v317h922v-286l-476 -740v-33h476v-315h-922zM82 2zM205 1729l565 225l104 -320l-589 -149z" />
<glyph unicode="&#x17a;" horiz-adv-x="927" d="M82 0v317l336 390h-336v317h760v-317l-334 -390h334v-317h-760zM82 0zM125 1346l565 215l100 -306l-592 -137z" />
<glyph unicode="&#x17b;" horiz-adv-x="1083" d="M82 2v285l475 741v31h-475v317h922v-286l-476 -740v-33h476v-315h-922zM82 2zM367 1524v342h356v-342h-356z" />
<glyph unicode="&#x17c;" horiz-adv-x="927" d="M82 0v317l336 390h-336v317h760v-317l-334 -390h334v-317h-760zM82 0zM285 1067v342h356v-342h-356z" />
<glyph unicode="&#x17d;" horiz-adv-x="1083" d="M82 2v285l475 741v31h-475v317h922v-286l-476 -740v-33h476v-315h-922zM82 2zM110 1855h369l66 -81l55 81h369l-275 -323h-309z" />
<glyph unicode="&#x17e;" horiz-adv-x="927" d="M82 0v317l336 390h-336v317h760v-317l-334 -390h334v-317h-760zM82 0zM121 1495h317l56 -109l57 109h317l-268 -324h-217z" />
<glyph unicode="&#x192;" d="M96 -143l185 -2q37 0 56 20.5t19 48.5v893h-98v303h98v8q0 154 30 231t95.5 103.5t190.5 26.5q94 0 194 -25l52 -6v-287l-136 3q-43 0 -55 -9.5t-14 -44.5h215v-303h-215v-903q0 -209 -88 -294t-289 -85q-125 0 -205 27l-35 8v287z" />
<glyph unicode="&#x1fa;" horiz-adv-x="1241" d="M25 0l260 1358q-12 41 -13 86q0 137 99.5 212t249.5 75q152 0 252 -75t100 -212q0 -49 -17 -94l261 -1350h-369l-27 176h-401l-27 -176h-368zM25 0zM254 1944l565 225l104 -320l-589 -149zM481 492h279l-94 585h-91zM504 1444q0 -31 34.5 -48.5t82.5 -17.5 q47 0 81.5 17.5t34.5 48.5q0 33 -33.5 50t-82.5 17q-46 0 -81.5 -18t-35.5 -49z" />
<glyph unicode="&#x1fb;" horiz-adv-x="1060" d="M45 0zM45 326q0 170 91 238.5t296 78.5l152 8v47q0 35 -17.5 44.5t-72.5 9.5l-185 -4q-176 -8 -188 -5l-8 240q199 59 372 66q-84 23 -137 90t-53 157q0 111 75.5 184.5t186.5 73.5t186.5 -73.5t75.5 -184.5q0 -92 -55 -159.5t-143 -87.5q168 -14 242.5 -98.5 t74.5 -252.5v-360q2 -23 4 -50.5t8 -36.5t23 -13l-10 -265q-127 0 -189.5 11.5t-136.5 52.5q-127 -63 -256 -64q-170 0 -253 87t-83 266zM189 1784l565 215l100 -306l-592 -137zM399 322q0 -63 64 -64q33 0 100 10l21 2v142l-109 -9q-35 -4 -55.5 -24.5t-20.5 -56.5z M479 1296q0 -35 21.5 -55t56.5 -20t56.5 20.5t21.5 54.5q0 35 -21.5 55.5t-56.5 20.5t-56.5 -20.5t-21.5 -55.5z" />
<glyph unicode="&#x1fc;" horiz-adv-x="1777" d="M14 0l322 1405h1366v-350h-561v-174h438v-349h-438v-182h561v-350h-922v158h-383l-20 -158h-363zM14 0zM483 510h297l2 545h-192zM682 1729l565 225l104 -320l-589 -149z" />
<glyph unicode="&#x1fd;" horiz-adv-x="1579" d="M45 0zM45 326q0 158 90 235.5t256 81.5l193 8v29q0 8 -19.5 18.5t-50.5 10.5q-143 0 -317 -17l-68 -6l-10 307q295 55 459 56q133 0 231 -27q109 27 246 27q227 0 346 -115t119 -334l-29 -242h-553q2 -33 38 -46t109 -13q164 0 345 14l57 4l4 -270q-233 -74 -447 -74 q-213 0 -321 90l-35 -18q-162 -72 -297 -72q-178 0 -262 92.5t-84 260.5zM399 334q0 -27 11.5 -42.5t31.5 -15.5q7 0 18 -4t34 -4q33 0 92 8l-2 109l-109 4q-33 0 -54.5 -15.5t-21.5 -39.5zM478 1346l565 215l100 -306l-592 -137zM938 627h233q0 61 -25.5 83.5t-96.5 22.5 q-68 0 -89.5 -23.5t-21.5 -82.5z" />
<glyph unicode="&#x1fe;" horiz-adv-x="1325" d="M72 678q0 375 137 550t453 175q94 0 174 -12l110 239l-571 -145l-80 244l565 225l98 -299l9 18l262 -112l-142 -306q164 -171 164 -577q0 -362 -138 -533.5t-451 -171.5q-90 0 -164 11l-119 -258l-258 131l119 252q-80 80 -124 225t-44 344zM430 514l264 576l-32 -3 q-113 0 -163 -91t-50 -246q0 -145 -19 -236zM637 285l25 4q213 0 212 323q1 146 19 226z" />
<glyph unicode="&#x1ff;" horiz-adv-x="1095" d="M55 508q0 254 120 398.5t372 144.5q41 0 90 -7l65 170l-411 -96l-74 228l565 215l101 -306l-121 -28l162 -60l-82 -192q198 -131 198 -467q0 -252 -133 -393.5t-360 -141.5q-68 0 -111 9l-82 -197l-204 78l88 203q-86 66 -134.5 180t-48.5 262zM414 508l2 -37l106 279 q-59 -10 -83.5 -71t-24.5 -171zM549 272q63 2 98 61.5t35 145.5q0 89 8 146z" />
<glyph unicode="&#x218;" horiz-adv-x="1116" d="M61 0zM61 967q0 215 131.5 325.5t356.5 110.5q92 0 175 -12.5t304 -53.5l-29 -282q-266 31 -409 30q-168 0 -168 -92q0 -31 41 -52t129 -54q90 -33 117 -45q135 -55 208.5 -107.5t106.5 -126t33 -186.5q0 -143 -66.5 -244.5t-180.5 -154t-255 -52.5q-176 1 -401 60 l-74 16l37 279q270 -37 418 -37q160 0 159 110q0 39 -35.5 61.5t-105.5 49.5q-45 16 -66 27q-231 78 -328.5 178t-97.5 252zM293 -672l102 516h342l-119 -516h-325z" />
<glyph unicode="&#x219;" horiz-adv-x="976" d="M-211 -672l102 516h342l-119 -516h-325zM0 0zM61 696q0 168 113 260.5t301 92.5q125 0 340 -48l74 -12l-4 -293q-264 33 -350 33q-59 0 -90 -4t-31 -18q0 -16 33.5 -26.5t109.5 -21.5l76 -12q154 -29 218 -103.5t64 -221.5q0 -348 -421 -349q-148 0 -347 41l-67 15l8 293 q244 -31 354 -31q121 0 121 18q0 10 -24.5 18.5t-79.5 16.5l-92 16q-158 27 -232 99.5t-74 236.5z" />
<glyph unicode="&#x21a;" horiz-adv-x="1077" d="M27 0zM27 1055v321h1024v-321h-326v-1055h-369v1055h-329zM322 -672l102 516h342l-119 -516h-325z" />
<glyph unicode="&#x21b;" horiz-adv-x="763" d="M-129 -672l102 516h342l-119 -516h-325zM0 0zM41 723v301h104v266h357v-266h203v-301h-203v-373q0 -61 45 -57l139 -2l12 -281q-88 -23 -130 -30t-91 -7q-127 0 -198.5 40t-102.5 126t-31 234v350h-104z" />
<glyph unicode="&#x2c6;" horiz-adv-x="591" d="M-55 1171l262 324h217l266 -324h-317l-58 111l-53 -111h-317z" />
<glyph unicode="&#x2c7;" horiz-adv-x="591" d="M-45 1495h317l56 -109l57 109h317l-268 -324h-217z" />
<glyph unicode="&#x2d8;" horiz-adv-x="591" d="M-45 1501h262q8 -53 33.5 -81.5t60.5 -28.5q41 0 63.5 24.5t35.5 85.5h260q-27 -152 -120 -249t-239 -97q-145 0 -237 97.5t-119 248.5z" />
<glyph unicode="&#x2d9;" horiz-adv-x="591" d="M119 1067v342h356v-342h-356z" />
<glyph unicode="&#x2da;" horiz-adv-x="591" d="M39 1296q0 111 75.5 184.5t186.5 73.5t186.5 -73.5t75.5 -184.5q0 -109 -75.5 -182.5t-186.5 -73.5t-186.5 74t-75.5 182zM223 1296q0 -35 21.5 -55t56.5 -20t56.5 20.5t21.5 54.5q0 35 -21.5 55.5t-56.5 20.5t-56.5 -20.5t-21.5 -55.5z" />
<glyph unicode="&#x2db;" horiz-adv-x="1003" d="M492 -252q0 84 37.5 153.5t84.5 98.5l39 27l267 -25q-102 -59 -103 -135q0 -33 11.5 -45t41.5 -12l76 4l31 -244q-150 -27 -242 -27q-106 0 -174.5 57.5t-68.5 147.5z" />
<glyph unicode="&#x2dc;" horiz-adv-x="591" d="M-35 1360q37 45 111 89t121 44q49 0 135 -31q84 -29 110 -28q63 0 148 45l28 18l76 -194q-8 -14 -51 -50t-94 -64t-92 -28q-46 0 -138 29q-86 31 -112 31q-61 0 -139 -39l-27 -13z" />
<glyph unicode="&#x2dd;" horiz-adv-x="591" d="M-100 1292l200 457l299 -168l-227 -455zM332 1292l200 459l299 -170l-225 -455z" />
<glyph unicode="&#x3c0;" d="M31 696v287q145 41 319 41h535q82 0 168 16l26 7v-291q-45 -18 -123 -29v-412q0 -18 28 -30.5t89 -12.5v-301q-215 0 -312 29t-128 97.5t-31 217.5v408h-78l-49 -723h-358l67 723q-39 0 -118 -21z" />
<glyph unicode="&#x60c;" horiz-adv-x="593" d="M72 -252l215 574h284l-108 -574h-391z" />
<glyph unicode="&#x615;" horiz-adv-x="0" d="M0 1577v139h10v467h115v-325q35 63 92 100t109 37q67 0 122.5 -55.5t55.5 -145.5v-217h-504zM125 1716h274v78q0 33 -31.5 56.5t-74.5 23.5t-82 -23.5t-62.5 -57.5t-23.5 -67v-10z" />
<glyph unicode="&#x61b;" horiz-adv-x="614" d="M88 637l215 573h285l-109 -573h-391zM119 0v412h379v-412h-379z" />
<glyph unicode="&#x61f;" horiz-adv-x="884" d="M53 1090q0 152 98.5 232.5t284.5 80.5q238 0 393 -78l-16 -262q-141 25 -281 24q-51 0 -79.5 -20t-28.5 -55q0 -43 36 -80t118 -96q41 -29 45 -33q37 -25 61.5 -57.5t24.5 -51.5q0 -147 -88 -227h-281v57q0 55 -34 93t-97 77q-68 47 -99.5 92t-44 113t-12.5 191zM301 -2 v397h379v-397h-379z" />
<glyph unicode="&#x621;" horiz-adv-x="1075" d="M98 209l187 49q-59 59 -88 130t-29 147q0 96 45 182t128 138t189 52q74 0 143.5 -19.5t120 -46t62.5 -40.5l-53 -234q-20 14 -63.5 29.5t-86.5 15.5q-74 0 -121 -50t-47 -118t50 -122l421 110l64 -274l-875 -158z" />
<glyph unicode="&#x622;" horiz-adv-x="686" d="M49 0zM49 1562q86 90 173 90q39 0 94 -21.5t63 -25.5q92 -41 99 -41q12 0 65 45l35 35l63 -200q-86 -86 -166 -86q-32 0 -87.5 21.5t-67.5 25.5q-14 8 -54 24.5t-51 16.5q-12 0 -40.5 -24t-28.5 -21l-35 -37zM150 0v1233h352v-1233h-352z" />
<glyph unicode="&#x623;" horiz-adv-x="686" d="M69 1485l91 23q-86 74 -87 180q0 90 65 155.5t167 65.5q78 0 166 -49l-31 -154q-35 29 -80 29q-43 0 -69.5 -28.5t-26.5 -67.5q0 -61 51 -90l215 57l33 -146l-469 -92zM70 0zM150 0v1233h352v-1233h-352z" />
<glyph unicode="&#x624;" horiz-adv-x="1196" d="M86 0zM86 494q0 248 66.5 372.5t170 162.5t252.5 38q143 0 287 -18.5t246 -40.5v-793q0 -152 -19.5 -295t-125 -285.5t-334.5 -142.5q-133 0 -389 45v320q281 -43 354 -43q90 0 120.5 43t28.5 143h-196q-197 0 -298.5 76t-132 181t-30.5 237zM397 1401l91 23 q-86 74 -87 180q0 90 65 155.5t167 65.5q78 0 166 -49l-31 -154q-35 29 -80 29q-43 0 -69.5 -28.5t-26.5 -67.5q0 -61 51 -90l215 57l33 -146l-469 -92zM438 516q0 -96 40 -145t155 -49h123v419q-66 4 -121 4q-53 0 -94 -12t-72 -62t-31 -155z" />
<glyph unicode="&#x625;" horiz-adv-x="686" d="M65 -541l90 25q-43 35 -64.5 82t-21.5 96q0 90 64.5 155.5t167.5 65.5q84 0 168 -49l-31 -151q-12 8 -33.5 17t-48.5 9q-43 0 -69.5 -28.5t-26.5 -67.5q0 -27 13.5 -50.5t39.5 -37.5l213 55l33 -145l-469 -92zM66 0zM150 0v1409h352v-1409h-352z" />
<glyph unicode="&#x626;" horiz-adv-x="1943" d="M82 0zM82 14q0 80 19.5 197t37.5 184l326 -53q-8 -59 -19.5 -152.5t-11.5 -130.5q0 -100 75 -172.5t208 -72.5l581 2q63 0 94 11t48.5 58t17.5 154q0 37 -31.5 55.5t-99.5 38.5q-41 10 -76 25q-231 78 -328.5 178t-97.5 252q0 215 131 325.5t357 110.5q94 0 183 -13.5 t296 -52.5l-29 -282q-266 31 -409 31q-168 0 -168 -91q0 -31 41 -53t131 -55q78 -29 115 -45q139 -55 210.5 -103.5t104.5 -117t33 -181.5q0 -313 -134.5 -441t-367.5 -128h-592q-137 0 -286.5 52.5t-254 169t-104.5 300.5zM122 721l91 23q-86 74 -87 180q0 90 65 155.5 t167 65.5q78 0 166 -49l-31 -154q-35 29 -80 29q-43 0 -69.5 -28.5t-26.5 -67.5q0 -61 51 -90l215 57l33 -146l-469 -92z" />
<glyph unicode="&#x627;" horiz-adv-x="686" d="M150 0v1409h352v-1409h-352z" />
<glyph unicode="&#x628;" horiz-adv-x="1828" d="M111 0zM111 436q0 90 19.5 193.5t43.5 179.5l287 -16q2 23 -15 -125q-14 -121 -14 -150q0 -72 52.5 -134t195.5 -62h668v702h352v-1024h-967q-174 0 -301 22.5t-224 118t-97 295.5zM754 -164h317v-329h-317v329z" />
<glyph unicode="&#x629;" horiz-adv-x="1314" d="M82 0zM82 539q0 217 59.5 324.5t188.5 144t375 36.5q137 0 300.5 -9t219.5 -19v-1016h-551q-219 0 -342 37t-186.5 152.5t-63.5 349.5zM428 1215v311h248v-311h-248zM434 537q0 -99 27.5 -145t77 -58t141.5 -12h192v395q-129 6 -172 6q-109 0 -162 -11.5t-78.5 -51 t-25.5 -123.5zM776 1215v311h248v-311h-248z" />
<glyph unicode="&#x62a;" horiz-adv-x="1828" d="M111 0zM111 436q0 90 19.5 193.5t43.5 179.5l287 -16q2 23 -15 -125q-14 -121 -14 -150q0 -72 52.5 -134t195.5 -62h668v702h352v-1024h-967q-174 0 -301 22.5t-224 118t-97 295.5zM613 1024v311h248v-311h-248zM961 1024v311h248v-311h-248z" />
<glyph unicode="&#x62b;" horiz-adv-x="1828" d="M111 0zM111 436q0 90 19.5 193.5t43.5 179.5l287 -16q2 23 -15 -125q-14 -121 -14 -150q0 -72 52.5 -134t195.5 -62h668v702h352v-1024h-967q-174 0 -301 22.5t-224 118t-97 295.5zM615 1024v295h248v-295h-248zM801 1352v270h225v-270h-225zM963 1024v295h248v-295h-248 z" />
<glyph unicode="&#x62c;" horiz-adv-x="1269" d="M82 -131q0 213 111.5 331.5t332.5 118.5q94 0 269 -20v295q0 82 -28 119t-112 37q-33 -2 -127 -2h-200h-111l-10 227q104 31 266 50t283 19q152 0 236.5 -38.5t118.5 -109.5t36 -181v-715h-352q-49 6 -99.5 10t-85.5 4q-80 0 -129 -46t-49 -126q0 -74 47 -123t144 -49 l47 -311q-61 -6 -117 -6q-221 0 -346 140t-125 376zM795 -113h247v-295h-247v295z" />
<glyph unicode="&#x62d;" horiz-adv-x="1269" d="M82 -131q0 213 111.5 331.5t332.5 118.5q94 0 269 -22v297q0 82 -28 119t-112 37q-33 -2 -127 -2h-200h-111l-10 227q104 31 266 50t283 19q152 0 236.5 -38.5t118.5 -109.5t36 -181v-715h-352q-106 14 -185 14q-80 0 -129 -46t-49 -126q0 -74 47 -123t144 -49 q49 0 163.5 9.5t225.5 25.5l39 -266q-102 -33 -248 -59.5t-250 -26.5q-221 0 -346 140t-125 376z" />
<glyph unicode="&#x62e;" horiz-adv-x="1269" d="M82 0zM82 -131q0 213 111.5 331.5t332.5 118.5q94 0 269 -22v297q0 82 -28 119t-112 37q-33 -2 -127 -2h-200h-111l-10 227q104 31 266 50t283 19q152 0 236.5 -38.5t118.5 -109.5t36 -181v-715h-352q-106 14 -185 14q-80 0 -129 -46t-49 -126q0 -74 47 -123t144 -49 q49 0 163.5 9.5t225.5 25.5l39 -266q-102 -33 -248 -59.5t-250 -26.5q-221 0 -346 140t-125 376zM500 1214v330h317v-330h-317z" />
<glyph unicode="&#x62f;" horiz-adv-x="1120" d="M82 0v322h651q-6 223 -94 323t-209 100h-235l-27 281q231 47 352 47q178 0 305 -90t193.5 -258t66.5 -397v-328h-1003z" />
<glyph unicode="&#x630;" horiz-adv-x="1120" d="M82 0v322h651q-6 223 -94 323t-209 100h-235l-27 281q231 47 352 47q178 0 305 -90t193.5 -258t66.5 -397v-328h-1003zM82 0zM248 1270v330h317v-330h-317z" />
<glyph unicode="&#x631;" horiz-adv-x="681" d="M82 -182l31 -2q111 0 110 168v1042h352v-991q0 -250 -86 -395.5t-260 -145.5q-45 0 -147 6v318z" />
<glyph unicode="&#x632;" horiz-adv-x="681" d="M82 0zM82 -182l31 -2q111 0 110 168v1042h352v-991q0 -250 -86 -395.5t-260 -145.5q-45 0 -147 6v318zM242 1214v330h317v-330h-317z" />
<glyph unicode="&#x633;" horiz-adv-x="2482" d="M82 0q0 90 26.5 236.5t69.5 343.5l332 -19q-43 -211 -66.5 -335t-23.5 -179q0 -80 54 -154.5t222 -74.5q147 0 215 64.5t68 150.5v889h352v-600h23q68 0 108.5 49t40.5 133v418h352v-418q0 -82 -16 -164q29 -18 68 -18h112v172l2 110q2 31 2 94q0 109 -16 316l313 14 q52 -383 52 -459v-569h-449q-74 0 -142.5 24.5t-94.5 43.5q-90 -68 -209 -68h-146v-82q0 -82 -55 -179t-199.5 -172t-388.5 -75q-272 0 -406.5 93t-167 199.5t-32.5 215.5z" />
<glyph unicode="&#x634;" horiz-adv-x="2482" d="M82 0q0 90 26.5 236.5t69.5 343.5l332 -19q-43 -211 -66.5 -335t-23.5 -179q0 -80 54 -154.5t222 -74.5q147 0 215 64.5t68 150.5v889h352v-600h23q68 0 108.5 49t40.5 133v418h352v-418q0 -82 -16 -164q29 -18 68 -18h112v172l2 110q2 31 2 94q0 109 -16 316l313 14 q52 -383 52 -459v-569h-449q-74 0 -142.5 24.5t-94.5 43.5q-90 -68 -209 -68h-146v-82q0 -82 -55 -179t-199.5 -172t-388.5 -75q-272 0 -406.5 93t-167 199.5t-32.5 215.5zM82 0zM1389 1214v295h248v-295h-248zM1575 1542v270h225v-270h-225zM1737 1214v295h248v-295h-248z " />
<glyph unicode="&#x635;" horiz-adv-x="2500" d="M82 -16q0 80 29.5 259t66.5 337l336 -19q-94 -410 -94 -516q0 -80 53 -155.5t223 -75.5q147 0 215 66.5t68 152.5v991h352v-328q92 115 167 186.5t175.5 116.5t231.5 45q258 0 365.5 -158.5t107.5 -371.5v-514h-1047v-82q0 -82 -55 -179t-198.5 -172t-385.5 -75 q-389 0 -499.5 161t-110.5 331zM1372 322h653v118q0 117 -57 200t-158 83q-106 0 -227 -112.5t-211 -288.5z" />
<glyph unicode="&#x636;" horiz-adv-x="2500" d="M82 0zM82 -16q0 80 29.5 259t66.5 337l336 -19q-94 -410 -94 -516q0 -80 53 -155.5t223 -75.5q147 0 215 66.5t68 152.5v991h352v-328q92 115 167 186.5t175.5 116.5t231.5 45q258 0 365.5 -158.5t107.5 -371.5v-514h-1047v-82q0 -82 -55 -179t-198.5 -172t-385.5 -75 q-389 0 -499.5 161t-110.5 331zM1372 322h653v118q0 117 -57 200t-158 83q-106 0 -227 -112.5t-211 -288.5zM1585 1214v330h317v-330h-317z" />
<glyph unicode="&#x637;" horiz-adv-x="1634" d="M2 0v322h111v1087h352v-713q92 115 167 186.5t175 116.5t231 45q258 0 365.5 -158.5t107.5 -371.5v-514h-1509zM506 322h653v118q0 117 -58.5 200t-158.5 83q-106 0 -226 -112.5t-210 -288.5z" />
<glyph unicode="&#x638;" horiz-adv-x="1634" d="M2 0v322h111v1087h352v-713q92 115 167 186.5t175 116.5t231 45q258 0 365.5 -158.5t107.5 -371.5v-514h-1509zM2 0zM506 322h653v118q0 117 -58.5 200t-158.5 83q-106 0 -226 -112.5t-210 -288.5zM641 1214v330h317v-330h-317z" />
<glyph unicode="&#x639;" horiz-adv-x="1142" d="M82 -135q0 287 178 393q-31 74 -46 131t-15 139q0 213 95 329t215 155t218 39q94 0 260 -37l-16 -334q-154 49 -215 49q-70 0 -138.5 -40t-68.5 -173q0 -115 69 -199q102 -4 234 -18v-299q-39 6 -117 10t-123 4q-80 0 -129 -46t-49 -126q0 -74 48 -123t141 -49 q43 0 135 6.5t186 18.5l35 -273q-104 -29 -223 -49t-203 -20q-219 0 -345 140t-126 372z" />
<glyph unicode="&#x63a;" horiz-adv-x="1142" d="M82 0zM82 -135q0 287 178 393q-31 74 -46 131t-15 139q0 213 95 329t215 155t218 39q94 0 260 -37l-16 -334q-154 49 -215 49q-70 0 -138.5 -40t-68.5 -173q0 -115 69 -199q102 -4 234 -18v-299q-39 6 -117 10t-123 4q-80 0 -129 -46t-49 -126q0 -74 48 -123t141 -49 q43 0 135 6.5t186 18.5l35 -273q-104 -29 -223 -49t-203 -20q-219 0 -345 140t-126 372zM434 1214v330h317v-330h-317z" />
<glyph unicode="&#x640;" horiz-adv-x="512" d="M0 0v322h512v-322h-512z" />
<glyph unicode="&#x641;" horiz-adv-x="2125" d="M82 0zM82 440q0 156 61 369l287 -16q-4 -45 -8 -68q-18 -178 -19 -207q0 -72 52.5 -134t195.5 -62h371q-29 131 -29 241q0 250 146.5 354.5t445.5 104.5q182 0 313 -14l140 -17v-991h-1333q-174 0 -301.5 22.5t-224.5 119t-97 298.5zM1018 289q2 -4 5 -4t3 4h-8z M1341 1214v330h317v-330h-317zM1354 451q0 -59 10 -129h322v380q-82 4 -105 5q-102 0 -147 -15.5t-62.5 -68t-17.5 -172.5z" />
<glyph unicode="&#x642;" horiz-adv-x="1914" d="M82 0zM82 -74q0 172 90 682l328 -55l-21 -129q-29 -184 -44 -295t-15 -178q0 -231 223 -232h586q125 0 175 68t50 158v55h-225q-180 0 -272.5 28.5t-139.5 132t-47 322.5q0 244 59.5 357.5t180 146.5t362.5 33q184 0 295 -12l139 -17v-1071q0 -131 -61.5 -250 t-192.5 -195.5t-329 -76.5h-576q-201 0 -327.5 76.5t-182 195.5t-55.5 256zM1112 1215v311h248v-311h-248zM1122 485q0 -71 11.5 -107t33 -47.5t60.5 -11.5l80 3h147v374h-80q-109 0 -156 -9t-71.5 -53t-24.5 -149zM1460 1215v311h248v-311h-248z" />
<glyph unicode="&#x643;" horiz-adv-x="1701" d="M68 0zM68 436q0 137 47 309l297 -16l-11 -102q-10 -86 -10 -109q0 -72 52.5 -134t193.5 -62h563v1087h352v-1409h-862q-174 0 -300 22.5t-224 118t-98 295.5zM565 801l91 23q-86 74 -87 180q0 90 65 155.5t167 65.5q78 0 166 -49l-31 -154q-35 29 -80 29 q-43 0 -69.5 -28.5t-26.5 -67.5q0 -61 51 -90l215 57l33 -146l-469 -92z" />
<glyph unicode="&#x644;" horiz-adv-x="1484" d="M82 8q0 115 68 557l329 -18q-18 -125 -38.5 -287t-20.5 -211q0 -59 36 -113.5t102.5 -88t150.5 -33.5q90 0 152.5 35.5t92 89t29.5 104.5v1366h352v-1403q0 -129 -69.5 -246.5t-208.5 -192.5t-334 -75q-188 0 -334.5 70.5t-226.5 189.5t-80 256z" />
<glyph unicode="&#x645;" horiz-adv-x="1394" d="M80 -111q0 139 53 232.5t139 144.5q-39 152 -39 250q0 96 27 221t59 228q59 29 178 52t271 23q242 0 359.5 -67.5t148.5 -175t31 -285.5v-512h-666q-90 0 -160.5 -59.5t-70.5 -225.5q0 -121 55 -377l-301 -12q-31 125 -57.5 293t-26.5 270zM571 516q0 -51 9.5 -104.5 t19.5 -89.5h354v198q0 70 -10 110t-57 67.5t-150 27.5q-76 0 -145 -16q-20 -113 -21 -193z" />
<glyph unicode="&#x646;" horiz-adv-x="1439" d="M82 0zM82 8q0 115 68 557l329 -18q-18 -125 -38.5 -287t-20.5 -211q0 -59 36 -113.5t102.5 -88t150.5 -33.5q90 0 152.5 35.5t92 89t29.5 104.5v981h352v-1018q0 -129 -69.5 -246.5t-208.5 -192.5t-334 -75q-188 0 -334.5 70.5t-226.5 189.5t-80 256zM563 1024v330h317 v-330h-317z" />
<glyph unicode="&#x647;" horiz-adv-x="1314" d="M82 539q0 217 59.5 324.5t188.5 144t375 36.5q137 0 300.5 -9t219.5 -19v-1016h-551q-219 0 -342 37t-186.5 152.5t-63.5 349.5zM434 537q0 -99 27.5 -145t77 -58t141.5 -12h192v395q-129 6 -172 6q-109 0 -162 -11.5t-78.5 -51t-25.5 -123.5z" />
<glyph unicode="&#x648;" horiz-adv-x="1196" d="M86 494q0 248 66.5 372.5t170 162.5t252.5 38q143 0 287 -18.5t246 -40.5v-793q0 -152 -19.5 -295t-125 -285.5t-334.5 -142.5q-133 0 -389 45v320q281 -43 354 -43q90 0 120.5 43t28.5 143h-196q-197 0 -298.5 76t-132 181t-30.5 237zM438 516q0 -96 40 -145t155 -49 h123v419q-66 4 -121 4q-53 0 -94 -12t-72 -62t-31 -155z" />
<glyph unicode="&#x649;" horiz-adv-x="1943" d="M82 14q0 80 19.5 197t37.5 184l326 -53q-8 -59 -19.5 -152.5t-11.5 -130.5q0 -100 75 -172.5t208 -72.5l581 2q63 0 94 11t48.5 58t17.5 154q0 37 -31.5 55.5t-99.5 38.5q-41 10 -76 25q-231 78 -328.5 178t-97.5 252q0 215 131 325.5t357 110.5q94 0 183 -13.5 t296 -52.5l-29 -282q-266 31 -409 31q-168 0 -168 -91q0 -31 41 -53t131 -55q78 -29 115 -45q139 -55 210.5 -103.5t104.5 -117t33 -181.5q0 -313 -134.5 -441t-367.5 -128h-592q-137 0 -286.5 52.5t-254 169t-104.5 300.5z" />
<glyph unicode="&#x64a;" horiz-adv-x="1943" d="M82 0zM82 14q0 80 19.5 197t37.5 184l326 -53q-8 -59 -19.5 -152.5t-11.5 -130.5q0 -100 75 -172.5t208 -72.5l581 2q63 0 94 11t48.5 58t17.5 154q0 37 -31.5 55.5t-99.5 38.5q-41 10 -76 25q-231 78 -328.5 178t-97.5 252q0 215 131 325.5t357 110.5q94 0 183 -13.5 t296 -52.5l-29 -282q-266 31 -409 31q-168 0 -168 -91q0 -31 41 -53t131 -55q78 -29 115 -45q139 -55 210.5 -103.5t104.5 -117t33 -181.5q0 -313 -134.5 -441t-367.5 -128h-592q-137 0 -286.5 52.5t-254 169t-104.5 300.5zM686 -656h248v-311h-248v311zM1034 -656h248v-311 h-248v311z" />
<glyph unicode="&#x64b;" horiz-adv-x="0" d="M-246 1458v170l492 96v-170zM-246 1689v170l492 96v-170zM0 1458z" />
<glyph unicode="&#x64c;" horiz-adv-x="0" d="M-313 1829l100 26l16 -61l21 6q-37 86 -37 152q0 90 59.5 141t159.5 51q119 0 172 -72.5t53 -175.5q0 -27 -2 -38v-105l-491 -96v2l-2 -2q-10 39 -49 172zM-39 1939q0 -35 35 -90l67 19q8 31 9 55q0 33 -12.5 46t-28 14.5t-23.5 1.5q-14 0 -30.5 -9.5t-16.5 -36.5z" />
<glyph unicode="&#x64d;" horiz-adv-x="0" d="M-240 -393l494 96v-172l-494 -96v172zM-240 -620l494 96v-172l-494 -96v172zM0 -297z" />
<glyph unicode="&#x64e;" horiz-adv-x="0" d="M-246 1458v170l492 96v-170z" />
<glyph unicode="&#x64f;" horiz-adv-x="0" d="M-262 1657v119l86 24q-37 86 -37 152q0 90 59.5 141t159.5 51q119 0 172 -72.5t53 -175.5q0 -27 -2 -38v-105zM-39 1939q0 -35 35 -90l67 19q8 31 9 55q0 33 -12.5 46t-28 14.5t-23.5 1.5q-14 0 -30.5 -9.5t-16.5 -36.5z" />
<glyph unicode="&#x650;" horiz-adv-x="0" d="M-240 -393l494 96v-172l-494 -96v172z" />
<glyph unicode="&#x651;" horiz-adv-x="0" d="M-246 1784q0 25 2 61.5t4 38.5l134 27v-154q0 -23 5 -31t10 -8h7q45 12 45 62v104l86 19v-140q0 -16 11.5 -16h13.5l30 4v195l123 26q12 -61 16.5 -95t4.5 -79v-166l-148 -28l-15 -1t-52 23q-16 -31 -49 -47t-72 -16q-37 0 -74 16q-4 4 -27.5 24.5t-39 67.5t-15.5 113z " />
<glyph unicode="&#x652;" horiz-adv-x="0" d="M-211 1636q0 96 61.5 162t147.5 66q88 0 148.5 -65.5t60.5 -162.5q0 -90 -61.5 -154.5t-147.5 -64.5t-147.5 64.5t-61.5 154.5zM-70 1636q0 -29 19.5 -49t46.5 -20q31 0 50.5 20.5t19.5 48.5q0 35 -19.5 57.5t-50.5 22.5q-27 0 -46.5 -22.5t-19.5 -57.5z" />
<glyph unicode="&#x653;" horiz-adv-x="0" d="M-279 1763q86 90 173 90q39 0 94 -21.5t63 -25.5q92 -41 99 -41q12 0 65 45l35 35l63 -200q-86 -86 -166 -86q-32 0 -87.5 21.5t-67.5 25.5q-14 8 -54 24.5t-51 16.5q-12 0 -40.5 -24t-28.5 -21l-35 -37z" />
<glyph unicode="&#x654;" horiz-adv-x="0" d="M-197 1581l91 23q-86 74 -87 180q0 90 65 155.5t167 65.5q78 0 166 -49l-31 -154q-35 29 -80 29q-43 0 -69.5 -28.5t-26.5 -67.5q0 -61 51 -90l215 57l33 -146l-469 -92z" />
<glyph unicode="&#x655;" horiz-adv-x="0" d="M-199 -535l90 25q-43 35 -64.5 82t-21.5 96q0 90 64.5 155.5t167.5 65.5q84 0 168 -49l-31 -151q-12 8 -33.5 17t-48.5 9q-43 0 -69.5 -28.5t-26.5 -67.5q0 -27 13.5 -50.5t39.5 -37.5l213 55l33 -145l-469 -92z" />
<glyph unicode="&#x656;" horiz-adv-x="0" d="M-92 31l184 84v-502l-184 -86v504z" />
<glyph unicode="&#x658;" horiz-adv-x="0" d="M-229 1559q0 29 18 165l6 48l117 -5q-8 -43 -14.5 -100t-8.5 -86q0 -35 32 -64.5t77 -29.5q47 0 77.5 28.5t30.5 59.5v362h123v-370q0 -113 -77.5 -152t-147.5 -39q-43 0 -97 17.5t-95 58.5t-41 107z" />
<glyph unicode="&#x660;" horiz-adv-x="737" d="M164 309v465h409v-465h-409z" />
<glyph unicode="&#x661;" horiz-adv-x="710" d="M178 0v1352h352v-1352h-352z" />
<glyph unicode="&#x662;" horiz-adv-x="1167" d="M186 0v1352h353v-236q0 -70 24.5 -103.5t104.5 -33.5q49 0 77.5 38t28.5 83v252h352v-254q0 -113 -50 -214.5t-148.5 -166t-235.5 -64.5q-84 0 -153 17v-670h-353z" />
<glyph unicode="&#x663;" horiz-adv-x="1257" d="M190 0v1352h359v-215q0 -90 5 -121t21 -31q18 0 25.5 33t7.5 119v215h228v-215q0 -63 10 -107.5t33 -44.5t33 44t10 108v215h315v-219q0 -221 -94 -345t-262 -124q-45 0 -82 20.5t-80 63.5q-47 -45 -76 -64.5t-59 -19.5q-27 0 -41 10v-674h-353z" />
<glyph unicode="&#x664;" horiz-adv-x="925" d="M109 319q0 96 42 176t98 132.5t101 77.5q-121 39 -168 118.5t-47 161.5q0 109 75 197t200 137t266 49q2 0 9 1t32 1q29 0 47 -2l-47 -287h-45q-74 0 -127 -42t-53 -91q0 -70 55 -69h198l-22 -232q-111 -10 -187.5 -67.5t-76.5 -133.5q0 -72 58 -98t118 -26h205v-322h-279 q-92 0 -194.5 25.5t-180 97.5t-77.5 196z" />
<glyph unicode="&#x665;" horiz-adv-x="1384" d="M96 666q0 160 48.5 315.5t180.5 266t367 110.5q236 0 368 -111.5t180 -266.5t48 -314q0 -172 -53 -324t-186.5 -252t-356.5 -100q-323 0 -459.5 199.5t-136.5 476.5zM449 668q0 -147 55 -253t188 -106t188.5 106.5t55.5 252.5q0 139 -53.5 253.5t-190.5 114.5 t-190 -113.5t-53 -254.5z" />
<glyph unicode="&#x666;" horiz-adv-x="1001" d="M2 1016v336h817v-1352h-352v1016h-465z" />
<glyph unicode="&#x667;" horiz-adv-x="1247" d="M-6 1362h383q25 -133 88 -401.5t158 -610.5h4q150 520 245 965l11 47h374l-464 -1362h-349z" />
<glyph unicode="&#x668;" horiz-adv-x="1247" d="M-6 0l450 1362h349l464 -1362h-374q-8 39 -9 43q-106 483 -247 971h-4q-94 -346 -158 -614.5t-88 -399.5h-383z" />
<glyph unicode="&#x669;" horiz-adv-x="1245" d="M-10 905q0 201 140 324t466 123q119 0 247 -17.5t214 -38.5v-1296h-352v514q-76 -8 -164 -8q-150 0 -267.5 26.5t-200.5 114.5t-83 258zM342 938q-4 -31 28.5 -63.5t168.5 -32.5q84 0 166 16v150q-41 8 -80 8h-50q-117 0 -169 -18.5t-54 -22.5t-10 -37zM342 938v2v-2z " />
<glyph unicode="&#x66a;" d="M10 0zM10 1071q0 307 258 307q260 0 260 -307q0 -154 -63.5 -229.5t-196.5 -75.5q-131 0 -194.5 77t-63.5 228zM215 -23l522 1479l185 -67l-523 -1473zM260 1069q0 -98 8 -98t8 98q0 45 -3 76t-5 31q-8 0 -8 -107zM616 276q0 309 261 310q131 0 195.5 -77t64.5 -233 q0 -152 -62.5 -227.5t-195.5 -75.5q-134 0 -198.5 76t-64.5 227zM870 276q0 -100 7 -100q2 0 5 28.5t3 74.5q0 43 -3 72.5t-5 29.5q-2 -6 -4.5 -34t-2.5 -71z" />
<glyph unicode="&#x66b;" horiz-adv-x="628" d="M23 -252l106 574h393l-217 -574h-282z" />
<glyph unicode="&#x66c;" horiz-adv-x="333" d="M35 -123l57 297h205l-111 -297h-151z" />
<glyph unicode="&#x66d;" horiz-adv-x="876" d="M63 938l211 158l-204 145l114 158l201 -144l78 242l188 -63l-76 -244h244v-184h-239l73 -240l-182 -53l-84 239l-207 -161z" />
<glyph unicode="&#x66e;" horiz-adv-x="1828" d="M111 436q0 90 19.5 193.5t43.5 179.5l287 -16q2 23 -15 -125q-14 -121 -14 -150q0 -72 52.5 -134t195.5 -62h668v702h352v-1024h-967q-174 0 -301 22.5t-224 118t-97 295.5z" />
<glyph unicode="&#x66f;" horiz-adv-x="1914" d="M82 -74q0 172 90 682l328 -55l-21 -129q-29 -184 -44 -295t-15 -178q0 -231 223 -232h586q125 0 175 68t50 158v55h-225q-180 0 -272.5 28.5t-139.5 132t-47 322.5q0 244 59.5 357.5t180 146.5t362.5 33q184 0 295 -12l139 -17v-1071q0 -131 -61.5 -250t-192.5 -195.5 t-329 -76.5h-576q-201 0 -327.5 76.5t-182 195.5t-55.5 256zM1122 485q0 -71 11.5 -107t33 -47.5t60.5 -11.5l80 3h147v374h-80q-109 0 -156 -9t-71.5 -53t-24.5 -149z" />
<glyph unicode="&#x670;" horiz-adv-x="0" d="M-94 1430v501l188 88v-506z" />
<glyph unicode="&#x671;" horiz-adv-x="686" d="M76 0zM76 1370v156h76q0 51 33.5 110.5t91 99t121.5 39.5q82 0 129 -63.5t47 -185.5v-156h-498zM150 0v1233h352v-1233h-352zM250 1526h201q0 63 -14.5 91.5t-55.5 28.5q-51 0 -91 -37.5t-40 -82.5z" />
<glyph unicode="&#x679;" horiz-adv-x="1828" d="M111 0zM111 436q0 90 19.5 193.5t43.5 179.5l287 -16q2 23 -15 -125q-14 -121 -14 -150q0 -72 52.5 -134t195.5 -62h668v702h352v-1024h-967q-174 0 -301 22.5t-224 118t-97 295.5zM674 1024v139h10v467h115v-325q35 63 92 100t109 37q67 0 122.5 -55.5t55.5 -145.5v-217 h-504zM799 1163h274v78q0 33 -31.5 56.5t-74.5 23.5t-82 -23.5t-62.5 -57.5t-23.5 -67v-10z" />
<glyph unicode="&#x67e;" horiz-adv-x="1828" d="M111 0zM111 436q0 90 19.5 193.5t43.5 179.5l287 -16q2 23 -15 -125q-14 -121 -14 -150q0 -72 52.5 -134t195.5 -62h668v702h352v-1024h-967q-174 0 -301 22.5t-224 118t-97 295.5zM615 -164h248v-294h-248v294zM801 -491h225v-271h-225v271zM963 -164h248v-294h-248v294 z" />
<glyph unicode="&#x686;" horiz-adv-x="1308" d="M47 -131q0 213 111.5 331.5t333.5 118.5q74 0 180 -16q78 -8 88 -8v299q0 82 -26.5 119t-110.5 37q-33 -2 -129 -2h-199h-113l-8 227q104 31 266 50t281 19q154 0 238.5 -38.5t117.5 -109.5t35 -181v-715h-352q-49 6 -99.5 10t-85.5 4q-80 0 -129 -46t-49 -126 q0 -73 48.5 -122.5t144.5 -49.5l45 -311l-43 -2q-49 -4 -74 -4q-221 0 -346 140t-125 376zM727 -123h240v-280h-240v280zM772 297q4 0 0 4v-4zM893 -444h225v-263h-225v263zM1038 -123h240v-280h-240v280z" />
<glyph unicode="&#x688;" horiz-adv-x="1120" d="M82 0v322h651q-6 223 -94 323t-209 100h-235l-27 281q231 47 352 47q178 0 305 -90t193.5 -258t66.5 -397v-328h-1003zM82 0zM168 1270v139h10v467h115v-325q35 63 92 100t109 37q67 0 122.5 -55.5t55.5 -145.5v-217h-504zM293 1409h274v78q0 33 -31.5 56.5t-74.5 23.5 t-82 -23.5t-62.5 -57.5t-23.5 -67v-10z" />
<glyph unicode="&#x691;" horiz-adv-x="681" d="M82 0zM82 -182l31 -2q111 0 110 168v1042h352v-991q0 -250 -86 -395.5t-260 -145.5q-45 0 -147 6v318zM162 1215v139h10v467h115v-325q35 63 92 100t109 37q67 0 122.5 -55.5t55.5 -145.5v-217h-504zM287 1354h274v78q0 33 -31.5 56.5t-74.5 23.5t-82 -23.5t-62.5 -57.5 t-23.5 -67v-10z" />
<glyph unicode="&#x698;" horiz-adv-x="681" d="M82 0zM82 -182l31 -2q111 0 110 168v1042h352v-991q0 -250 -86 -395.5t-260 -145.5q-45 0 -147 6v318zM103 1214v295h248v-295h-248zM289 1542v270h225v-270h-225zM451 1214v295h248v-295h-248z" />
<glyph unicode="&#x6a1;" horiz-adv-x="2125" d="M82 440q0 156 61 369l287 -16q-4 -45 -8 -68q-18 -178 -19 -207q0 -72 52.5 -134t195.5 -62h371q-29 131 -29 241q0 250 146.5 354.5t445.5 104.5q182 0 313 -14l140 -17v-991h-1333q-174 0 -301.5 22.5t-224.5 119t-97 298.5zM1018 289q2 -4 5 -4t3 4h-8zM1354 451 q0 -59 10 -129h322v380q-82 4 -105 5q-102 0 -147 -15.5t-62.5 -68t-17.5 -172.5z" />
<glyph unicode="&#x6a4;" horiz-adv-x="2125" d="M82 0zM82 440q0 156 61 369l287 -16q-4 -45 -8 -68q-18 -178 -19 -207q0 -72 52.5 -134t195.5 -62h371q-29 131 -29 241q0 250 146.5 354.5t445.5 104.5q182 0 313 -14l140 -17v-991h-1333q-174 0 -301.5 22.5t-224.5 119t-97 298.5zM1018 289q2 -4 5 -4t3 4h-8z M1202 1214v295h248v-295h-248zM1354 451q0 -59 10 -129h322v380q-82 4 -105 5q-102 0 -147 -15.5t-62.5 -68t-17.5 -172.5zM1388 1542v270h225v-270h-225zM1550 1214v295h248v-295h-248z" />
<glyph unicode="&#x6a9;" horiz-adv-x="1896" d="M82 436q0 76 13.5 159t33.5 150l297 -16l-8 -70q-14 -119 -15 -141q0 -72 52.5 -134t195.5 -62h873v223q0 70 -25.5 115t-61.5 65t-63 18h-545l-165 224l133 260q43 88 109.5 174t117.5 135l264 -150q-16 -18 -75.5 -113t-108.5 -190l-10 -18h346q192 0 288.5 -106.5 t122 -221t25.5 -194.5v-543h-1171q-174 0 -301.5 22.5t-224.5 118t-97 295.5zM1288 1386z" />
<glyph unicode="&#x6af;" horiz-adv-x="1896" d="M82 0zM82 436q0 76 13.5 159t33.5 150l297 -16l-8 -70q-14 -119 -15 -141q0 -72 52.5 -134t195.5 -62h873v223q0 70 -25.5 115t-61.5 65t-63 18h-545l-165 224l133 260q43 88 109.5 174t117.5 135l264 -150q-16 -18 -75.5 -113t-108.5 -190l-10 -18h346 q192 0 288.5 -106.5t122 -221t25.5 -194.5v-543h-1171q-174 0 -301.5 22.5t-224.5 118t-97 295.5zM443 1278l82 158q55 104 116.5 189.5t69.5 95.5l219 -123q-43 -49 -101.5 -130t-109.5 -175l-112 -232zM1288 1386z" />
<glyph unicode="&#x6ba;" horiz-adv-x="1439" d="M82 8q0 115 68 557l329 -18q-18 -125 -38.5 -287t-20.5 -211q0 -59 36 -113.5t102.5 -88t150.5 -33.5q90 0 152.5 35.5t92 89t29.5 104.5v981h352v-1018q0 -129 -69.5 -246.5t-208.5 -192.5t-334 -75q-188 0 -334.5 70.5t-226.5 189.5t-80 256z" />
<glyph unicode="&#x6be;" horiz-adv-x="1648" d="M82 0v322h88v32q-2 113 56.5 220.5t164 175t242.5 67.5t240.5 -68.5t160 -174t56.5 -216.5v-36h118v235q0 184 -77.5 284.5t-181 135.5t-199.5 35q-74 0 -173.5 -13.5t-285.5 -44.5q-16 -4 -45 -8l-31 289q195 47 344.5 72.5t271.5 25.5q263 0 425.5 -111.5t233.5 -286.5 t71 -378v-557h-1479zM524 322h213v32q0 59 -31.5 101.5t-76.5 42.5t-75 -42t-30 -104v-30z" />
<glyph unicode="&#x6c1;" horiz-adv-x="1314" d="M82 0zM82 539q0 217 59.5 324.5t188.5 144t375 36.5q137 0 300.5 -9t219.5 -19v-1016h-551q-219 0 -342 37t-186.5 152.5t-63.5 349.5zM434 537q0 -99 27.5 -145t77 -58t141.5 -12h192v395q-129 6 -172 6q-109 0 -162 -11.5t-78.5 -51t-25.5 -123.5z" />
<glyph unicode="&#x6c2;" horiz-adv-x="1314" d="M82 0zM82 539q0 217 59.5 324.5t188.5 144t375 36.5q137 0 300.5 -9t219.5 -19v-1016h-551q-219 0 -342 37t-186.5 152.5t-63.5 349.5zM434 537q0 -99 27.5 -145t77 -58t141.5 -12h192v395q-129 6 -172 6q-109 0 -162 -11.5t-78.5 -51t-25.5 -123.5zM471 1401l91 23 q-86 74 -87 180q0 90 65 155.5t167 65.5q78 0 166 -49l-31 -154q-35 29 -80 29q-43 0 -69.5 -28.5t-26.5 -67.5q0 -61 51 -90l215 57l33 -146l-469 -92z" />
<glyph unicode="&#x6c3;" horiz-adv-x="1314" d="M82 0zM82 539q0 217 59.5 324.5t188.5 144t375 36.5q137 0 300.5 -9t219.5 -19v-1016h-551q-219 0 -342 37t-186.5 152.5t-63.5 349.5zM428 1215v311h248v-311h-248zM434 537q0 -99 27.5 -145t77 -58t141.5 -12h192v395q-129 6 -172 6q-109 0 -162 -11.5t-78.5 -51 t-25.5 -123.5zM776 1215v311h248v-311h-248z" />
<glyph unicode="&#x6cc;" horiz-adv-x="1943" d="M82 0zM82 14q0 80 19.5 197t37.5 184l326 -53q-8 -59 -19.5 -152.5t-11.5 -130.5q0 -100 75 -172.5t208 -72.5l581 2q63 0 94 11t48.5 58t17.5 154q0 37 -31.5 55.5t-99.5 38.5q-41 10 -76 25q-231 78 -328.5 178t-97.5 252q0 215 131 325.5t357 110.5q94 0 183 -13.5 t296 -52.5l-29 -282q-266 31 -409 31q-168 0 -168 -91q0 -31 41 -53t131 -55q78 -29 115 -45q139 -55 210.5 -103.5t104.5 -117t33 -181.5q0 -313 -134.5 -441t-367.5 -128h-592q-137 0 -286.5 52.5t-254 169t-104.5 300.5z" />
<glyph unicode="&#x6d2;" horiz-adv-x="1538" d="M76 -53q0 109 20.5 212t46.5 163h684q152 0 205 51t53 121q0 18 -2 29.5t-2 17.5v311h355v-309q0 -231 -126 -387t-462 -156h-428v-16q0 -100 38 -133t99 -33l57 2h660v-322h-572h-118q-160 0 -265.5 28t-174 125t-68.5 296z" />
<glyph unicode="&#x6d3;" horiz-adv-x="1538" d="M76 0zM76 -53q0 109 20.5 212t46.5 163h684q152 0 205 51t53 121q0 18 -2 29.5t-2 17.5v311h355v-309q0 -231 -126 -387t-462 -156h-428v-16q0 -100 38 -133t99 -33l57 2h660v-322h-572h-118q-160 0 -265.5 28t-174 125t-68.5 296zM241 657l91 23q-86 74 -87 180 q0 90 65 155.5t167 65.5q78 0 166 -49l-31 -154q-35 29 -80 29q-43 0 -69.5 -28.5t-26.5 -67.5q0 -61 51 -90l215 57l33 -146l-469 -92z" />
<glyph unicode="&#x6d4;" horiz-adv-x="579" d="M100 0v412h379v-412h-379z" />
<glyph unicode="&#x6f0;" horiz-adv-x="737" d="M164 309v465h409v-465h-409zM164 309z" />
<glyph unicode="&#x6f1;" horiz-adv-x="710" d="M178 0v1352h352v-1352h-352zM178 0z" />
<glyph unicode="&#x6f2;" horiz-adv-x="1167" d="M186 0v1352h353v-236q0 -70 24.5 -103.5t104.5 -33.5q49 0 77.5 38t28.5 83v252h352v-254q0 -113 -50 -214.5t-148.5 -166t-235.5 -64.5q-84 0 -153 17v-670h-353zM186 0z" />
<glyph unicode="&#x6f3;" horiz-adv-x="1200" d="M190 0v1352h359v-215q0 -90 5 -121t21 -31q18 0 25.5 33t7.5 119v215h228v-215q0 -63 10 -107.5t33 -44.5t33 44t10 108v215h315v-219q0 -221 -94 -345t-262 -124q-45 0 -82 20.5t-80 63.5q-47 -45 -76 -64.5t-59 -19.5q-27 0 -41 10v-674h-353zM190 0z" />
<glyph unicode="&#x6f4;" horiz-adv-x="1501" d="M182 0v1352h353v-236q0 -51 21.5 -79.5t98.5 -43.5q-8 27 -8 64q0 92 58.5 141t158.5 49q80 0 185 -16l-15 -172q-20 8 -65 8q-57 0 -87 -23.5t-32 -64.5h2q164 0 228.5 36t64.5 85v127h352v-129q0 -193 -136 -319t-472 -126q-164 0 -232.5 4.5t-121.5 12.5v-670h-353z " />
<glyph unicode="&#x6f5;" horiz-adv-x="1359" d="M88 473q0 223 90 418.5t248 329.5q-84 70 -117 94l-39 31l199 241q141 -43 332.5 -191.5t332 -371.5t140.5 -479q0 -185 -68.5 -370t-314.5 -185q-135 0 -217 63q2 12 -29 -7t-73 -37.5t-105 -18.5q-78 0 -163 36.5t-150.5 144.5t-65.5 302zM440 512q0 -59 9.5 -101 t20.5 -63.5t17 -21.5t12.5 12t12.5 29q27 63 62.5 104t107.5 41q78 0 115 -45t54 -93t21 -48q0 -4 13.5 17.5t25 61t11.5 97.5q0 238 -106.5 364.5t-110.5 134.5q0 -2 -132.5 -103t-132.5 -386z" />
<glyph unicode="&#x6f6;" horiz-adv-x="839" d="M109 319q0 96 42 176t98 132.5t101 77.5q-121 39 -168 118.5t-47 161.5q0 109 75 197t200 137t266 49q2 0 9 1t32 1q29 0 47 -2l-47 -287h-45q-74 0 -127 -42t-53 -91q0 -69 55 -69h198l-22 -232q-111 -10 -187.5 -67.5t-76.5 -133.5z" />
<glyph unicode="&#x6f7;" horiz-adv-x="1247" d="M-6 1362h383q25 -133 88 -401.5t158 -610.5h4q150 520 245 965l11 47h374l-464 -1362h-349zM0 0z" />
<glyph unicode="&#x6f8;" horiz-adv-x="1247" d="M-6 0l450 1362h349l464 -1362h-374q-8 39 -9 43q-106 483 -247 971h-4q-94 -346 -158 -614.5t-88 -399.5h-383zM0 0z" />
<glyph unicode="&#x6f9;" horiz-adv-x="1245" d="M-10 905q0 201 140 324t466 123q119 0 247 -17.5t214 -38.5v-1296h-352v514q-76 -8 -164 -8q-150 0 -267.5 26.5t-200.5 114.5t-83 258zM0 0zM342 938q-4 -31 28.5 -63.5t168.5 -32.5q84 0 166 16v150q-41 8 -80 8h-50q-117 0 -169 -18.5t-54 -22.5t-10 -37zM342 938v2 v-2z" />
<glyph unicode="&#x1e80;" horiz-adv-x="1964" d="M25 0zM25 1376h385l125 -1067h12l223 1075h424l223 -1075h13l124 1067h388l-252 -1376h-521l-186 958l-186 -958h-523zM678 1634l105 320l565 -225l-80 -244z" />
<glyph unicode="&#x1e81;" horiz-adv-x="1595" d="M39 0zM39 1024h348l72 -723h59l96 703h365l98 -703h58l71 723h348l-161 -1024h-545l-51 510l-49 -510h-547zM439 1255l102 306l565 -215l-73 -228z" />
<glyph unicode="&#x1e82;" horiz-adv-x="1964" d="M25 0zM25 1376h385l125 -1067h12l223 1075h424l223 -1075h13l124 1067h388l-252 -1376h-521l-186 958l-186 -958h-523zM670 1729l565 225l104 -320l-589 -149z" />
<glyph unicode="&#x1e83;" horiz-adv-x="1595" d="M39 0zM39 1024h348l72 -723h59l96 703h365l98 -703h58l71 723h348l-161 -1024h-545l-51 510l-49 -510h-547zM480 1346l565 215l100 -306l-592 -137z" />
<glyph unicode="&#x1e84;" horiz-adv-x="1964" d="M25 0zM25 1376h385l125 -1067h12l223 1075h424l223 -1075h13l124 1067h388l-252 -1376h-521l-186 958l-186 -958h-523zM581 1505v328h336v-328h-336zM1040 1505v328h338v-328h-338z" />
<glyph unicode="&#x1e85;" horiz-adv-x="1595" d="M39 0zM39 1024h348l72 -723h59l96 703h365l98 -703h58l71 723h348l-161 -1024h-545l-51 510l-49 -510h-547zM401 1186v327h338v-327h-338zM866 1186v327h336v-327h-336z" />
<glyph unicode="&#x1eab;" horiz-adv-x="1060" d="M45 0zM45 326q0 170 91 238.5t296 78.5l152 8v47q0 35 -17.5 44.5t-72.5 9.5l-185 -4q-176 -8 -188 -5l-8 240q221 68 430 68q211 0 303 -83t92 -270v-360q2 -23 4 -50.5t8 -36.5t23 -13l-10 -265q-127 0 -189.5 11.5t-136.5 52.5q-127 -63 -256 -64q-170 0 -253 87 t-83 266zM107 1110l262 324h217l266 -324h-317l-58 111l-53 -111h-317zM112 1737q37 45 111 89t121 44q49 0 135 -31q84 -29 110 -28q63 0 148 45l28 18l76 -194q-8 -14 -51 -50t-94 -64t-92 -28q-46 0 -138 29q-86 31 -112 31q-61 0 -139 -39l-27 -13zM399 322 q0 -63 64 -64q32 0 100 10l21 2v142l-109 -9q-35 -4 -55.5 -24.5t-20.5 -56.5z" />
<glyph unicode="&#x1eb0;" horiz-adv-x="1234" d="M25 0l264 1376h663l265 -1376h-369l-27 176h-401l-27 -176h-368zM25 0zM186 2021l105 320l565 -225l-80 -244zM213 1763h320q25 -92 102 -92q41 0 67.5 25.5t37.5 66.5h317q-55 -338 -424 -337q-365 -1 -420 337zM481 492h279l-94 585h-91z" />
<glyph unicode="&#x1ec5;" horiz-adv-x="1054" d="M57 0zM57 489q0 281 118 421.5t360 140.5q223 0 342.5 -115t119.5 -336l-28 -240h-553q6 -37 23.5 -53t48 -19t104.5 -3t175 4t138 8l56 6l4 -256q-227 -74 -439 -74q-245 0 -357 121t-112 395zM155 1737q37 45 111 89t121 44q49 0 135 -31q84 -29 110 -28q63 0 148 45 l28 18l76 -194q-8 -14 -51 -50t-94 -64t-92 -28q-46 0 -138 29q-86 31 -112 31q-61 0 -139 -39l-27 -13zM178 1110l262 324h217l266 -324h-317l-58 111l-53 -111h-317zM414 627h235q0 80 -24.5 107.5t-94.5 27.5t-92 -27.5t-24 -107.5z" />
<glyph unicode="&#x1ed7;" horiz-adv-x="1095" d="M55 0zM55 520q0 154 59.5 273.5t170 188.5t262.5 69t263.5 -68t170.5 -187.5t59 -275.5q0 -160 -60 -283.5t-173 -193.5t-260 -70q-148 0 -259.5 70t-172 194.5t-60.5 282.5zM162 1737q37 45 111 89t121 44q49 0 135 -31q84 -29 110 -28q63 0 148 45l28 18l76 -194 q-8 -14 -51 -50t-94 -64t-92 -28q-46 0 -138 29q-86 31 -112 31q-61 0 -139 -39l-27 -13zM185 1110l262 324h217l266 -324h-317l-58 111l-53 -111h-317zM414 520q0 -123 40 -185.5t93 -62.5t94 62.5t41 185.5q0 113 -39 172.5t-96 59.5t-95 -59.5t-38 -172.5z" />
<glyph unicode="&#x1ef2;" horiz-adv-x="1167" d="M-14 1376h403l193 -483l192 483h404l-410 -835v-541h-367v541zM0 0zM288 1634l105 320l565 -225l-80 -244z" />
<glyph unicode="&#x1ef3;" horiz-adv-x="1046" d="M20 0zM20 1024h349l139 -723h35l137 723h348l-315 -1438h-346l100 414h-221zM131 1255l102 306l565 -215l-73 -228z" />
<glyph unicode="&#x1ef8;" horiz-adv-x="1122" d="M-14 1376h403l193 -483l192 483h404l-410 -835v-541h-367v541zM0 0zM154 1747q47 57 117.5 98t138.5 41q63 0 192 -41t150 -41q51 0 149 62l31 18l76 -254q-2 -2 -79 -70.5t-173 -68.5q-58 0 -191 41l-51 14q-96 29 -110 29q-49 0 -146 -62l-28 -16z" />
<glyph unicode="&#x1ef9;" horiz-adv-x="1046" d="M20 0zM20 1024h349l139 -723h35l137 723h348l-315 -1438h-346l100 414h-221zM160 1360q37 45 111 89t121 44q49 0 135 -31q84 -29 110 -28q63 0 148 45l28 18l76 -194q-8 -14 -51 -50t-94 -64t-92 -28q-46 0 -138 29q-86 31 -112 31q-61 0 -139 -39l-27 -13z" />
<glyph unicode="&#x2000;" horiz-adv-x="1333" />
<glyph unicode="&#x2001;" horiz-adv-x="2666" />
<glyph unicode="&#x2002;" horiz-adv-x="1333" />
<glyph unicode="&#x2003;" horiz-adv-x="2666" />
<glyph unicode="&#x2004;" horiz-adv-x="888" />
<glyph unicode="&#x2005;" horiz-adv-x="666" />
<glyph unicode="&#x2006;" horiz-adv-x="444" />
<glyph unicode="&#x2007;" horiz-adv-x="444" />
<glyph unicode="&#x2008;" horiz-adv-x="333" />
<glyph unicode="&#x2009;" horiz-adv-x="533" />
<glyph unicode="&#x200a;" horiz-adv-x="148" />
<glyph unicode="&#x2010;" horiz-adv-x="794" d="M98 373v319h596v-319h-596z" />
<glyph unicode="&#x2011;" horiz-adv-x="794" d="M98 373v319h596v-319h-596z" />
<glyph unicode="&#x2012;" horiz-adv-x="794" d="M98 373v319h596v-319h-596z" />
<glyph unicode="&#x2013;" horiz-adv-x="1234" d="M104 393v299h1024v-299h-1024z" />
<glyph unicode="&#x2014;" horiz-adv-x="2258" d="M104 393v299h2048v-299h-2048z" />
<glyph unicode="&#x2018;" horiz-adv-x="585" d="M49 807l203 545h272l-104 -545h-371z" />
<glyph unicode="&#x2019;" horiz-adv-x="571" d="M68 811l104 543h369l-203 -543h-270z" />
<glyph unicode="&#x201a;" horiz-adv-x="575" d="M-49 -430l176 903h500l-308 -903h-368z" />
<glyph unicode="&#x201c;" horiz-adv-x="1003" d="M49 807l203 545h272l-104 -545h-371zM469 807l203 545h270l-102 -545h-371z" />
<glyph unicode="&#x201d;" horiz-adv-x="983" d="M-152 809l105 545h371l-203 -545h-273zM686 809l105 545h368l-203 -545h-270z" />
<glyph unicode="&#x201e;" horiz-adv-x="946" d="M-53 -297l203 543h270l-105 -543h-368zM365 -297l202 543h273l-105 -543h-370z" />
<glyph unicode="&#x2020;" horiz-adv-x="985" d="M49 725v299h266v352h357v-352h264v-299h-264l-29 -864h-299l-29 864h-266z" />
<glyph unicode="&#x2021;" horiz-adv-x="1036" d="M76 213v301h264v211h-264v299h264v352h356v-352h262v-299h-262v-211h265v-301h-265v-352h-356v352h-264z" />
<glyph unicode="&#x2022;" horiz-adv-x="890" d="M190 197v565h512v-565h-512z" />
<glyph unicode="&#x2026;" horiz-adv-x="1624" d="M100 0v412h379v-412h-379zM623 0v412h381v-412h-381zM1145 0v412h381v-412h-381z" />
<glyph unicode="&#x202f;" horiz-adv-x="533" />
<glyph unicode="&#x2030;" horiz-adv-x="1744" d="M47 1073q0 305 260 305q258 0 258 -305q0 -154 -62.5 -230.5t-195.5 -76.5t-196.5 77t-63.5 230zM252 -23l522 1479l184 -67l-522 -1473zM299 1073q0 -45 1 -73.5t5 -28.5q8 0 8 102t-8 103q-2 -6 -4 -33t-2 -70zM655 276q0 309 258 310q262 0 263 -307 q0 -154 -63.5 -230t-197.5 -76q-133 0 -196.5 76t-63.5 227zM907 276q0 -100 8 -100q3 6 5 33t2 70t-3.5 72.5t-5.5 29.5q-2 -6 -4 -34t-2 -71zM1182 276q0 309 258 310q262 0 262 -307q0 -154 -63.5 -230t-198.5 -76q-133 0 -195.5 76t-62.5 227zM1434 276q0 -43 1 -71.5 t5 -28.5q2 0 5 28.5t3 74.5q0 43 -3 72.5t-5 29.5q-2 -6 -4 -34t-2 -71z" />
<glyph unicode="&#x2039;" horiz-adv-x="673" d="M76 365v245l502 365v-357l-203 -126l203 -150v-354z" />
<glyph unicode="&#x203a;" horiz-adv-x="673" d="M92 20v355l203 151l-203 127v357l504 -365v-246z" />
<glyph unicode="&#x2044;" horiz-adv-x="34" d="M-459 61l807 1295l125 -84l-805 -1301z" />
<glyph unicode="&#x205f;" horiz-adv-x="666" />
<glyph unicode="&#x2070;" horiz-adv-x="600" d="M8 1303q0 133 27.5 210.5t92.5 113.5t175 36q111 0 173.5 -35t89 -112.5t26.5 -212.5t-27.5 -213t-90 -114t-173.5 -36t-174.5 36t-91 113.5t-27.5 213.5zM264 1303q0 -82 8.5 -114t28.5 -32q21 0 29 33t8 113q0 78 -8 111.5t-29 33.5q-20 0 -28.5 -34t-8.5 -111z" />
<glyph unicode="&#x2074;" horiz-adv-x="612" d="M27 1018v168l94 434h272l-135 -408h51v95l254 32v-127h25v-194h-25v-84h-254v84h-282z" />
<glyph unicode="&#x2075;" horiz-adv-x="589" d="M33 993l18 166q129 -20 228 -20q45 0 45 26q0 29 -43 29l-80 -12l-150 18l15 432h473v-200h-297l-6 -46q51 14 102 15q125 0 175 -45t50 -170q0 -123 -65.5 -177.5t-196.5 -54.5q-94 0 -223 29z" />
<glyph unicode="&#x2076;" horiz-adv-x="581" d="M14 1315q0 180 74 263t215 83q63 0 191 -25l38 -8l-16 -172q-125 16 -178 17q-61 0 -80.5 -15.5t-24.5 -54.5q55 18 86 18q129 0 188.5 -55t59.5 -178q0 -233 -276 -234q-148 0 -212.5 85t-64.5 276zM233 1227q0 -51 11.5 -69.5t46.5 -18.5q49 0 49 51q0 49 -47 49 q-35 0 -60 -12z" />
<glyph unicode="&#x2077;" horiz-adv-x="573" d="M41 1004l172 325v14h-166v275h494v-240l-181 -422z" />
<glyph unicode="&#x2078;" horiz-adv-x="661" d="M12 1133q0 47 16.5 83.5t37.5 55.5q14 12 63 41q-59 35 -81.5 70.5t-22.5 107.5q0 203 305 203q158 0 231.5 -44t73.5 -159q0 -72 -22.5 -107.5t-82.5 -72.5q70 -35 93.5 -71t23.5 -114t-44 -129t-114 -67t-159 -17q-318 1 -318 220zM285 1153q0 -47 45 -47t45 51 q0 35 -29 68h-31q-31 -27 -30 -72zM295 1454q0 -23 20 -57h31q20 25 21 65q0 43 -35 43q-37 0 -37 -51z" />
<glyph unicode="&#x2079;" horiz-adv-x="598" d="M16 1440q0 244 279 243q152 0 220.5 -89t68.5 -285q0 -190 -77 -277.5t-224 -87.5q-78 0 -205 27l-43 8l16 180q133 -18 199 -18q61 0 80.5 16.5t23.5 56.5q-55 -18 -88 -18q-127 0 -188.5 58.5t-61.5 185.5zM246 1438q0 -53 47 -54q26 1 61 15q0 53 -11 71.5t-48 18.5 q-49 0 -49 -51z" />
<glyph unicode="&#x2080;" horiz-adv-x="600" d="M8 0zM8 119q0 133 27.5 210.5t92.5 113.5t175 36q111 0 173.5 -35t89 -112.5t26.5 -212.5t-27.5 -213t-90 -114t-173.5 -36t-174.5 36t-91 113.5t-27.5 213.5zM264 119q0 -82 8.5 -114t28.5 -32q21 0 29 33t8 113q0 78 -8 111.5t-29 33.5q-20 0 -28.5 -34t-8.5 -111z" />
<glyph unicode="&#x2081;" horiz-adv-x="573" d="M-10 274l225 160h246v-639h-275v336l-67 -45zM0 0z" />
<glyph unicode="&#x2082;" horiz-adv-x="573" d="M31 27l129 84q88 57 88 79q-4 0 -18.5 1.5t-41.5 1.5l-143 -9l-12 260q201 14 284 15q221 0 222 -180q0 -98 -23.5 -144.5t-83.5 -81.5l-45 -12h148v-246h-504v232z" />
<glyph unicode="&#x2083;" horiz-adv-x="716" d="M68 0zM68 -264l6 206q139 -12 188 -12q63 0 84 5t21 36q0 35 -64 37h-168v209h158q63 0 63 37t-82 37l-194 -11l-6 203q150 33 235 33q180 0 257 -50.5t77 -174.5q0 -63 -16.5 -98.5t-57.5 -63.5q47 -37 65.5 -71t18.5 -93q0 -143 -74.5 -202.5t-240.5 -59.5 q-98 -1 -227 24z" />
<glyph unicode="&#x2084;" horiz-adv-x="612" d="M27 2l94 434h272l-135 -407h51v94l254 33v-127h25v-195h-25v-84h-254v84h-282v168z" />
<glyph unicode="&#x2085;" horiz-adv-x="589" d="M33 0zM33 -191l18 166q129 -20 228 -20q45 0 45 26q0 29 -43 29l-80 -12l-150 18l15 432h473v-200h-297l-6 -46q51 14 102 15q125 0 175 -45t50 -170q0 -123 -65.5 -177.5t-196.5 -54.5q-94 0 -223 29z" />
<glyph unicode="&#x2086;" horiz-adv-x="581" d="M14 0zM14 131q0 180 74 263t215 83q63 0 191 -25l38 -8l-16 -172q-125 16 -178 17q-61 0 -80.5 -15.5t-24.5 -54.5q55 18 86 18q129 0 188.5 -55t59.5 -178q0 -233 -276 -234q-148 0 -212.5 85t-64.5 276zM233 43q0 -51 11.5 -69.5t46.5 -18.5q49 0 49 51q0 49 -47 49 q-35 0 -60 -12z" />
<glyph unicode="&#x2087;" horiz-adv-x="573" d="M41 0zM41 -180l172 325v14h-166v275h494v-240l-181 -422z" />
<glyph unicode="&#x2088;" horiz-adv-x="661" d="M12 0zM12 -51q0 47 16.5 83.5t37.5 55.5q14 12 63 41q-59 35 -81.5 70.5t-22.5 107.5q0 203 305 203q158 0 231.5 -44t73.5 -159q0 -72 -22.5 -107.5t-82.5 -72.5q70 -35 93.5 -71t23.5 -114t-44 -129t-114 -67t-159 -17q-318 1 -318 220zM285 -31q0 -47 45 -47t45 51 q0 35 -29 68h-31q-31 -27 -30 -72zM295 270q0 -23 20 -57h31q20 25 21 65q0 43 -35 43q-37 0 -37 -51z" />
<glyph unicode="&#x2089;" horiz-adv-x="598" d="M16 0zM16 256q0 244 279 243q152 0 220.5 -89t68.5 -285q0 -190 -77 -277.5t-224 -87.5q-78 0 -205 27l-43 8l16 180q133 -18 199 -18q61 0 80.5 16.5t23.5 56.5q-55 -18 -88 -18q-127 0 -188.5 58.5t-61.5 185.5zM246 254q0 -53 47 -54q26 1 61 15q0 53 -11 71.5 t-48 18.5q-49 0 -49 -51z" />
<glyph unicode="&#x20ac;" d="M47 336v264h107v96h-107v265h125q25 160 82 249.5t159.5 128.5t270.5 39q145 0 412 -59l-11 -281q-178 25 -299 25q-94 0 -136 -5t-65.5 -26.5t-43.5 -70.5h411v-265h-432v-96h432v-264h-395q27 -33 66 -40t149 -7q109 0 313 20l7 -286q-209 -49 -445 -50 q-194 0 -310 88.5t-157 274.5h-133z" />
<glyph unicode="&#x2122;" horiz-adv-x="1329" d="M150 1137v200h409v-200h-51v-457h-225v457h-133zM602 678v659h252l51 -254l56 254h253v-659h-208v289l-27 -238h-129l-39 238v-289h-209z" />
<glyph unicode="&#x2126;" d="M55 801q0 303 125 440t393 137t393.5 -137t125.5 -440q0 -201 -50.5 -338t-113.5 -182h102v-299h-440v260q47 70 86 197.5t39 269.5q0 145 -11.5 220t-41 104.5t-89.5 29.5q-59 0 -88.5 -29.5t-41 -103.5t-11.5 -221q0 -141 39 -269.5t86 -197.5v-260h-440v299h104 q-63 45 -114.5 182t-51.5 338z" />
<glyph unicode="&#x2202;" d="M33 449q0 221 118.5 339.5t342.5 118.5q113 0 186 -30l22 -11q-10 115 -32.5 171.5t-67.5 78t-131 21.5q-61 0 -140 -13.5t-124 -27.5l-47 -13l-8 269q102 49 183 66.5t195 17.5q291 0 423 -181.5t132 -558.5q0 -252 -56 -408.5t-180 -231t-329 -74.5 q-248 0 -367.5 114.5t-119.5 352.5zM416 446q0 -86 26.5 -125.5t81.5 -39.5q92 0 135 67.5t43 226.5q-20 33 -167 33q-59 0 -89 -38t-30 -124z" />
<glyph unicode="&#x2206;" d="M78 0v276l207 1076h583l203 -1080v-272h-993zM426 299h297l-119 760h-55z" />
<glyph unicode="&#x220f;" d="M66 1247v318h1019v-318h-98v-1638h-364v1638h-105v-1638h-368v1638h-84z" />
<glyph unicode="&#x2211;" d="M43 -55l446 651l-446 627v344h1065v-318h-676v-20l383 -510v-244l-383 -534v-17h676v-315h-1065v336z" />
<glyph unicode="&#x2212;" d="M121 356v316h905v-316h-905z" />
<glyph unicode="&#x221a;" d="M-2 575v318h399l140 -850h30l248 1595h361l-345 -1896h-565l-164 833h-104z" />
<glyph unicode="&#x221e;" d="M51 598q0 178 75 264t224 86q68 0 127.5 -31.5t95.5 -89.5q37 57 96.5 89t127.5 32q149 0 224 -86t75 -264q0 -350 -303 -350q-68 0 -126.5 31.5t-93.5 89.5q-39 -51 -100 -86t-119 -35q-303 0 -303 350zM369 598q0 -49 41 -49q10 0 17 9t15.5 28.5t14.5 11.5 q-35 45 -49 49q-39 0 -39 -49zM690 598q23 -20 33 -34.5t14 -14.5q41 0 41 49t-41 49q-4 0 -19.5 -23.5t-27.5 -25.5z" />
<glyph unicode="&#x222b;" d="M213 -391l8 289q45 -4 82 -4q47 0 61.5 14t14.5 55v1274q0 141 28.5 219t98 112t196.5 34q37 0 191 -31l41 -6l-8 -287q-39 6 -111 6q-47 0 -58.5 -9t-11.5 -40v-1282q0 -178 -82.5 -276.5t-238.5 -100.5q-37 0 -121 16z" />
<glyph unicode="&#x2248;" d="M115 315q35 31 123 68t143 37q63 0 211 -35q156 -33 201 -33q80 0 186 51l35 17l14 -283q-47 -47 -135 -84q-51 -16 -100 -16q-66 0 -228 33t-209 32q-37 0 -101.5 -18t-88.5 -31l-35 -18zM115 813q35 31 123 68t143 37q59 0 211 -33q156 -33 201 -33q86 0 186 51l35 15 l14 -281q-45 -45 -135 -86q-45 -14 -100 -14q-66 -1 -228 32t-209 33q-37 0 -100 -19.5t-90 -31.5l-35 -19z" />
<glyph unicode="&#x2260;" d="M106 127v319h252l60 140h-312v317h451l139 316l275 -109l-92 -207h153v-317h-293l-61 -140h354v-319h-495l-125 -281l-271 109l76 172h-111z" />
<glyph unicode="&#x2264;" d="M137 -78v318h860v-318h-860zM137 547v303l860 233v-342l-471 -28l471 -33v-340z" />
<glyph unicode="&#x2265;" d="M152 -78v318h860v-318h-860zM152 340v340l471 33l-471 28v342l860 -233v-303z" />
<glyph unicode="&#x25ca;" d="M88 664l305 688h359l303 -688l-303 -664h-359zM438 666l133 -297l134 297l-134 313z" />
<glyph unicode="&#x25fc;" horiz-adv-x="1024" d="M0 0v1024h1024v-1024h-1024z" />
<glyph unicode="&#xf6be;" horiz-adv-x="585" d="M-49 -221q78 59 111.5 96t43 75t9.5 113v961h356v-963q0 -152 -31.5 -240.5t-110.5 -155t-239 -146.5z" />
<glyph unicode="&#xf6c3;" horiz-adv-x="0" d="M-397 -672l102 516h342l-119 -516h-325z" />
<glyph unicode="&#xfbb2;" horiz-adv-x="0" d="M43 1161v330h317v-330h-317z" />
<glyph unicode="&#xfbb3;" horiz-adv-x="0" d="M43 -160h317v-329h-317v329z" />
<glyph unicode="&#xfbb4;" horiz-adv-x="0" d="M74 1180v311h248v-311h-248zM422 1180v311h248v-311h-248z" />
<glyph unicode="&#xfbb5;" horiz-adv-x="0" d="M74 -150h248v-311h-248v311zM422 -150h248v-311h-248v311z" />
<glyph unicode="&#xfbb6;" horiz-adv-x="0" d="M74 1280v295h248v-295h-248zM260 1608v270h225v-270h-225zM422 1280v295h248v-295h-248z" />
</font>
</defs>
</svg>
