<svg xmlns="http://www.w3.org/2000/svg" width="65.729" height="57.163" viewBox="0 0 65.729 57.163"><defs><style>.a{fill:#fff;}</style></defs><g transform="translate(0 0)"><path class="a" d="M162.215,335.891a.963.963,0,0,0,.963-.963v-4.665a.963.963,0,0,0-.963-.963H129.194a.963.963,0,0,0-.963.963v4.665a.963.963,0,0,0,.963.963Zm-12-1.926h-3.545v-2.739h3.545Zm1.926-2.739h3.546v2.739h-3.546Zm-7.4,2.739H141.2v-2.739h3.545Zm-5.471,0h-3.545v-2.739h3.545Zm21.981,0h-3.643v-2.739h3.643Zm-31.1-2.739H133.8v2.739h-3.643Z" transform="translate(-111.769 -291.308)"/><path class="a" d="M64.766,88.6H61.991V52.008h.4a.963.963,0,1,0,0-1.926h-.4V46.675h.4a.963.963,0,1,0,0-1.926H50.169a.963.963,0,0,0,0,1.926h.4v3.408h-.4a.963.963,0,0,0,0,1.926h.4V56.2l-6.627-6.627a3.188,3.188,0,0,0-2.269-.94H37.445V40.942H38a.963.963,0,1,0,0-1.926h-.559V35.286H38a.963.963,0,1,0,0-1.926h-18.2a.963.963,0,1,0,0,1.926h.559v3.731h-.559a.963.963,0,1,0,0,1.926h.559v4.32a.963.963,0,0,0,1.926,0v-4.32H35.519V67.026H22.293V49.112a.963.963,0,0,0-1.926,0V67.026H16.676V62.673h.464a.963.963,0,1,0,0-1.926h-.464V60.42a.963.963,0,0,0-1.926,0v.328h-.464a.963.963,0,1,0,0,1.926h.464v4.353H12.669a1.737,1.737,0,0,0-1.735,1.735v6.3h-1.9a6.649,6.649,0,0,0-5.105,2.388A.963.963,0,1,0,5.4,78.691a4.728,4.728,0,0,1,3.63-1.7h1.9v2.568h-1.9a2.171,2.171,0,0,0-2.168,2.168V88.6H4.3V81.749a.963.963,0,1,0-1.926,0V88.6H.963a.963.963,0,0,0,0,1.926h63.8a.963.963,0,0,0,0-1.926ZM22.293,39.017V35.286H35.519v3.731H22.293ZM52.5,46.675h7.566v3.408H52.5ZM41.677,50.559a1.274,1.274,0,0,1,.908.376l7.989,7.989v3.631l-9.146-9.146a.963.963,0,0,0-.681-.282h-3.3V50.559h4.232ZM8.789,81.727a.243.243,0,0,1,.243-.243h1.9V88.6H8.789Zm4.071-12.775H42.065a.963.963,0,1,0,0-1.926h-4.62V55.052h2.9L50.574,65.278v1.748H45.915a.963.963,0,1,0,0,1.926h9.1V88.6H42V81.914a.963.963,0,0,0-.963-.963h-14.2a.963.963,0,0,0-.963.963V88.6H12.859V68.952ZM27.8,88.6V82.877H40.072V88.6Zm29.139,0V68.761A1.737,1.737,0,0,0,55.2,67.026H52.5V52.008h7.566V88.6Z" transform="translate(0 -33.36)"/></g></svg>