<svg xmlns="http://www.w3.org/2000/svg" width="56.378" height="57" viewBox="0 0 56.378 57"><defs><style>.a{fill:#fff;}</style></defs><g transform="translate(-120.794 0)"><g transform="translate(120.794 0)"><path class="a" d="M81.5,181.506H60.125a.835.835,0,1,0,0,1.67H81.5a.835.835,0,1,0,0-1.67Z" transform="translate(-53 -161.299)"/><path class="a" d="M81.5,234.2H60.125a.835.835,0,0,0,0,1.67H81.5a.835.835,0,1,0,0-1.67Z" transform="translate(-53 -208.129)"/><path class="a" d="M81.5,286.9H60.125a.835.835,0,1,0,0,1.67H81.5a.835.835,0,1,0,0-1.67Z" transform="translate(-53 -254.957)"/><path class="a" d="M82.333,340.429a.835.835,0,0,0-.835-.835H60.125a.835.835,0,1,0,0,1.67H81.5A.835.835,0,0,0,82.333,340.429Z" transform="translate(-53 -301.788)"/><path class="a" d="M60.125,416.821a.835.835,0,0,0,0,1.67H70.839a.835.835,0,0,0,0-1.67Z" transform="translate(-53 -370.417)"/><path class="a" d="M178.488,56.288V53.579a1.874,1.874,0,0,0-1.872-1.872H159.476a1.874,1.874,0,0,0-1.872,1.872v2.709a1.874,1.874,0,0,0,1.872,1.872h1.447a.835.835,0,0,0,0-1.67h-1.447a.2.2,0,0,1-.2-.2V53.579a.2.2,0,0,1,.2-.2h17.141a.2.2,0,0,1,.2.2v2.709a.2.2,0,0,1-.2.2h-11.79a.835.835,0,0,0,0,1.67h11.79A1.873,1.873,0,0,0,178.488,56.288Z" transform="translate(-140.369 -45.951)"/><path class="a" d="M47.155,50.91a.835.835,0,0,0-.835.835v1.124a2.464,2.464,0,0,1-2.461,2.461H6.925a2.464,2.464,0,0,1-2.461-2.461V12.739a2.478,2.478,0,0,1,.059-.53h7.6A2.882,2.882,0,0,0,15,9.33v-7.6a2.477,2.477,0,0,1,.53-.059H43.859A2.464,2.464,0,0,1,46.32,4.131V15.246a.835.835,0,0,0,1.67,0V4.131A4.135,4.135,0,0,0,43.859,0H15.533a4.1,4.1,0,0,0-2.921,1.21L4,9.818a4.1,4.1,0,0,0-1.21,2.921v40.13A4.135,4.135,0,0,0,6.925,57H43.859a4.136,4.136,0,0,0,4.131-4.131V51.745a.835.835,0,0,0-.835-.835ZM13.333,2.85V9.33a1.21,1.21,0,0,1-1.209,1.209H5.644Z" transform="translate(-2.794 0)"/><path class="a" d="M316.782,176.029a3.338,3.338,0,0,0-1.632-5.022,1.659,1.659,0,0,1-1.1-1.52,3.338,3.338,0,0,0-4.272-3.1,1.659,1.659,0,0,1-1.787-.581,3.338,3.338,0,0,0-5.28,0,1.659,1.659,0,0,1-1.787.581,3.338,3.338,0,0,0-4.272,3.1,1.659,1.659,0,0,1-1.1,1.52,3.338,3.338,0,0,0-1.632,5.022,1.659,1.659,0,0,1,0,1.879,3.338,3.338,0,0,0,1.632,5.022,1.659,1.659,0,0,1,1.1,1.52,3.338,3.338,0,0,0,2.883,3.206v7.6a1.772,1.772,0,0,0,2.7,1.509l3.062-1.885a.087.087,0,0,1,.107,0l3.062,1.885a1.772,1.772,0,0,0,2.7-1.509v-7.6a3.338,3.338,0,0,0,2.883-3.206,1.659,1.659,0,0,1,1.1-1.52,3.338,3.338,0,0,0,1.632-5.022A1.658,1.658,0,0,1,316.782,176.029Zm-7.444,19.315-3.062-1.885a1.772,1.772,0,0,0-1.858,0l-3.062,1.885a.1.1,0,0,1-.156-.087V187.5a1.656,1.656,0,0,1,1.506.637,3.338,3.338,0,0,0,5.28,0,1.657,1.657,0,0,1,1.507-.637v7.76a.1.1,0,0,1-.156.087Zm6.064-16.5a1.668,1.668,0,0,1-.816,2.51,3.319,3.319,0,0,0-2.21,3.041,1.669,1.669,0,0,1-2.135,1.551,3.32,3.32,0,0,0-3.575,1.162,1.669,1.669,0,0,1-2.639,0,3.317,3.317,0,0,0-2.63-1.3,3.371,3.371,0,0,0-.945.136,1.662,1.662,0,0,1-1.535-.319,1.645,1.645,0,0,1-.6-1.232,3.32,3.32,0,0,0-2.21-3.041,1.668,1.668,0,0,1-.815-2.51,3.32,3.32,0,0,0,0-3.759,1.668,1.668,0,0,1,.815-2.51,3.32,3.32,0,0,0,2.21-3.041,1.668,1.668,0,0,1,2.135-1.551,3.32,3.32,0,0,0,3.575-1.162,1.669,1.669,0,0,1,2.639,0,3.319,3.319,0,0,0,3.575,1.162,1.668,1.668,0,0,1,2.135,1.551,3.319,3.319,0,0,0,2.21,3.041,1.668,1.668,0,0,1,.816,2.51,3.319,3.319,0,0,0,0,3.76Z" transform="translate(-260.986 -146.193)"/><path class="a" d="M345.411,213.583a7,7,0,1,0,7,7A7.005,7.005,0,0,0,345.411,213.583Zm0,12.325a5.328,5.328,0,1,1,5.328-5.328A5.334,5.334,0,0,1,345.411,225.908Z" transform="translate(-301.05 -189.805)"/></g></g></svg>