<?xml version="1.0" encoding="UTF-8" standalone="no"?>
<!-- Created with Inkscape (http://www.inkscape.org/) -->

<svg
   width="36.857525"
   height="43.389454"
   viewBox="0 0 9.751887 11.480126"
   version="1.1"
   id="svg1"
   inkscape:export-filename="landPlot.svg"
   inkscape:export-xdpi="96"
   inkscape:export-ydpi="96"
   xmlns:inkscape="http://www.inkscape.org/namespaces/inkscape"
   xmlns:sodipodi="http://sodipodi.sourceforge.net/DTD/sodipodi-0.dtd"
   xmlns="http://www.w3.org/2000/svg"
   xmlns:svg="http://www.w3.org/2000/svg">
  <sodipodi:namedview
     id="namedview1"
     pagecolor="#ffffff"
     bordercolor="#000000"
     borderopacity="0.25"
     inkscape:showpageshadow="2"
     inkscape:pageopacity="0.0"
     inkscape:pagecheckerboard="0"
     inkscape:deskcolor="#d1d1d1"
     inkscape:document-units="mm" />
  <defs
     id="defs1" />
  <g
     inkscape:label="Layer 1"
     inkscape:groupmode="layer"
     id="layer1"
     transform="translate(-3.353439,-0.21936111)">
    <path
       style="fill:#446771;fill-opacity:1;stroke-width:0.0532716"
       d="M 3.9160013,11.599301 C 3.411779,11.36777 3.3566412,11.18348 3.3566412,9.7301561 c 0,-0.6656704 0.020872,-1.1736833 0.048288,-1.1736833 0.065183,0 1.8846431,0.7495476 1.9397244,0.7990785 0.023973,0.021575 -0.059374,0.5577814 -0.1852126,1.1915787 l -0.2287581,1.152358 -0.4008008,-0.0012 c -0.2739964,-5.36e-4 -0.4682344,-0.0321 -0.6138776,-0.09899 z M 6.069876,10.700647 c 0.1515933,-0.7284989 0.2143463,-0.9415789 0.2733195,-0.9282 0.090276,0.020477 4.4877715,1.823517 4.5202895,1.853391 0.01213,0.01119 -1.1056331,0.02039 -2.484052,0.02039 H 5.8731564 Z m 5.83683,0.254213 -0.745786,-0.313307 -0.01438,-1.2084446 c -0.01157,-0.9594414 0,-1.2029332 0.05328,-1.1817014 0.0372,0.014689 0.433206,0.1888507 0.880006,0.3869795 l 0.812402,0.3602378 v 0.9526076 c 0,0.7113411 -0.01947,0.9993971 -0.0772,1.1373461 -0.04245,0.101608 -0.09639,0.183582 -0.119865,0.182163 -0.02341,-0.0014 -0.378294,-0.143563 -0.788486,-0.315881 z M 8.3141707,9.4577129 C 7.3344643,9.0486637 6.5205957,8.7016875 6.5055635,8.6866542 6.4740857,8.6551978 6.8772007,6.5575631 6.9316339,6.4695085 c 0.023409,-0.038023 0.5990149,0.184347 1.6532052,0.6387336 l 1.6171889,0.6970555 0.01438,1.201298 c 0.01128,0.9438443 0,1.2006014 -0.05328,1.1980684 -0.03715,-0.002 -0.8691473,-0.3379041 -1.8488814,-0.7469511 z M 4.4099297,7.8455802 3.3589821,7.4111334 3.3562106,6.119974 3.3534391,4.8288113 3.649068,4.9595523 c 0.1625652,0.071899 0.7702091,0.3367974 1.3502989,0.5886463 L 6.054038,6.0061135 5.8499291,7.0282514 C 5.5893286,8.333262 5.6003283,8.291002 5.5232189,8.28507 5.4871788,8.2822985 4.9847302,8.0845235 4.4067265,7.8455802 Z M 12.359541,7.5702631 C 12.081172,7.4485795 11.73895,7.2953468 11.596777,7.2349772 l -0.119471,-0.050729 c 0,0 0.466289,-0.6865952 0.720515,-1.0615465 0.254255,-0.3749523 0.69942,-1.0509934 0.69942,-1.0509934 l -0.01664,0.5532969 c 0.0079,0.4145805 0.0079,1.0716433 0,1.4601408 l -0.01494,0.706357 z M 10.565966,6.8394913 C 10.505804,6.7730074 10.012501,6.0556923 9.4697241,5.2454682 8.3603107,3.5894734 8.2389512,3.332866 8.2390077,2.6433384 c 0,-0.6861432 0.2350196,-1.2220917 0.7518213,-1.71486658 0.6988548,-0.66640386 1.652556,-0.88210717 2.502272,-0.565957 1.005568,0.37414205 1.612225,1.23237238 1.612225,2.28082358 0,0.7438873 -0.09375,0.9417017 -1.28419,2.709602 -0.584715,0.8683157 -1.081718,1.5852065 -1.104449,1.5930946 -0.02284,0.00789 -0.09056,-0.040059 -0.150721,-0.1065426 z M 11.214168,3.8756484 C 11.872015,3.5757833 12.183382,2.894843 11.977242,2.2068781 11.89802,1.942405 11.557518,1.5524919 11.283972,1.4129269 10.771372,1.151415 10.137781,1.2510321 9.7318201,1.656974 8.8651257,2.5237015 9.460446,3.9759179 10.68146,3.9734331 c 0.194632,-5.639e-4 0.403,-0.038641 0.532708,-0.09778 z M 8.2707371,5.7936656 C 7.6773067,5.5354955 7.1799375,5.3124169 7.1654692,5.2979433 7.1431907,5.2755794 7.5270661,3.7318558 7.6291915,3.332801 7.6562668,3.2268127 7.6975514,4.0183697 7.8359801,4.2794893 8.2026255,4.9710646 8.2419977,5.0170533 8.5918904,5.4100236 9.0540606,5.9290979 9.410751,6.2651832 9.3890629,6.2644328 9.3673493,6.2635864 8.8641674,6.0518368 8.2707371,5.7936656 Z M 4.8209115,4.2948348 3.3832934,3.6631376 3.3860649,3.2143718 C 3.3888364,2.8258488 3.4046765,2.7399015 3.518311,2.5741331 3.5904871,2.4688163 3.7370864,2.3334352 3.8441461,2.2732745 4.0266511,2.1707079 4.1254198,2.1638932 5.4298888,2.1638932 c 0.765133,0 1.3911103,0.014668 1.3911103,0.032554 0,0.047723 -0.5383491,2.7076929 -0.5504477,2.7198033 -0.00565,0.00565 -0.6572269,-0.2739889 -1.447912,-0.6214161 z"
       id="path1"
       sodipodi:nodetypes="sssssccsssssscsccccscsssscsscscscssccccsscssccsscsccccsssssssssscsssccssssscscccssssscc" />
  </g>
</svg>
