<?xml version="1.0" encoding="UTF-8" standalone="no"?>
<!-- Created with Inkscape (http://www.inkscape.org/) -->

<svg
   width="48.388577"
   height="45"
   viewBox="0 0 12.80281 11.906251"
   version="1.1"
   id="svg1"
   xml:space="preserve"
   inkscape:export-filename="sgl.svg"
   inkscape:export-xdpi="96"
   inkscape:export-ydpi="96"
   xmlns:inkscape="http://www.inkscape.org/namespaces/inkscape"
   xmlns:sodipodi="http://sodipodi.sourceforge.net/DTD/sodipodi-0.dtd"
   xmlns="http://www.w3.org/2000/svg"
   xmlns:svg="http://www.w3.org/2000/svg"><sodipodi:namedview
     id="namedview1"
     pagecolor="#ffffff"
     bordercolor="#000000"
     borderopacity="0.25"
     inkscape:showpageshadow="2"
     inkscape:pageopacity="0.0"
     inkscape:pagecheckerboard="0"
     inkscape:deskcolor="#d1d1d1"
     inkscape:document-units="px" /><defs
     id="defs1" /><g
     inkscape:label="Layer 1"
     inkscape:groupmode="layer"
     id="layer1"
     transform="translate(-0.0298958,-0.01760868)"><g
       id="g3"
       transform="matrix(0.02325439,0,0,0.02325439,0.00473266,0.00791005)"
       style="fill:#e6e7e7;fill-opacity:1"><path
         id="path275"
         d="M 158.82411,278.94526 V 381.62489 H 33.498656 V 329.19544 L 153.84858,277.4379 Z M 334.146,331.91953 v 49.70536 H 221.87842 V 298.01384 Z M 1.0820815,307.78417 v 204.633 H 366.58164 v -204.633 L 151.86954,242.95102 1.0820815,307.78417"
         style="fill:#f37121;fill-opacity:1;fill-rule:nonzero;stroke:none;stroke-width:1.81604"
         sodipodi:nodetypes="ccccccccccccccccc" /><path
         id="path276"
         d="m 117.34588,133.89706 -58.931415,32.4528 v 106.23918 l 58.931415,-25.3702 V 133.89706"
         style="fill:#f37121;fill-opacity:1;fill-rule:nonzero;stroke:none;stroke-width:1.81604"
         sodipodi:nodetypes="ccccc" /><path
         id="path277"
         d="M 461.72426,0.41706662 H 402.77514 V 39.843509 h 58.94912 V 0.41706662"
         style="fill:#f37121;fill-opacity:1;fill-rule:nonzero;stroke:none;stroke-width:1.81604"
         sodipodi:nodetypes="ccccc" /><path
         id="path278"
         d="m 461.72426,62.943726 h -58.94912 v 38.391444 l 58.94912,28.49388 V 62.943726"
         style="fill:#f37121;fill-opacity:1;fill-rule:nonzero;stroke:none;stroke-width:1.81604"
         sodipodi:nodetypes="ccccc" /><path
         id="path279"
         d="m 285.92976,174.50397 55.26342,-38.11902 78.72598,38.11902 z m 150.33388,130.04765 h 60.74702 v 56.02524 h -60.74702 z m 0,-80.9778 h 60.74702 v 56.06159 H 436.26364 Z M 551.63665,412.6613 V 184.21982 L 336.94364,80.232653 186.10171,184.21982 v 55.53503 l 193.46426,58.42242 V 512.16288 H 551.63665 V 441.55466 H 411.25658 V 412.6613 h 140.38007"
         style="fill:#f37121;fill-opacity:1;fill-rule:nonzero;stroke:none;stroke-width:1.81604"
         sodipodi:nodetypes="cccccccccccccccccccccccccc" /></g></g><style
     type="text/css"
     id="style1">&#10;	.st0{fill:#E6E7E7;}&#10;	.st1{fill:none;stroke:#FFFFFF;stroke-width:16;stroke-linecap:round;stroke-miterlimit:10;}&#10;	.st2{fill:none;stroke:#FFFFFF;stroke-width:12.2007;stroke-linecap:round;stroke-miterlimit:10;}&#10;</style></svg>
