<?xml version="1.0" encoding="UTF-8" standalone="no"?>
<!-- Created with Inkscape (http://www.inkscape.org/) -->

<svg
   width="39.892654"
   height="45.000004"
   viewBox="0 0 10.554931 11.906252"
   version="1.1"
   id="svg1"
   xml:space="preserve"
   inkscape:export-filename="sgl.svg"
   inkscape:export-xdpi="96"
   inkscape:export-ydpi="96"
   xmlns:inkscape="http://www.inkscape.org/namespaces/inkscape"
   xmlns:sodipodi="http://sodipodi.sourceforge.net/DTD/sodipodi-0.dtd"
   xmlns="http://www.w3.org/2000/svg"
   xmlns:svg="http://www.w3.org/2000/svg"><sodipodi:namedview
     id="namedview1"
     pagecolor="#ffffff"
     bordercolor="#000000"
     borderopacity="0.25"
     inkscape:showpageshadow="2"
     inkscape:pageopacity="0.0"
     inkscape:pagecheckerboard="0"
     inkscape:deskcolor="#d1d1d1"
     inkscape:document-units="px" /><defs
     id="defs1" /><g
     inkscape:label="Layer 1"
     inkscape:groupmode="layer"
     id="layer1"
     transform="translate(-0.03624363,-0.03443901)"><g
       id="g3"
       transform="matrix(0.02325439,0,0,0.02325439,0.00473266,0.00791005)"
       style="fill:#e6e7e7;fill-opacity:1"><path
         id="path96"
         d="m 371.05347,1.1408152 h -79.25581 l -6.35367,55.3177698 h 92.02146 L 371.05347,1.1408152"
         style="fill:#f37121;fill-opacity:1;fill-rule:nonzero;stroke:none;stroke-width:1.94301"
         sodipodi:nodetypes="ccccc" /><path
         id="path97"
         d="m 419.47343,275.45632 h -69.8126 v -64.31389 h 69.8126 z m 0,92.99286 h -69.8126 v -64.3528 h 69.8126 z m 0,96.23776 h -69.8126 v -64.35281 h 69.8126 z M 313.20969,275.45632 h -69.8126 v -64.31389 h 69.8126 z m 0,92.99286 h -69.8126 v -64.3528 h 69.8126 z m 0,96.23776 h -69.8126 v -64.35281 h 69.8126 z M 154.98965,461.22841 H 63.046035 c 15.8355,-30.9912 49.702325,-55.35667 91.943615,-65.88774 z M 413.68328,141.8932 H 387.25827 L 380.0107,78.881075 h -97.1315 l -7.28632,63.012125 h -27.1245 c -22.92773,0 -41.52243,18.63347 -41.52243,41.54167 v 154.47005 c -1.80701,-0.0437 -3.57511,-0.10208 -5.32382,-0.10208 -110.596625,0 -200.2670752,72.99921 -200.2670752,163.07754 0,4.11925 0.23317,8.19958 0.62226,12.26055 H 206.94639 455.2449 V 183.42991 c 0,-22.9082 -18.59469,-41.54165 -41.56118,-41.54165"
         style="fill:#f37121;fill-opacity:1;fill-rule:nonzero;stroke:none;stroke-width:1.94301"
         sodipodi:nodetypes="cccccccccccccccccccccccccccccccccccccccsscsscccsc" /></g></g><style
     type="text/css"
     id="style1">&#10;	.st0{fill:#E6E7E7;}&#10;	.st1{fill:none;stroke:#FFFFFF;stroke-width:16;stroke-linecap:round;stroke-miterlimit:10;}&#10;	.st2{fill:none;stroke:#FFFFFF;stroke-width:12.2007;stroke-linecap:round;stroke-miterlimit:10;}&#10;</style></svg>
