<?xml version="1.0" encoding="UTF-8" standalone="no"?>
<!-- Created with Inkscape (http://www.inkscape.org/) -->

<svg
   width="50"
   height="45.523975"
   viewBox="0 0 13.229166 12.044886"
   version="1.1"
   id="svg1"
   xmlns="http://www.w3.org/2000/svg"
   xmlns:svg="http://www.w3.org/2000/svg">
  <defs
     id="defs1" />
  <g
     id="layer1"
     transform="translate(-0.03277961,-0.06272371)">
    <polygon
       class="st0"
       points="384,128 256,0 256,128 "
       id="polygon1"
       style="fill:#f37121;fill-opacity:1"
       transform="matrix(0.02349763,0,0,0.02349763,0.03277961,0.06272371)" />
    <path
       class="st0"
       d="m 6.048173,8.7098525 c 0,-1.8939089 1.271222,-3.4893989 3.007698,-3.980499 V 3.8223446 H 6.048173 c -0.415908,0 -0.7519238,-0.3360161 -0.7519238,-0.7519236 V 0.06272371 H 1.5366278 c -0.82946626,0 -1.50384819,0.67438185 -1.50384819,1.50384819 v 9.0230901 c 0,0.829466 0.67438193,1.503848 1.50384819,1.503848 H 7.552022 c 0.07754,0 0.152734,-0.0047 0.227927,-0.01645 C 6.731954,11.325139 6.048173,10.098563 6.048173,8.7098525 Z"
       id="path1"
       style="fill:#f37121;fill-opacity:1;stroke-width:0.0234976" />
    <path
       class="st1"
       d="m 9.8782861,5.3402926 c -1.8680601,0 -3.3836581,1.515597 -3.3836581,3.3836589 0,1.8680605 1.515598,3.3836575 3.3836581,3.3836575 1.8680629,0 3.3836599,-1.515597 3.3836599,-3.3836575 0,-1.8680619 -1.513247,-3.3836589 -3.3836599,-3.3836589 z m 2.2863209,3.8371619 c -0.373613,0.2302771 -0.444106,0.4300071 -0.324267,0.9140585 0.08929,0.366563 -0.10339,0.629736 -0.477002,0.620336 -0.0282,-0.0047 -0.07754,-0.01175 -0.129237,-0.0235 -0.523998,-0.115139 -0.655585,-0.06344 -0.923458,0.366563 -0.251424,0.40181 -0.6320865,0.406508 -0.8647125,-0.0047 C 9.239152,10.68365 8.971279,10.554412 8.553021,10.67425 8.06427,10.815236 7.808146,10.547363 7.937383,10.051563 8.036073,9.6662026 7.939783,9.3818806 7.582569,9.1751025 7.131414,8.9142785 7.129065,8.5641635 7.556719,8.2962905 7.960879,8.0425155 8.040771,7.8521845 7.932682,7.3986816 7.815194,6.9099296 8.073668,6.6491066 8.564768,6.7877426 c 0.39946,0.112789 0.664983,-0.0094 0.8670625,-0.357164 0.263173,-0.451155 0.6273865,-0.446455 0.8999595,0.01175 0.19503,0.328967 0.451154,0.455854 0.836516,0.352465 0.540445,-0.145685 0.777771,0.103389 0.641485,0.655584 -0.08929,0.3571639 0.01175,0.6226879 0.333666,0.8153679 0.4958,0.29372 0.49815,0.615637 0.02115,0.911709 z"
       id="path2"
       style="fill:#f37121;fill-opacity:1;stroke-width:0.0234976" />
    <path
       class="st0"
       d="m 11.492575,7.6994535 c -0.145686,-0.1456839 -0.385361,-0.1456839 -0.531047,0 L 9.328443,9.2244505 8.654061,8.5500685 c -0.145686,-0.145686 -0.385361,-0.145686 -0.531047,0 -0.145685,0.145685 -0.145685,0.385361 0,0.531046 L 9.062919,10.02102 c 0.145686,0.145685 0.3853615,0.145685 0.5310465,0 L 11.492575,8.2305005 c 0.145685,-0.145685 0.145685,-0.385361 0,-0.531047 z"
       id="path3"
       style="fill:#f37121;fill-opacity:1;stroke-width:0.0234976" />
  </g>
</svg>
